<svg xmlns="http://www.w3.org/2000/svg" version="1.1" xmlns:xlink="http://www.w3.org/1999/xlink" width="1000" height="1000"><g clip-path="url(#SvgjsClipPath1112)"><rect width="1000" height="1000" fill="#f37000"></rect><g transform="matrix(1.232394366197183,0,0,1.232394366197183,198.06338028169017,150)"><svg xmlns="http://www.w3.org/2000/svg" version="1.1" xmlns:xlink="http://www.w3.org/1999/xlink" width="490" height="568"><svg id="Layer_1" version="1.1" viewBox="0 0 490 568" xmlns="http://www.w3.org/2000/svg" xmlns:svg="http://www.w3.org/2000/svg">

    <!-- Generator: Adobe Illustrator 29.0.0, SVG Export Plug-In . SVG Version: 2.1.0 Build 186)  -->
    <path d="M58.69,67.3c13.11,13.86,27.11,32.91,43.62,42.89,11.1,6.71,34.56,7.37,47.22,5.83,8.95-1.09,31.97-19.06,39.49-25.51,11.99-10.29,25.76-27.7,38.06-35.94,8.89-5.96,13.03-.56,18.96,5.91,7.02,7.65,8.78,13.85,13.58,22.42,14.04,25.05,38.99,68.91,70.85,73.15,5.69.76,40.16.69,44.54-.73,3.46-1.12,14.28-6.59,18.26-8.55,18.14-8.92,27.7-17.64,42.22-30.79,7.98-7.23,13.75-17.96,26.52-12.47,11.87,5.1,10.83,19.02,4,28-7.43,9.76-19.64,20.58-28.04,29.99-20.91,23.41-40.2,47.33-57.96,73.02-5.47,7.91-10.15,16.48-15.39,24.56-.25.38-.25.86,0,1.24,17.94,27.56,30.97,58.11,34.39,91.21,18.67,181.02-207.44,281.35-329.02,145.02-119.2-133.65-1.31-342.35,175.21-311.21,7.08,1.25,13.93,3.55,20.96,4.85.85.16,1.55-.66,1.29-1.48-2.64-8.3-5.05-17.49-8.23-25.38-3.63-8.99-9.01-17.28-12.91-26.09-4.56-10.3-8.01-22.13-12.91-32.14-.54-1.11-3.07-4.65-4.86-5.18-5.22-1.69-10.15,7.89-14.55,12.62-5.42,5.83-11.38,11.29-16.85,17.14-1.66,1.77-2.76,3.98-3.21,6.37-2.13,11.48-.56,23.25.92,34.73.09.67-.42,1.26-1.09,1.28-30.92,1.24-60.72,11.9-87.33,27.15-.69.39-1.55,0-1.69-.78-5.21-28.38-20.2-58.01-38.75-79.88-11.57-13.64-31.5-28.79-41.5-42.5-7.28-9.97-1.51-24.28,11.29-24.76,10.19-.38,13.31,5.63,19.35,12.11.97,1.04,2.82,3.12,3.58,3.92ZM207.41,317.61c-3.16-6.79,1.33-13.44,6.16-18.54,14.93-15.77,26.76-22.6,37.61-43.39,2.28-4.37,9.74-20.73,7.34-24.7-1.21-2-19.55-6.18-22.03-3.99-1.03.91-9.45,20.58-11.67,24.32-6,10.07-15.32,20.34-21.22,29.78-2.45,3.91-2.99,10.13-5.17,13.83s-10.3,8.81-11.88,12.12c-2.18,4.58-3.27,15.06-2.12,20.02.53,2.28,9.26,15.69,11.15,17.85,1.46,1.68,2.81,3.35,5.13,3.87,5.67,1.27,36.22,1.02,42.81.24,4.71-.56,11.78-8.19,16.54-1.6,3.65,5.05-1.97,5.19-4,7.14-3.49,3.35-12.42,16.97-13.6,21.4-.92,3.47-1.16,14.66.29,17.78s5.68,7.24,6.55,7.95c2.21,1.8,9.96,1.73,12.75.86,3.11-.97,4.27-4.82,8.5-5.5s12.61-.79,15.46,2.42c3.99,4.49,1.23,26.65,1.94,34.06.57,6,12.92,32.15,17.07,36.93,3.55,4.09,8.39,9.33,13.97,5.02,1.56-1.21,8.31-12.52,10.59-15.41,15.74-19.99,20.02-25.55,24.64-51.36.99-5.53,5.02-7.37,3.71-15.17-.81-4.85-20.73-21.35-24.93-27.06-1.73-2.34-2.93-4.69-3.08-7.45-.06-1.14.84-2.09,1.98-2.14,3.89-.17,6.33.05,9.64,3.06,2.5,2.27,15.98,21.72,19.79,12.81,1.39-3.24,1.03-26.44.43-31.03-.97-7.43-8.65-25.75-12.93-32.07-.98-1.44-4.68-5.86-6.98-5.9-.47,0-.87.32-1.03.76-1.66,4.6-2.64,10.03-4.35,14.45-4.87,12.59-14.21,36.13-20.95,47.05-4.95,8.02-11.01,8.08-20.05,6.99-10.62-1.27-12.93-14.64-12.46-23.51.63-11.84,6.44-24.74,4.89-35.95-.17-1.23-.66-2.69-1.57-3.64-2.65-2.74-14.43-1.75-17.43-.41-.79.35-2.24,1.25-2.97,1.69-6.7,4.05-21.48,14.98-29.45,15.78-9.57.97-24.55.37-29.07-9.37ZM169.42,242.42c1.71-1.72,3.77-2.05,4.41-5.16,1.63-7.89-6.05-9.26-12.28-8.21-5.2.88-15.5,13.69-20.03,17.99-15.41,14.62-27.48,28.1-39.49,45.49-2.52,3.65-5.7,7.3-7.86,11.14-3.92,6.98-18.74,37.72-19.93,44.07-1.12,5.93.22,13.55-.23,19.77-.21,2.86-1.84,5.16-2.02,7.98-.93,15.25-2.23,32.1,11.05,41.94,6.1,4.52,17.99,4.23,25.5,3.61,3.42-.28,6-1.88,8.95-2.05,7.77-.44,21.61-.89,29.03-.01,7.68.91,12.93,11.05,11.26,18.31-1.28,5.58-10.18,8.52-12.48,14.51-1.75,4.56-2.01,16.5-.87,21.26,1.37,5.69,9.49,8.79,13.58,12.42,3.21,2.86,17.48,16.47,18.86,19.14,3.11,6.04-.91,26.3,2.38,29.12,3,2.58,6.85.48,9.31-1.7s19.75-20.47,20.36-21.84c5.15-11.47,6.88-19.35,9.31-31.49,1.34-6.7,3.73-8.36,2.78-17.24-.84-7.86-10.64-7.24-16.69-10.3s-12.97-10-18.82-14.18c-3-2.14-7.11-3.15-10.41-5.59-2.02-1.49-11.61-10.91-12.33-12.67-1.18-2.91-1.28-16.74-.55-20.03.91-4.07,6.97-8.67,7.74-13.26.86-5.16.83-31.76-.18-36.72s-5.55-6.69-7.01-9.99c-2.22-5.03-1.68-12.74-4.76-17.24-.64-.93-7.38-7.69-8.02-7.98-4.09-1.86-12.48,1.88-13.72-4.03-.03-.13-.03-.26-.02-.39l2.38-20.71c.09-.79.39-1.54.86-2.18,5.81-7.77,20.55-17.2,22.29-25.93,2.4-12.06-2.07-8.07,7.64-17.86Z" id="path1" fill="#fff"></path>
    <path d="M346.83,32.24c65.48-1.55,77.7,94.32,15.37,109.47-81.17,19.72-95.71-107.56-15.37-109.47Z" id="path10" fill="#fff"></path>
    <path d="M131.83,12.25c39.06-1.43,61.58,45.6,35.19,75.28-24.12,27.13-69.05,15.38-77.38-19.66-6.44-27.08,14.26-54.59,42.19-55.61Z" id="path11" fill="#fff"></path>
</svg></svg></g></g><defs><clipPath id="SvgjsClipPath1112"><rect width="1000" height="1000" x="0" y="0" rx="500" ry="500"></rect></clipPath></defs></svg>