<svg width="217" height="30" viewBox="0 0 341 47" fill="white" xmlns="http://www.w3.org/2000/svg">
<path d="M17.856 38.502C19.2407 38.502 20.367 38.3263 21.235 37.975C22.1237 37.6237 22.816 37.169 23.312 36.611C23.808 36.053 24.149 35.4227 24.335 34.72C24.521 34.0173 24.614 33.3043 24.614 32.581C24.614 31.7543 24.5003 31.0103 24.273 30.349C24.0663 29.6877 23.6943 29.1297 23.157 28.675C22.6403 28.2203 21.948 27.869 21.08 27.621C20.212 27.373 19.1167 27.249 17.794 27.249H10.478V38.502H17.856ZM10.478 9.083V20.243H15.934C17.0913 20.243 18.135 20.1603 19.065 19.995C19.995 19.8297 20.7803 19.5403 21.421 19.127C22.0823 18.7137 22.5783 18.1453 22.909 17.422C23.2603 16.6987 23.436 15.7893 23.436 14.694C23.436 13.6193 23.3017 12.7307 23.033 12.028C22.7643 11.3047 22.351 10.726 21.793 10.292C21.235 9.858 20.522 9.548 19.654 9.362C18.8067 9.176 17.794 9.083 16.616 9.083H10.478ZM16.616 1.24C19.7367 1.24 22.3923 1.52934 24.583 2.108C26.7737 2.68667 28.5613 3.503 29.946 4.557C31.3307 5.611 32.333 6.89234 32.953 8.401C33.5937 9.90967 33.914 11.594 33.914 13.454C33.914 14.4667 33.7693 15.4483 33.48 16.399C33.1907 17.329 32.736 18.2073 32.116 19.034C31.496 19.84 30.7003 20.584 29.729 21.266C28.7577 21.948 27.59 22.537 26.226 23.033C29.202 23.7563 31.403 24.924 32.829 26.536C34.255 28.148 34.968 30.2353 34.968 32.798C34.968 34.72 34.596 36.5077 33.852 38.161C33.108 39.8143 32.0127 41.261 30.566 42.501C29.14 43.7203 27.373 44.6813 25.265 45.384C23.157 46.066 20.7493 46.407 18.042 46.407H2C0.895431 46.407 0 45.5116 0 44.407V3.24C0 2.13543 0.895431 1.24 2 1.24H16.616Z"/>
<path d="M60.4142 26.474C60.4142 25.7093 60.3108 24.9653 60.1042 24.242C59.9182 23.5187 59.5978 22.878 59.1432 22.32C58.7092 21.7413 58.1305 21.2763 57.4072 20.925C56.6838 20.5737 55.8055 20.398 54.7722 20.398C52.9535 20.398 51.5275 20.925 50.4942 21.979C49.4608 23.0123 48.7788 24.5107 48.4482 26.474H60.4142ZM48.3242 32.054C48.6342 34.7407 49.4505 36.6937 50.7732 37.913C52.0958 39.1117 53.8008 39.711 55.8882 39.711C57.0042 39.711 57.9652 39.5767 58.7712 39.308C59.5772 39.0393 60.2902 38.7397 60.9102 38.409C61.5508 38.0783 62.1295 37.7787 62.6462 37.51C63.1835 37.2413 63.7415 37.107 64.3202 37.107C65.0848 37.107 65.6635 37.386 66.0562 37.944L67.7865 40.078C68.399 40.8335 68.3896 41.9322 67.6768 42.5938C67.0236 43.2001 66.3387 43.7272 65.6222 44.175C64.4855 44.8777 63.3075 45.4357 62.0882 45.849C60.8895 46.2417 59.6805 46.5103 58.4612 46.655C57.2625 46.8203 56.1155 46.903 55.0202 46.903C52.7675 46.903 50.6492 46.5413 48.6652 45.818C46.7018 45.074 44.9762 43.9787 43.4882 42.532C42.0208 41.0853 40.8532 39.2873 39.9852 37.138C39.1378 34.9887 38.7142 32.488 38.7142 29.636C38.7142 27.4867 39.0758 25.451 39.7992 23.529C40.5432 21.607 41.5972 19.9227 42.9612 18.476C44.3458 17.0293 46.0095 15.8823 47.9522 15.035C49.9155 14.1877 52.1268 13.764 54.5862 13.764C56.7148 13.764 58.6575 14.0947 60.4142 14.756C62.1915 15.4173 63.7105 16.3783 64.9712 17.639C66.2525 18.8997 67.2445 20.4497 67.9472 22.289C68.6705 24.1077 69.0322 26.1743 69.0322 28.489C69.0322 29.2123 69.0012 29.8013 68.9392 30.256C68.8772 30.7107 68.7635 31.0723 68.5982 31.341C68.4328 31.6097 68.2055 31.7957 67.9162 31.899C67.6475 32.0023 67.2962 32.054 66.8622 32.054H48.3242Z"/>
<path d="M142.004 1.24C143.35 1.24 144.312 2.54367 143.915 3.8302L130.983 45.7021C130.853 46.1212 130.466 46.407 130.027 46.407H122.02C121.58 46.407 121.191 46.1188 121.064 45.6974L112.785 18.414C112.62 17.98 112.465 17.5047 112.32 16.988C112.175 16.4507 112.031 15.8927 111.886 15.314C111.741 15.8927 111.597 16.4507 111.452 16.988C111.307 17.5047 111.152 17.98 110.987 18.414L102.586 45.7012C102.457 46.1207 102.069 46.407 101.63 46.407H93.6206C93.182 46.407 92.7946 46.1212 92.6651 45.7021L79.7328 3.8302C79.3355 2.54367 80.2973 1.24 81.6438 1.24H87.7368C88.6462 1.24 89.4005 1.44667 89.9998 1.86C90.6198 2.27333 91.0228 2.821 91.2088 3.503L97.4088 27.063C97.5948 27.807 97.7808 28.6233 97.9668 29.512C98.1528 30.38 98.3388 31.2893 98.5248 32.24C98.8968 30.2973 99.3515 28.5717 99.8888 27.063L107.205 3.503C107.391 2.92434 107.784 2.40767 108.383 1.953C109.003 1.47767 109.747 1.24 110.615 1.24H113.715C114.624 1.24 115.358 1.457 115.916 1.891C116.474 2.30433 116.898 2.84167 117.187 3.503L124.441 27.063C124.978 28.5097 125.433 30.1527 125.805 31.992C125.97 31.062 126.136 30.194 126.301 29.388C126.487 28.5613 126.673 27.7863 126.859 27.063L133.059 3.503C133.224 2.90367 133.617 2.37667 134.237 1.922C134.857 1.46734 135.601 1.24 136.469 1.24H142.004Z"/>
<path d="M164.455 26.474C164.455 25.7093 164.352 24.9653 164.145 24.242C163.959 23.5187 163.639 22.878 163.184 22.32C162.75 21.7413 162.172 21.2763 161.448 20.925C160.725 20.5737 159.847 20.398 158.813 20.398C156.995 20.398 155.569 20.925 154.535 21.979C153.502 23.0123 152.82 24.5107 152.489 26.474H164.455ZM152.365 32.054C152.675 34.7407 153.492 36.6937 154.814 37.913C156.137 39.1117 157.842 39.711 159.929 39.711C161.045 39.711 162.006 39.5767 162.812 39.308C163.618 39.0393 164.331 38.7397 164.951 38.409C165.592 38.0783 166.171 37.7787 166.687 37.51C167.225 37.2413 167.783 37.107 168.361 37.107C169.126 37.107 169.705 37.386 170.097 37.944L171.828 40.078C172.44 40.8335 172.431 41.9322 171.718 42.5938C171.065 43.2001 170.38 43.7272 169.663 44.175C168.527 44.8777 167.349 45.4357 166.129 45.849C164.931 46.2417 163.722 46.5103 162.502 46.655C161.304 46.8203 160.157 46.903 159.061 46.903C156.809 46.903 154.69 46.5413 152.706 45.818C150.743 45.074 149.017 43.9787 147.529 42.532C146.062 41.0853 144.894 39.2873 144.026 37.138C143.179 34.9887 142.755 32.488 142.755 29.636C142.755 27.4867 143.117 25.451 143.84 23.529C144.584 21.607 145.638 19.9227 147.002 18.476C148.387 17.0293 150.051 15.8823 151.993 15.035C153.957 14.1877 156.168 13.764 158.627 13.764C160.756 13.764 162.699 14.0947 164.455 14.756C166.233 15.4173 167.752 16.3783 169.012 17.639C170.294 18.8997 171.286 20.4497 171.988 22.289C172.712 24.1077 173.073 26.1743 173.073 28.489C173.073 29.2123 173.042 29.8013 172.98 30.256C172.918 30.7107 172.805 31.0723 172.639 31.341C172.474 31.6097 172.247 31.7957 171.957 31.899C171.689 32.0023 171.337 32.054 170.903 32.054H152.365Z"/>
<path d="M185.492 0C186.597 0 187.492 0.895431 187.492 2V44.407C187.492 45.5116 186.597 46.407 185.492 46.407H179.882C178.778 46.407 177.882 45.5116 177.882 44.407V2C177.882 0.895431 178.778 0 179.882 0H185.492Z"/>
<path d="M217.61 21.886C217.32 22.2373 217.041 22.5163 216.773 22.723C216.504 22.9297 216.122 23.033 215.626 23.033C215.15 23.033 214.716 22.9193 214.324 22.692C213.952 22.4647 213.528 22.2167 213.053 21.948C212.577 21.6587 212.019 21.4003 211.379 21.173C210.738 20.9457 209.942 20.832 208.992 20.832C207.814 20.832 206.791 21.049 205.923 21.483C205.075 21.917 204.373 22.537 203.815 23.343C203.257 24.149 202.843 25.141 202.575 26.319C202.306 27.4763 202.172 28.7887 202.172 30.256C202.172 33.3353 202.761 35.7017 203.939 37.355C205.137 39.0083 206.78 39.835 208.868 39.835C209.984 39.835 210.862 39.7007 211.503 39.432C212.164 39.1427 212.722 38.8327 213.177 38.502C213.631 38.1507 214.045 37.8303 214.417 37.541C214.809 37.2517 215.295 37.107 215.874 37.107C216.638 37.107 217.217 37.386 217.61 37.944L219.34 40.078C219.953 40.8335 219.943 41.9311 219.237 42.6004C218.601 43.2039 217.945 43.7288 217.269 44.175C216.173 44.8777 215.047 45.4357 213.89 45.849C212.753 46.2417 211.606 46.5103 210.449 46.655C209.291 46.8203 208.165 46.903 207.07 46.903C205.106 46.903 203.226 46.531 201.428 45.787C199.65 45.043 198.08 43.9683 196.716 42.563C195.372 41.137 194.298 39.3907 193.492 37.324C192.706 35.2573 192.314 32.9013 192.314 30.256C192.314 27.9413 192.655 25.7817 193.337 23.777C194.039 21.7517 195.062 20.0053 196.406 18.538C197.77 17.05 199.444 15.8823 201.428 15.035C203.432 14.1877 205.747 13.764 208.372 13.764C210.893 13.764 213.104 14.167 215.006 14.973C216.397 15.5629 217.689 16.352 218.881 17.3404C219.645 17.973 219.711 19.0936 219.115 19.8858L217.61 21.886Z"/>
<path d="M261.621 46.407C260.516 46.407 259.621 45.5116 259.621 44.407V16.26C259.621 15.1554 260.516 14.26 261.621 14.26H265.573C266.771 14.26 267.557 14.7973 267.929 15.872L268.456 17.608C268.993 17.05 269.551 16.5437 270.13 16.089C270.708 15.6137 271.328 15.2107 271.99 14.88C272.672 14.5287 273.395 14.26 274.16 14.074C274.945 13.8673 275.803 13.764 276.733 13.764C278.675 13.764 280.277 14.2703 281.538 15.283C282.819 16.275 283.79 17.608 284.452 19.282C284.989 18.29 285.64 17.4427 286.405 16.74C287.19 16.0373 288.027 15.469 288.916 15.035C289.825 14.601 290.776 14.2807 291.768 14.074C292.78 13.8673 293.783 13.764 294.775 13.764C296.614 13.764 298.247 14.043 299.673 14.601C301.099 15.1383 302.287 15.934 303.238 16.988C304.209 18.0213 304.943 19.3027 305.439 20.832C305.935 22.3407 306.183 24.056 306.183 25.978V44.407C306.183 45.5116 305.287 46.407 304.183 46.407H298.573C297.468 46.407 296.573 45.5116 296.573 44.407V25.978C296.573 22.6507 295.147 20.987 292.295 20.987C290.993 20.987 289.908 21.421 289.04 22.289C288.192 23.1363 287.769 24.366 287.769 25.978V44.407C287.769 45.5116 286.873 46.407 285.769 46.407H280.159C279.054 46.407 278.159 45.5116 278.159 44.407V25.978C278.159 24.1387 277.797 22.847 277.074 22.103C276.35 21.359 275.286 20.987 273.881 20.987C273.013 20.987 272.186 21.1833 271.401 21.576C270.636 21.9687 269.913 22.4957 269.231 23.157V44.407C269.231 45.5116 268.335 46.407 267.231 46.407H261.621Z"/>
<path d="M332.352 26.474C332.352 25.7093 332.249 24.9653 332.042 24.242C331.856 23.5187 331.536 22.878 331.081 22.32C330.647 21.7413 330.068 21.2763 329.345 20.925C328.622 20.5737 327.743 20.398 326.71 20.398C324.891 20.398 323.465 20.925 322.432 21.979C321.399 23.0123 320.717 24.5107 320.386 26.474H332.352ZM320.262 32.054C320.572 34.7407 321.388 36.6937 322.711 37.913C324.034 39.1117 325.739 39.711 327.826 39.711C328.942 39.711 329.903 39.5767 330.709 39.308C331.515 39.0393 332.228 38.7397 332.848 38.409C333.489 38.0783 334.067 37.7787 334.584 37.51C335.121 37.2413 335.679 37.107 336.258 37.107C337.023 37.107 337.601 37.386 337.994 37.944L339.724 40.078C340.337 40.8335 340.327 41.9322 339.615 42.5938C338.961 43.2001 338.277 43.7272 337.56 44.175C336.423 44.8777 335.245 45.4357 334.026 45.849C332.827 46.2417 331.618 46.5103 330.399 46.655C329.2 46.8203 328.053 46.903 326.958 46.903C324.705 46.903 322.587 46.5413 320.603 45.818C318.64 45.074 316.914 43.9787 315.426 42.532C313.959 41.0853 312.791 39.2873 311.923 37.138C311.076 34.9887 310.652 32.488 310.652 29.636C310.652 27.4867 311.014 25.451 311.737 23.529C312.481 21.607 313.535 19.9227 314.899 18.476C316.284 17.0293 317.947 15.8823 319.89 15.035C321.853 14.1877 324.065 13.764 326.524 13.764C328.653 13.764 330.595 14.0947 332.352 14.756C334.129 15.4173 335.648 16.3783 336.909 17.639C338.19 18.8997 339.182 20.4497 339.885 22.289C340.608 24.1077 340.97 26.1743 340.97 28.489C340.97 29.2123 340.939 29.8013 340.877 30.256C340.815 30.7107 340.701 31.0723 340.536 31.341C340.371 31.6097 340.143 31.7957 339.854 31.899C339.585 32.0023 339.234 32.054 338.8 32.054H320.262Z"/>
<path fill-rwhite="evenodd" clip-rule="evenodd" d="M238.129 47C247.242 47 254.629 39.6127 254.629 30.5C254.629 21.3873 247.242 14 238.129 14C229.016 14 221.629 21.3873 221.629 30.5C221.629 39.6127 229.016 47 238.129 47ZM247.86 30.5C247.86 35.8742 243.503 40.2308 238.129 40.2308C232.755 40.2308 228.398 35.8742 228.398 30.5C228.398 26.4083 230.924 22.9064 234.501 21.4681L234.86 22.0946C234.99 22.3266 235.019 22.5887 235.019 22.8557V24.8399C235.019 25.0268 235.138 25.2089 235.268 25.3383C235.57 25.6402 236.059 25.5683 236.322 25.2808L236.974 24.466C237.199 24.1833 237.592 24.097 237.918 24.2599L238.647 24.6242C238.81 24.7057 238.949 24.7057 239.174 24.7057C239.485 24.7057 239.787 24.6242 240.008 24.4037L240.195 24.2168C240.334 24.0347 240.549 24.0395 240.722 24.1305L242.126 24.8303C242.495 25.0172 242.73 25.3958 242.73 25.808C242.73 26.3112 242.39 26.7521 241.901 26.872L240.204 27.2985C239.85 27.3848 239.481 27.3704 239.092 27.2554L237.559 26.7473C237.444 26.6946 237.276 26.6659 237.113 26.6659C236.777 26.6659 236.408 26.7761 236.183 26.9774L234.252 28.3912C233.811 28.7555 233.485 29.321 233.485 29.9249V31.2668C233.485 32.5369 234.558 33.5673 235.785 33.5673H237.319C237.784 33.5673 238.086 33.9124 238.086 34.3341V36.6346C238.086 37.4829 238.814 38.1683 239.663 38.1683C240.147 38.1683 240.602 37.943 240.89 37.5548L242.117 35.9205C242.514 35.3454 242.73 34.7415 242.73 34.0801V33.5002C242.73 33.3133 242.855 33.1503 243.037 33.1072L243.291 33.0449C243.861 32.9011 244.264 32.3883 244.264 31.7988C244.264 31.4154 244.129 31.1326 243.89 30.893L242.284 29.2875C242.064 29.067 242.064 28.8226 242.284 28.6452C242.557 28.3721 242.96 28.2762 243.329 28.4008L244.005 28.6261C244.594 28.7794 245.237 28.5542 245.514 27.9982C245.682 27.6627 246.051 27.4854 246.377 27.5573L247.472 27.77C247.724 28.6361 247.86 29.5522 247.86 30.5Z"/>
</svg>
