<?xml version="1.0" encoding="UTF-8"?>
<svg id="Layer_1" xmlns="http://www.w3.org/2000/svg" version="1.1" viewBox="0 0 2924 568">
  <!-- Generator: Adobe Illustrator 29.0.0, SVG Export Plug-In . SVG Version: 2.1.0 Build 186)  -->
  <defs>
    <style>
      .st0 {
        fill: #fff;
      }
    </style>
  </defs>
  <path class="st0" d="M58.69,67.3c13.11,13.86,27.11,32.91,43.62,42.89,11.1,6.71,34.56,7.37,47.22,5.83,8.95-1.09,31.97-19.06,39.49-25.51,11.99-10.29,25.76-27.7,38.06-35.94,8.89-5.96,13.03-.56,18.96,5.91,7.02,7.65,8.78,13.85,13.58,22.42,14.04,25.05,38.99,68.91,70.85,73.15,5.69.76,40.16.69,44.54-.73,3.46-1.12,14.28-6.59,18.26-8.55,18.14-8.92,27.7-17.64,42.22-30.79,7.98-7.23,13.75-17.96,26.52-12.47,11.87,5.1,10.83,19.02,4,28-7.43,9.76-19.64,20.58-28.04,29.99-20.91,23.41-40.2,47.33-57.96,73.02-5.47,7.91-10.15,16.48-15.39,24.56-.25.38-.25.86,0,1.24,17.94,27.56,30.97,58.11,34.39,91.21,18.67,181.02-207.44,281.35-329.02,145.02-119.2-133.65-1.31-342.35,175.21-311.21,7.08,1.25,13.93,3.55,20.96,4.85.85.16,1.55-.66,1.29-1.48-2.64-8.3-5.05-17.49-8.23-25.38-3.63-8.99-9.01-17.28-12.91-26.09-4.56-10.3-8.01-22.13-12.91-32.14-.54-1.11-3.07-4.65-4.86-5.18-5.22-1.69-10.15,7.89-14.55,12.62-5.42,5.83-11.38,11.29-16.85,17.14-1.66,1.77-2.76,3.98-3.21,6.37-2.13,11.48-.56,23.25.92,34.73.09.67-.42,1.26-1.09,1.28-30.92,1.24-60.72,11.9-87.33,27.15-.69.39-1.55,0-1.69-.78-5.21-28.38-20.2-58.01-38.75-79.88-11.57-13.64-31.5-28.79-41.5-42.5-7.28-9.97-1.51-24.28,11.29-24.76,10.19-.38,13.31,5.63,19.35,12.11.97,1.04,2.82,3.12,3.58,3.92ZM207.41,317.61c-3.16-6.79,1.33-13.44,6.16-18.54,14.93-15.77,26.76-22.6,37.61-43.39,2.28-4.37,9.74-20.73,7.34-24.7-1.21-2-19.55-6.18-22.03-3.99-1.03.91-9.45,20.58-11.67,24.32-6,10.07-15.32,20.34-21.22,29.78-2.45,3.91-2.99,10.13-5.17,13.83s-10.3,8.81-11.88,12.12c-2.18,4.58-3.27,15.06-2.12,20.02.53,2.28,9.26,15.69,11.15,17.85,1.46,1.68,2.81,3.35,5.13,3.87,5.67,1.27,36.22,1.02,42.81.24,4.71-.56,11.78-8.19,16.54-1.6,3.65,5.05-1.97,5.19-4,7.14-3.49,3.35-12.42,16.97-13.6,21.4-.92,3.47-1.16,14.66.29,17.78s5.68,7.24,6.55,7.95c2.21,1.8,9.96,1.73,12.75.86,3.11-.97,4.27-4.82,8.5-5.5s12.61-.79,15.46,2.42c3.99,4.49,1.23,26.65,1.94,34.06.57,6,12.92,32.15,17.07,36.93,3.55,4.09,8.39,9.33,13.97,5.02,1.56-1.21,8.31-12.52,10.59-15.41,15.74-19.99,20.02-25.55,24.64-51.36.99-5.53,5.02-7.37,3.71-15.17-.81-4.85-20.73-21.35-24.93-27.06-1.73-2.34-2.93-4.69-3.08-7.45-.06-1.14.84-2.09,1.98-2.14,3.89-.17,6.33.05,9.64,3.06,2.5,2.27,15.98,21.72,19.79,12.81,1.39-3.24,1.03-26.44.43-31.03-.97-7.43-8.65-25.75-12.93-32.07-.98-1.44-4.68-5.86-6.98-5.9-.47,0-.87.32-1.03.76-1.66,4.6-2.64,10.03-4.35,14.45-4.87,12.59-14.21,36.13-20.95,47.05-4.95,8.02-11.01,8.08-20.05,6.99-10.62-1.27-12.93-14.64-12.46-23.51.63-11.84,6.44-24.74,4.89-35.95-.17-1.23-.66-2.69-1.57-3.64-2.65-2.74-14.43-1.75-17.43-.41-.79.35-2.24,1.25-2.97,1.69-6.7,4.05-21.48,14.98-29.45,15.78-9.57.97-24.55.37-29.07-9.37ZM169.42,242.42c1.71-1.72,3.77-2.05,4.41-5.16,1.63-7.89-6.05-9.26-12.28-8.21-5.2.88-15.5,13.69-20.03,17.99-15.41,14.62-27.48,28.1-39.49,45.49-2.52,3.65-5.7,7.3-7.86,11.14-3.92,6.98-18.74,37.72-19.93,44.07-1.12,5.93.22,13.55-.23,19.77-.21,2.86-1.84,5.16-2.02,7.98-.93,15.25-2.23,32.1,11.05,41.94,6.1,4.52,17.99,4.23,25.5,3.61,3.42-.28,6-1.88,8.95-2.05,7.77-.44,21.61-.89,29.03-.01,7.68.91,12.93,11.05,11.26,18.31-1.28,5.58-10.18,8.52-12.48,14.51-1.75,4.56-2.01,16.5-.87,21.26,1.37,5.69,9.49,8.79,13.58,12.42,3.21,2.86,17.48,16.47,18.86,19.14,3.11,6.04-.91,26.3,2.38,29.12,3,2.58,6.85.48,9.31-1.7s19.75-20.47,20.36-21.84c5.15-11.47,6.88-19.35,9.31-31.49,1.34-6.7,3.73-8.36,2.78-17.24-.84-7.86-10.64-7.24-16.69-10.3s-12.97-10-18.82-14.18c-3-2.14-7.11-3.15-10.41-5.59-2.02-1.49-11.61-10.91-12.33-12.67-1.18-2.91-1.28-16.74-.55-20.03.91-4.07,6.97-8.67,7.74-13.26.86-5.16.83-31.76-.18-36.72s-5.55-6.69-7.01-9.99c-2.22-5.03-1.68-12.74-4.76-17.24-.64-.93-7.38-7.69-8.02-7.98-4.09-1.86-12.48,1.88-13.72-4.03-.03-.13-.03-.26-.02-.39l2.38-20.71c.09-.79.39-1.54.86-2.18,5.81-7.77,20.55-17.2,22.29-25.93,2.4-12.06-2.07-8.07,7.64-17.86Z"/>
  <path class="st0" d="M1129.5,213c8.57,1.15,16.85,7.33,19.23,15.77,14,57.84,31.24,114.97,45.19,172.81,2.17,9.01,4.66,18.11,5.09,27.42,1.84-.31,1.68-2.06,2.12-3.37,4.05-11.88,6.9-26.04,10.6-38.4,16.42-54.9,33.6-110.01,51.83-164.17,5.33-6.48,11.53-9.49,19.89-10.11,14.83-1.1,38.86-2.77,45.41,13.67,19.06,66.51,42.81,131.95,60.11,198.93.43,1.66-1.02,2.93,2.02,2.44,1.61-16.11,6.16-31.78,10.08-47.42,13.2-52.65,27.19-105.61,42.49-157.51,2.38-7.99,9.53-10.16,15.94-10.06h61.5l-96.04,313.96h-66.92s-65.53-211.96-65.53-211.96l-66.12,212.07-65.91-1.05-96.49-313.01h65.5Z"/>
  <path class="st0" d="M2389.5,304c9.9,1.99,11.41,15.9,15,22.98,31.36-36.15,93.03-38.82,110.51,12.02,7.96-12.17,17.69-22.96,30.94-29.54,56.54-28.08,122.68,4.74,121.09,71l-.04,146.54h-67v-152.5c0-.9-2.91-8.97-3.6-10.4-8.97-18.66-39.53-18.34-51.4-2.6-3.59,4.75-7,15.17-7,21v144.5h-66v-150.5c0-2-2.32-9.46-3.24-11.76-9.49-23.5-46.6-15.76-59.76.76v161.5h-66v-223h46.5Z"/>
  <path class="st0" d="M668,204v123l21.98-15.52c128.72-62.53,165.14,147.15,77.93,204.93-26.22,17.37-64.81,21.07-90.39.56-1.87-1.5-12.12-13.23-13.52-11.97-1.5,5.88-1.83,15.58-7.03,19.48-.6.45-5.18,2.52-5.48,2.52h-49.5V204h66ZM703.8,350.29c-15.37,1.64-25.79,9.09-35.28,20.72l-.31,95.28c12.11,16.76,41.98,21.19,58.27,8.68,22.58-17.34,22.96-67.05,17.39-92.35-4.9-22.29-15.81-34.92-40.08-32.34Z"/>
  <path class="st0" d="M2185.79,300.29c82.97-3.44,130.21,59.27,117.92,138.92-18.51,119.96-197.91,122.87-223.22,7.8-16.78-76.28,24.66-143.37,105.3-146.72ZM2181.76,350.26c-35.66,4.83-37.68,51.21-35.75,79.23,1.56,22.69,9.95,46.42,34.75,51.25,49.94,9.73,58.67-37.83,56.23-76.23-2.23-35.15-15.98-59.57-55.23-54.25Z"/>
  <path class="st0" d="M904,427c3.23,47.85,41.38,65.69,83.97,47.47,11.94-5.11,25.69-17.92,38.45-7.38l20.34,26.43c-12.95,14.64-30.32,25-48.99,30.75-63.69,19.61-134.01-2.54-154.26-70.27-26.36-88.14,34.81-168.89,128.53-151.53,52.43,9.71,84.39,61.95,75.73,113.8-.59,3.51-4.39,10.74-8.26,10.74h-135.5ZM989,389c.34-26.72-15.06-44.28-42.55-43.05-25.35,1.14-38.56,19.23-41.45,43.05h84Z"/>
  <path class="st0" d="M1575.56,427c3.23,47.85,41.38,65.69,83.97,47.47,11.94-5.11,25.69-17.92,38.45-7.38l20.34,26.43c-12.95,14.64-30.32,25-48.99,30.75-63.69,19.61-134.01-2.54-154.26-70.27-26.36-88.14,34.81-168.89,128.53-151.53,52.43,9.71,84.39,61.95,75.73,113.8-.59,3.51-4.39,10.74-8.26,10.74h-135.5ZM1660.56,389c.34-26.72-15.06-44.28-42.55-43.05-25.35,1.14-38.56,19.23-41.45,43.05h84Z"/>
  <path class="st0" d="M2764.89,427c3.23,47.85,41.38,65.69,83.97,47.47,11.94-5.11,25.69-17.92,38.45-7.38l20.34,26.43c-12.95,14.64-30.32,25-48.99,30.75-63.69,19.61-134.01-2.54-154.26-70.27-26.36-88.14,34.81-168.89,128.53-151.53,52.43,9.71,84.39,61.95,75.73,113.8-.59,3.51-4.39,10.74-8.26,10.74h-135.5ZM2849.89,389c.34-26.72-15.06-44.28-42.55-43.05-25.35,1.14-38.56,19.23-41.45,43.05h84Z"/>
  <path class="st0" d="M1971.79,300.29c33.43-1.78,66.09,8.52,89.16,33.21-4.63,6.9-18.07,28.35-26.67,30.29-11.41,2.57-18.66-6.15-28.33-10.25-27.22-11.55-55.82-2.47-65.42,26.5-13.71,41.37-2.57,116.18,57.24,100.24,16.89-4.5,29.53-27.97,45.73-11.29,2.29,2.36,18.55,22.82,18.32,24.33-15.12,19.32-40.59,31.35-64.63,35.39-160.21,26.92-177.41-220.34-25.41-228.41Z"/>
  <rect class="st0" x="1761" y="204" width="67" height="323"/>
  <path class="st0" d="M346.83,32.24c65.48-1.55,77.7,94.32,15.37,109.47-81.17,19.72-95.71-107.56-15.37-109.47Z"/>
  <path class="st0" d="M131.83,12.25c39.06-1.43,61.58,45.6,35.19,75.28-24.12,27.13-69.05,15.38-77.38-19.66-6.44-27.08,14.26-54.59,42.19-55.61Z"/>
</svg>