<svg xmlns="http://www.w3.org/2000/svg" viewBox="0 0 64 64" x="0px" y="0px"><g><g data-name="Stroke Close copy 2"><g><circle cx="38" cy="32" r="3"/><circle cx="9" cy="9" r="3"/><g><path d="M48,56H43.693l-1.256-3.351A1,1,0,0,0,41.5,52h-19a1,1,0,0,0-.937.649L20.307,56H16a5.006,5.006,0,0,0-5,5.044A.99.99,0,0,0,12,62H52a.99.99,0,0,0,1-.956A5.006,5.006,0,0,0,48,56Z"/><path d="M57,2H7A5.006,5.006,0,0,0,2,7V45a5.006,5.006,0,0,0,5,5H57a5.006,5.006,0,0,0,5-5V7A5.006,5.006,0,0,0,57,2ZM20,39a3,3,0,0,1-6,0V37.414l1.129-1.129A10.868,10.868,0,0,0,20,37.955Zm.886,3.107A4.95,4.95,0,0,0,22,39V37a1,1,0,0,0-1-1,8.883,8.883,0,0,1-4.941-1.5l-.5-.336a1,1,0,0,0-1.262.125l-2,2A1,1,0,0,0,12,37v2a4.95,4.95,0,0,0,1.114,3.107,3.912,3.912,0,0,0-.56.174A5.023,5.023,0,0,1,10,37.941a7,7,0,0,1,7.338-6.933A7.229,7.229,0,0,1,24,38.29,7.489,7.489,0,0,0,25.65,43H22.618A3.967,3.967,0,0,0,20.886,42.107ZM31,48H24V46a3.939,3.939,0,0,0-.142-1H28a1,1,0,0,0,.707-1.707l-1.084-1.084A5.508,5.508,0,0,1,26,38.29a9.139,9.139,0,0,0-8.568-9.28,8.919,8.919,0,0,0-5.725,1.719,2.994,2.994,0,1,0-3.171,4.224A9,9,0,0,0,8,37.925a6.991,6.991,0,0,0,2.861,5.625A3.963,3.963,0,0,0,10,46v2H7a3,3,0,0,1-3-3V27H31ZM15,16V13h6v3a3,3,0,0,1-6,0Zm16,9H25V23a4,4,0,0,0-3.114-3.893A4.95,4.95,0,0,0,23,16V12a5,5,0,0,0-10,0v4a4.95,4.95,0,0,0,1.114,3.107A4,4,0,0,0,11,23v2H4V7A3,3,0,0,1,7,4H31Zm7,20a1,1,0,0,1-1-1V43a1,1,0,0,1,2,0v1A1,1,0,0,1,38,45Zm14-6a3,3,0,0,1-6,0V36h6Zm8,6a3,3,0,0,1-3,3H56V46a4,4,0,0,0-3.114-3.893A4.95,4.95,0,0,0,54,39V35a5.006,5.006,0,0,0-5-5H45a1,1,0,0,0-1,1v8a4.95,4.95,0,0,0,1.114,3.107A4,4,0,0,0,42,46v2H39V46.816A3,3,0,0,0,41,44V43a3,3,0,0,0-6,0v1a3,3,0,0,0,2,2.816V48H33V27H60ZM51,13a3.857,3.857,0,0,1-2.707-1.121l-.586-.586a1,1,0,0,0-1.414,0l-.586.586A3.857,3.857,0,0,1,43,13a1,1,0,0,0-1,1v2a4.95,4.95,0,0,0,1.114,3.107,3.911,3.911,0,0,0-.628.2A5.012,5.012,0,0,1,40,15a7,7,0,0,1,14,0,5.012,5.012,0,0,1-2.486,4.3,3.911,3.911,0,0,0-.628-.2A4.95,4.95,0,0,0,52,16V14A1,1,0,0,0,51,13Zm-1,1.912V16a3,3,0,0,1-6,0V14.912a5.887,5.887,0,0,0,3-1.5A5.887,5.887,0,0,0,50,14.912ZM60,25H54V23a3.96,3.96,0,0,0-.828-2.409A7.011,7.011,0,0,0,56,15,8.984,8.984,0,0,0,40.932,8.373,3,3,0,1,0,38,12a2.962,2.962,0,0,0,.545-.055A8.95,8.95,0,0,0,38,15a7.013,7.013,0,0,0,2.828,5.591A3.96,3.96,0,0,0,40,23v2H33V4H57a3,3,0,0,1,3,3Z"/></g></g></g></g></svg>