<?xml version="1.0" encoding="utf-8"?>
<!-- Generator: Adobe Illustrator 19.1.0, SVG Export Plug-In . SVG Version: 6.00 Build 0)  -->
<svg version="1.1" xmlns="http://www.w3.org/2000/svg" xmlns:xlink="http://www.w3.org/1999/xlink" x="0px" y="0px"
	 width="623.9px" height="108.1px" viewBox="0 0 623.9 108.1" style="enable-background:new 0 0 623.9 108.1;" xml:space="preserve"
	>
<g>
	<g>
		<rect y="3.7" style="fill:#000000;" width="85" height="85"/>
		<path style="fill:#FFFFFF;" d="M7.9,14.3l8.7,0c5.1,0,8.2,3,8.2,7.4v0.1c0,4.9-3.8,7.5-8.6,7.5l-3.6,0l0,6.4l-4.7,0L7.9,14.3z
			 M16.3,25c2.3,0,3.7-1.4,3.7-3.2v-0.1c0-2.1-1.5-3.2-3.8-3.2l-3.6,0l0,6.5L16.3,25z"/>
		<path style="fill:#FFFFFF;" d="M26,32.5l2.8-3.3c1.9,1.6,3.9,2.6,6.4,2.6c1.9,0,3.1-0.8,3.1-2v-0.1c0-1.2-0.7-1.8-4.3-2.7
			c-4.3-1.1-7.1-2.3-7.1-6.5v-0.1c0-3.9,3.1-6.4,7.5-6.4c3.1,0,5.8,1,7.9,2.7l-2.4,3.5c-1.9-1.3-3.8-2.1-5.6-2.1
			c-1.8,0-2.8,0.8-2.8,1.9v0.1c0,1.4,0.9,1.9,4.6,2.8c4.3,1.1,6.8,2.7,6.8,6.4v0.1c0,4.2-3.2,6.6-7.8,6.6C31.8,36,28.5,34.8,26,32.5
			"/>
		<rect x="7.9" y="72.8" style="fill:#FFFFFF;" width="31.9" height="5.3"/>
	</g>
	<g>
		<path d="M106.1,3.6h34.8c20.3,0,32.6,12,32.6,29.4v0.2c0,19.7-15.3,29.9-34.4,29.9h-14.2v25.5h-18.7V3.6z
			 M139.6,46.5c9.4,0,14.8-5.6,14.8-12.9v-0.2c0-8.4-5.8-12.9-15.2-12.9h-14.5v26H139.6z"/>
		<path d="M176.7,0h18.5v32.8c4.3-5.5,9.7-10.4,19.1-10.4c14,0,22.1,9.2,22.1,24.2v42.2h-18.5V52.4
			c0-8.7-4.1-13.2-11.2-13.2s-11.5,4.5-11.5,13.2v36.3h-18.5V0z"/>
		<path d="M240.2,23.6h18.5v9.4c4.5-6.1,10.7-10.6,20.3-10.6c15.2,0,29.6,11.9,29.6,33.7v0.2
			c0,21.7-14.2,33.7-29.6,33.7c-9.8,0-15.9-4.5-20.3-9.7v27.9h-18.5V23.6z M290.2,56.3V56c0-10.8-7.3-18-15.9-18s-15.8,7.2-15.8,18
			v0.2c0,10.8,7.2,18,15.8,18S290.2,67.2,290.2,56.3z"/>
		<path d="M305.8,76.3l11.1-13.2c7.7,6.3,15.7,10.3,25.4,10.3c7.7,0,12.3-3,12.3-8v-0.2
			c0-4.7-2.9-7.2-17.1-10.8c-17.1-4.4-28.2-9.1-28.2-26v-0.2c0-15.4,12.4-25.6,29.8-25.6c12.4,0,23,3.9,31.6,10.8l-9.7,14.1
			c-7.5-5.2-14.9-8.4-22.1-8.4c-7.2,0-10.9,3.3-10.9,7.4v0.2c0,5.6,3.6,7.4,18.3,11.2c17.3,4.5,27,10.7,27,25.5v0.2
			c0,16.9-12.9,26.4-31.2,26.4C329,89.9,316,85.4,305.8,76.3z"/>
		<path d="M377.4,70.2V39.4h-7.8V23.6h7.8V6.9h18.5v16.6h15.3v15.8h-15.3v27.8c0,4.3,1.8,6.3,6,6.3
			c3.4,0,6.4-0.9,9.1-2.3V86c-3.9,2.3-8.4,3.8-14.6,3.8C385.1,89.8,377.4,85.3,377.4,70.2z"/>
		<path d="M410,56.5v-0.2c0-18.7,15.1-33.9,35.4-33.9c20.2,0,35.1,14.9,35.1,33.7v0.2
			c0,18.7-15.1,33.9-35.4,33.9C424.9,90.2,410,75.2,410,56.5z M462.2,56.5v-0.2c0-9.6-6.9-18-17.1-18c-10.6,0-16.9,8.1-16.9,17.7
			v0.2c0,9.6,6.9,18,17.1,18C455.9,74.2,462.2,66.1,462.2,56.5z"/>
		<path d="M482.9,23.6h18.5v13.1c3.8-9,9.8-14.8,20.8-14.3v19.3h-1c-12.3,0-19.8,7.4-19.8,23v24.1h-18.5V23.6
			z"/>
		<path d="M524.5,23.6H543v9.2c4.3-5.5,9.8-10.4,19.2-10.4c8.5,0,14.9,3.8,18.3,10.3
			c5.7-6.7,12.5-10.3,21.4-10.3c13.7,0,22,8.3,22,23.9v42.4h-18.5V52.4c0-8.7-3.9-13.2-10.8-13.2s-11.2,4.5-11.2,13.2v36.3H565V52.4
			c0-8.7-3.9-13.2-10.8-13.2S543,43.6,543,52.4v36.3h-18.5V23.6z"/>
	</g>
</g>
</svg>
