<?xml version="1.0" standalone="no"?>
<!DOCTYPE svg PUBLIC "-//W3C//DTD SVG 1.1//EN" "http://www.w3.org/Graphics/SVG/1.1/DTD/svg11.dtd" >
<svg xmlns="http://www.w3.org/2000/svg" xmlns:xlink="http://www.w3.org/1999/xlink" version="1.1">
<metadata>
Created by FontForge 20170731 at Sun Jan 31 18:41:26 2021
 By Aleksey,,,
Copyright (c) 2011 by Anna Giedrys (http://ancymonic.com), with Reserved Font Names "Signika".
</metadata>
<defs>
<font id="Signika-Light" horiz-adv-x="815" >
  <font-face 
    font-family="Signika"
    font-weight="300"
    font-stretch="normal"
    units-per-em="2048"
    panose-1="2 1 0 3 2 6 0 0 0 4"
    ascent="1638"
    descent="-410"
    x-height="1004"
    cap-height="1405"
    bbox="-266 -508 1923 1810"
    underline-thickness="102"
    underline-position="-409"
    unicode-range="U+000D-20AC"
  />
<missing-glyph horiz-adv-x="380" 
 />
    <glyph glyph-name=".notdef" horiz-adv-x="380" 
 />
    <glyph glyph-name=".null" horiz-adv-x="0" 
 />
    <glyph glyph-name=".null" horiz-adv-x="0" 
 />
    <glyph glyph-name="nonmarkingreturn" horiz-adv-x="682" 
 />
    <glyph glyph-name="CR" unicode="&#xd;" horiz-adv-x="380" 
 />
    <glyph glyph-name="space" unicode=" " horiz-adv-x="450" 
 />
    <glyph glyph-name="exclam" unicode="!" horiz-adv-x="567" 
d="M221 381l-14 985q61 45 164 45l10 -10l-39 -1020q-21 -8 -59 -8t-62 8zM283 193q58 0 96 -23q14 -25 14 -82q0 -58 -14 -82q-33 -20 -96 -20q-59 0 -97 20q-14 24 -14 82t14 82q44 23 97 23z" />
    <glyph glyph-name="quotedbl" unicode="&#x22;" horiz-adv-x="727" 
d="M428 1423q0 41 12 84q34 23 86 23q54 0 88 -23q13 -47 13 -84q0 -11 -9.5 -58.5t-24 -133.5t-24.5 -172q-14 -9 -40.5 -9t-45.5 9q-9 87 -22.5 172.5t-23 133.5t-9.5 58zM102 1423q0 37 13 84q35 23 86 23q53 0 88 -23q12 -44 12 -84q0 -11 -9 -58.5t-23.5 -133.5
t-24.5 -172q-14 -9 -40.5 -9t-45.5 9q-9 87 -23 172.5t-23.5 133.5t-9.5 58z" />
    <glyph glyph-name="numbersign" unicode="#" horiz-adv-x="1239" 
d="M831 981l72 313q28 9 72 9t72 -9l-72 -313h207q9 -26 9 -66.5t-9 -66.5h-236l-84 -373h228q10 -26 10 -66.5t-10 -66.5h-259l-69 -313q-25 -12 -70.5 -12t-70.5 12l69 313h-266l-70 -313q-25 -12 -71.5 -12t-71.5 12l70 313h-218q-11 26 -11 66.5t11 66.5h248l84 373
h-241q-9 26 -9 66.5t9 66.5h270l72 313q28 9 71.5 9t71.5 -9l-72 -313h264zM539 848l-84 -373h264l84 373h-264z" />
    <glyph glyph-name="dollar" unicode="$" horiz-adv-x="1011" 
d="M80 207q1 32 20.5 67.5t44.5 55.5q200 -117 375 -117q102 0 170 43t68 123q0 65 -49 116.5t-131 82.5l-211 75q-122 45 -181 113t-59 168q0 115 78.5 197.5t216.5 103.5v172q21 6 67 6q44 0 68 -6v-168q158 -10 317 -86q0 -34 -15.5 -67.5t-41.5 -55.5q-73 36 -157.5 57
t-157.5 21q-100 0 -160.5 -43.5t-60.5 -120.5q0 -58 38.5 -91t126.5 -65l205 -73q116 -41 190 -122t74 -190q0 -140 -96 -228.5t-270 -94.5v-158q-32 -4 -68 -4q-39 0 -67 4v164q-192 24 -334 121z" />
    <glyph glyph-name="percent" unicode="%" horiz-adv-x="1763" 
d="M1663 383q0 -225 -98 -326q-82 -82 -211 -82q-124 0 -209 82q-96 101 -96 326q0 226 96 324q78 81 209 81q136 0 211 -81q98 -98 98 -324zM1188 383q0 -299 168 -299q166 0 166 299q0 297 -166 297q-168 0 -168 -297zM715 1018q0 -224 -97 -326q-82 -82 -210 -82
q-127 0 -209 82q-97 102 -97 326t97 323q76 82 209 82q134 0 210 -82q97 -99 97 -323zM242 1018q0 -299 168 -299q165 0 165 299q0 297 -165 297q-168 0 -168 -297zM420 0l772 1399q25 11 75.5 11t75.5 -11l-770 -1399q-26 -10 -77 -10t-76 10z" />
    <glyph glyph-name="ampersand" unicode="&#x26;" horiz-adv-x="1236" 
d="M618 813h367q121 0 182 27q21 -27 21 -76q0 -50 -34.5 -68t-98.5 -18h-74q0 -26 1 -71t1 -58v-248q0 -44 5.5 -163.5t6.5 -137.5q-27 -6 -73 -6q-44 0 -74 6l-12 80q-160 -105 -334 -105q-185 0 -286 108.5t-101 285.5q0 134 80 240t192 141q-93 33 -154 119.5t-61 193.5
q0 153 112.5 256.5t307.5 103.5q197 0 342 -55q2 -33 -10 -69.5t-33 -57.5q-170 51 -301 51q-117 0 -184.5 -65.5t-67.5 -171.5q0 -110 69.5 -176t210.5 -66zM831 547q0 61 3 131h-234q-85 0 -149.5 -28.5t-100 -75t-52.5 -98t-17 -105.5q0 -122 65.5 -193.5t181.5 -71.5
q86 0 167 30t136 75v336z" />
    <glyph glyph-name="quotesingle" unicode="'" horiz-adv-x="397" 
d="M92 1423q0 41 12 84q34 23 86 23q54 0 89 -23q12 -44 12 -84q0 -11 -9.5 -58.5t-24 -133.5t-24.5 -172q-14 -9 -40.5 -9t-45.5 9q-9 87 -22.5 172.5t-23 133.5t-9.5 58z" />
    <glyph glyph-name="parenleft" unicode="(" horiz-adv-x="630" 
d="M301 668q0 -258 74 -497.5t227 -430.5q-28 -68 -94 -88q-175 175 -275 457t-100 559t100 557.5t275 455.5q66 -17 94 -86q-153 -191 -227 -430t-74 -497z" />
    <glyph glyph-name="parenright" unicode=")" horiz-adv-x="630" 
d="M330 668q0 259 -74.5 497.5t-228.5 429.5q33 70 96 86q175 -175 275 -455.5t100 -557.5t-100 -559t-275 -457q-64 20 -96 88q154 191 228.5 430t74.5 498z" />
    <glyph glyph-name="asterisk" unicode="*" horiz-adv-x="1013" 
d="M100 1151q-3 28 11.5 70.5t35.5 66.5l99 -31q27 -9 60 -23.5t49 -23t60 -32t48 -25.5q-31 139 -31 240l2 104q28 12 73 12t73 -12l2 -104q1 -23 -1 -48t-6 -53t-7.5 -46t-10 -50.5t-8.5 -44.5q138 82 221 106l98 29q20 -20 34 -62.5t11 -74.5l-98 -33q-78 -27 -240 -45
q118 -105 170 -178l58 -84q-15 -27 -50.5 -52.5t-68.5 -31.5l-59 82q-50 62 -119 213q-58 -139 -115 -213l-63 -82q-29 6 -64.5 32t-52.5 54l59 82q13 19 28.5 37.5t37 40.5t32.5 33t38.5 37t31.5 30q-154 12 -239 45z" />
    <glyph glyph-name="plus" unicode="+" horiz-adv-x="1085" 
d="M467 741v295q31 8 76 8q48 0 75 -8v-295q0 -10 -1 -37.5t-1 -39.5q12 0 40 1t36 1h273q8 -46 8 -72q0 -34 -8 -70h-273q-8 0 -36 1t-40 1q0 -13 1 -40.5t1 -36.5v-295q-30 -9 -75 -9q-41 0 -76 9v295q0 9 1 36.5t1 40.5q-13 0 -40.5 -1t-35.5 -1h-272q-8 24 -8 70
q0 45 8 72h272q8 0 35.5 -1t40.5 -1q0 12 -1 39.5t-1 37.5z" />
    <glyph glyph-name="comma" unicode="," horiz-adv-x="520" 
d="M371 186q22 -42 22 -120q0 -124 -68.5 -225t-199.5 -150q-21 12 -33 36t-10 48q71 35 114 89.5t44 117.5q-56 10 -78 26q-19 27 -19 86q0 70 19 92q14 7 47.5 15t58.5 8q27 0 59 -7t44 -16z" />
    <glyph glyph-name="hyphen" unicode="-" horiz-adv-x="686" 
d="M580 473h-471q-9 27 -9 68q0 39 9 73h471q6 -35 6 -73q0 -41 -6 -68z" />
    <glyph glyph-name="period" unicode="." horiz-adv-x="512" 
d="M133 96q0 21 5 50t12 40q46 23 106 23q25 0 58.5 -7.5t47.5 -15.5q7 -11 12 -40t5 -50q0 -59 -17 -90q-12 -7 -45.5 -13.5t-60.5 -6.5q-66 0 -106 20q-17 31 -17 90z" />
    <glyph glyph-name="slash" unicode="/" horiz-adv-x="833" 
d="M20 -166l650 1718q79 -7 135 -51l-649 -1718q-69 0 -136 51z" />
    <glyph glyph-name="zero" unicode="0" horiz-adv-x="1085" 
d="M113 664q0 222 31 354.5t120 222.5q108 111 281 111q91 0 155.5 -27.5t120.5 -83.5q88 -91 120 -224.5t32 -352.5q0 -221 -32 -354.5t-120 -225.5q-112 -109 -278 -109q-167 0 -279 109q-88 92 -119.5 225.5t-31.5 354.5zM276 664q0 -199 23 -314.5t78 -179.5
q64 -70 166 -70t166 70q55 63 77.5 178.5t22.5 315.5t-22.5 314.5t-77.5 178.5q-64 70 -166 70t-166 -70q-55 -64 -78 -179t-23 -314z" />
    <glyph glyph-name="one" unicode="1" horiz-adv-x="1085" 
d="M154 946q140 85 239 189t135 192q33 8 74 8q39 0 72 -8v-1069q0 -24 -1 -65.5t-1 -63.5q15 0 56.5 1t53.5 1h158q6 -35 6 -65q0 -32 -6 -66h-725q-6 34 -6 66q0 30 6 65h199q12 0 53.5 -1t56.5 -1q0 22 -1 63.5t-1 65.5v578q0 2 6 254q-54 -74 -138 -138t-169 -100
q-52 34 -67 94z" />
    <glyph glyph-name="two" unicode="2" horiz-adv-x="1085" 
d="M956 139q0 -39 -2 -59q-9 -80 -104 -80h-649q-25 19 -48.5 48.5t-23.5 53.5q0 91 76 197t192 205l189 164q91 78 134.5 151t43.5 166q0 110 -64 174t-165 64q-89 0 -163 -55.5t-116 -147.5q-83 9 -113 59q50 115 156.5 194t247.5 79q172 0 275.5 -102t103.5 -263
q0 -45 -8 -87t-19.5 -74.5t-34 -68t-39.5 -58t-50 -55t-52 -49.5t-57 -50l-164 -142q-98 -84 -155.5 -157t-63.5 -117q115 10 245 10h428z" />
    <glyph glyph-name="three" unicode="3" horiz-adv-x="1085" 
d="M872 1147l-245 -268q-22 -24 -84 -74h24q78 0 146 -23t122 -68.5t85.5 -121.5t31.5 -174q0 -88 -26.5 -162.5t-70.5 -125.5t-102 -86.5t-121 -52t-128 -16.5q-119 0 -220 34t-171 91q6 29 26 59.5t45 49.5q146 -107 301 -107q132 0 219 84t87 238q0 127 -68.5 197.5
t-190.5 70.5q-93 0 -155 -39q-22 11 -41.5 34t-26.5 50l293 324q87 93 139 137l-6 8q-63 -16 -256 -16h-315q-6 27 -6 55q0 39 12 82h700q37 -68 37 -104q0 -38 -35 -76z" />
    <glyph glyph-name="four" unicode="4" horiz-adv-x="1085" 
d="M621 0v223q0 12 1 44.5t1 43.5q-11 0 -43 -1t-43 -1h-402q-2 4 -10.5 18.5t-11 20l-7.5 16.5t-6.5 19.5t-1.5 17.5q0 22 43 123l357 813q31 8 75 0.5t70 -24.5l-291 -664q-82 -179 -98 -209l4 -6q117 6 215 6h150q0 10 -1 40t-1 40v213q0 54 26 82.5t70 28.5h47l8 -6
v-312q0 -12 -1 -44t-1 -42q10 0 40 1t42 1h137q4 -25 4 -63q0 -39 -10 -70h-131q-12 0 -42 1t-40 1q0 -11 1 -43.5t1 -44.5v-223q-35 -6 -78 -6t-73 6z" />
    <glyph glyph-name="five" unicode="5" horiz-adv-x="1085" 
d="M885 1327q10 -33 10 -63q0 -74 -70 -74h-366q-78 0 -113 2v-131l-8 -168l-6 -72q109 58 219 58q181 0 292 -111.5t111 -308.5q0 -121 -38 -216t-102 -152t-142.5 -86.5t-165.5 -29.5q-211 0 -371 123q4 28 24.5 59t45.5 48q152 -103 297 -103q57 0 107.5 20.5t92 61.5
t65.5 109.5t24 155.5q0 70 -17.5 124.5t-44.5 87t-64.5 54t-74 29.5t-76.5 8q-142 0 -262 -105q-20 3 -41 18.5t-31 32.5l27 617l12 12h666z" />
    <glyph glyph-name="six" unicode="6" horiz-adv-x="1085" 
d="M557 -25q-178 0 -285 119q-21 24 -31 37t-36.5 64t-41 107t-27.5 156.5t-13 221.5q0 204 56 353.5t171.5 234t282.5 84.5q174 0 274 -62q-3 -31 -19.5 -63.5t-41.5 -48.5q-100 47 -209 47q-90 0 -158.5 -37.5t-109.5 -104t-61.5 -151.5t-22.5 -187q62 62 146.5 100
t172.5 38q173 0 274 -112.5t101 -330.5q0 -202 -116.5 -333.5t-305.5 -131.5zM567 748q-72 0 -149.5 -40.5t-132.5 -107.5v-33q0 -95 23 -204.5t75 -176.5q68 -86 176 -86q122 0 190 89t68 241q0 318 -250 318z" />
    <glyph glyph-name="seven" unicode="7" horiz-adv-x="1085" 
d="M154 1327h792q31 -57 31 -100q0 -29 -27 -72l-63 -92q-84 -127 -141.5 -229t-110 -224.5t-85 -257.5t-48.5 -291l-6 -61q-31 -8 -82 -8q-55 0 -82 8l8 78q53 494 358 944l21 31q18 28 39 56.5t42 56t25 32.5l-6 6q-57 -14 -330 -14h-342q-6 27 -6 55q0 38 13 82z" />
    <glyph glyph-name="eight" unicode="8" horiz-adv-x="1085" 
d="M111 332q0 117 70.5 213t178.5 149q-98 48 -155.5 128t-57.5 186q0 151 114 247.5t280 96.5q172 0 283.5 -93t111.5 -241q0 -101 -57 -181.5t-150 -127.5q112 -56 178 -147.5t66 -213.5q0 -169 -127 -271t-311 -102q-192 0 -308 94.5t-116 262.5zM487 647h-2
q-101 -43 -158 -126t-57 -177q0 -120 77 -185t192 -65q113 0 192.5 69t79.5 187q0 61 -25.5 111.5t-70 84.5t-94 57t-107.5 38zM580 762l24 -8q80 38 127 107.5t47 148.5q0 104 -68 163.5t-169 59.5q-99 0 -166.5 -61t-67.5 -160q0 -183 273 -250z" />
    <glyph glyph-name="nine" unicode="9" horiz-adv-x="1085" 
d="M528 1352q178 0 285 -119q21 -25 31 -37.5t36.5 -63.5t41.5 -106.5t28 -156.5t13 -222q0 -204 -56 -353.5t-171.5 -234t-282.5 -84.5q-175 0 -275 62q3 31 20 64t42 49q102 -48 209 -48q89 0 157 37.5t109 104t62.5 151.5t23.5 187q-63 -63 -148 -100.5t-172 -37.5
q-173 0 -274 112.5t-101 330.5q0 202 116.5 333.5t305.5 131.5zM518 580q72 0 149.5 39t133.5 106v35q0 95 -23.5 204.5t-75.5 176.5q-72 86 -176 86q-122 0 -190 -89t-68 -241q0 -317 250 -317z" />
    <glyph glyph-name="colon" unicode=":" horiz-adv-x="520" 
d="M137 96q0 21 5 50t12 40q46 23 106 23q25 0 59 -7.5t48 -15.5q16 -26 16 -90q0 -61 -16 -90q-12 -7 -46 -13.5t-61 -6.5q-66 0 -106 20q-17 31 -17 90zM137 793q0 21 5 50t12 40q44 22 106 22q26 0 59.5 -7t47.5 -15q16 -26 16 -90q0 -62 -16 -91q-12 -7 -46 -13.5
t-61 -6.5q-66 0 -106 20q-17 31 -17 91z" />
    <glyph glyph-name="semicolon" unicode=";" horiz-adv-x="528" 
d="M367 186q22 -42 22 -120q0 -124 -68.5 -225t-199.5 -150q-21 12 -33 36t-10 48q71 35 114 89.5t44 117.5q-56 10 -78 26q-19 27 -19 86q0 70 19 92q14 7 47.5 15t58.5 8q27 0 59 -7t44 -16zM141 793q0 21 5 50t12 40q44 22 106 22q26 0 59.5 -7t47.5 -15q16 -26 16 -90
q0 -62 -16 -91q-12 -7 -46 -13.5t-61 -6.5q-66 0 -106 20q-17 31 -17 91z" />
    <glyph glyph-name="less" unicode="&#x3c;" horiz-adv-x="1085" 
d="M113 657l772 422q64 -46 73 -123l-548 -288q-44 -23 -138 -68v-14q94 -46 138 -68l548 -289q-12 -79 -73 -123l-772 422q-18 75 0 129z" />
    <glyph glyph-name="equal" unicode="=" horiz-adv-x="1085" 
d="M965 350h-844q-8 27 -8 70q0 45 8 72h844q8 -27 8 -72q0 -43 -8 -70zM965 702h-844q-8 27 -8 70t8 74h844q8 -31 8 -74t-8 -70z" />
    <glyph glyph-name="greater" unicode="&#x3e;" horiz-adv-x="1085" 
d="M973 530l-774 -421q-64 48 -72 122l549 289q59 30 137 68v14q-78 38 -137 68l-549 288q9 76 74 123l772 -422q18 -75 0 -129z" />
    <glyph glyph-name="question" unicode="?" horiz-adv-x="782" 
d="M33 1327q186 94 373 94q159 0 257.5 -91t98.5 -245q0 -235 -266 -391l-129 -76l-17 -237q-21 -8 -55 -8q-40 0 -64 8l-8 305l13 21l94 49q131 69 199.5 145t68.5 172q0 94 -61 151.5t-164 57.5q-124 0 -283 -76q-20 18 -37 53.5t-20 67.5zM293 190q63 0 96 -20
q14 -25 14 -82q0 -58 -14 -82q-33 -20 -96 -20q-58 0 -96 20q-15 26 -15 82t15 82q38 20 96 20z" />
    <glyph glyph-name="at" unicode="@" horiz-adv-x="1908" 
d="M1321 846l-2 -531q0 -89 24.5 -127t79.5 -38q45 0 85.5 24t75.5 74t56 139t21 207q0 299 -184 483.5t-490 184.5q-160 0 -295 -61.5t-227 -167.5t-143.5 -252.5t-51.5 -313.5q0 -338 174 -526.5t461 -188.5q244 0 422 74q19 -15 32 -47.5t13 -63.5q-232 -84 -475 -84
q-170 0 -312.5 56t-246.5 160t-162.5 263.5t-58.5 356.5q0 192 64 360t177.5 289.5t276.5 191.5t352 70q244 0 431.5 -98.5t290.5 -278t103 -413.5q0 -129 -33.5 -236.5t-89.5 -177t-127 -107.5t-149 -38q-170 0 -223 135q-55 -65 -132.5 -105.5t-158.5 -40.5
q-148 0 -236 120t-88 325q0 104 27.5 197t77.5 164.5t128 113t173 41.5q193 0 340 -133zM928 145q63 0 132.5 47.5t110.5 112.5v483q-30 30 -82 52t-108 22q-117 0 -184.5 -114t-67.5 -285q0 -142 50 -230t149 -88z" />
    <glyph glyph-name="A" unicode="A" horiz-adv-x="1220" 
d="M465 362q-5 0 -64.5 1.5t-78.5 1.5l-119 -367q-27 -6 -70 -6q-34 0 -76 10l-4 6l469 1391q35 6 90 6q59 0 86 -6l469 -1391q-33 -20 -92 -20q-39 0 -59 17t-35 65l-98 295q-19 0 -80 -1.5t-64 -1.5h-274zM526 985l-159 -487q18 0 66 1t52 1h236q2 0 50 -1t69 -1l-129 389
q-77 239 -105 342h-10q-32 -128 -70 -244z" />
    <glyph glyph-name="B" unicode="B" horiz-adv-x="1228" 
d="M215 1399q24 0 173 3t226 3q223 0 326.5 -99t103.5 -270q0 -100 -53.5 -178.5t-146.5 -112.5q113 -31 190.5 -129t77.5 -231q0 -61 -15 -116t-50 -106t-88.5 -88t-136 -59t-185.5 -22q-75 0 -145.5 1t-149.5 2.5t-127 2.5l-12 12v1374zM631 670h-273v-547q48 0 145.5 1
t145.5 1q72 0 127 17.5t86.5 44.5t51 65t26 72t6.5 73q0 35 -8.5 70t-31 72.5t-56.5 66t-90.5 46.5t-128.5 18zM358 1276v-475h252q79 0 135.5 21.5t84.5 58t39.5 75t11.5 82.5q0 47 -10.5 84.5t-37 74t-82 57t-135.5 20.5q-182 0 -258 2z" />
    <glyph glyph-name="C" unicode="C" horiz-adv-x="1228" 
d="M975 956q1 46 -8.5 91t-33 90t-59.5 79t-92.5 55t-126.5 21q-180 0 -276 -153.5t-96 -446.5q0 -273 98.5 -426t271.5 -153q188 0 375 161q29 -17 53 -45.5t33 -56.5q-87 -88 -213 -142.5t-270 -54.5q-108 0 -195.5 39.5t-146 106.5t-98 159.5t-57 195t-17.5 216.5
q0 184 43 327t118 229.5t170.5 130.5t206.5 44q107 0 199 -33.5t152 -88.5t93.5 -123.5t33.5 -139.5q0 -92 -89 -92q-33 0 -69 10z" />
    <glyph glyph-name="D" unicode="D" horiz-adv-x="1306" 
d="M1186 698q0 -135 -14 -232t-62.5 -197.5t-134.5 -172.5q-60 -51 -157.5 -77.5t-186.5 -26.5q-60 0 -416 8l-12 12v1374l12 13q178 6 416 6q88 0 186 -27t158 -78q123 -105 167 -251.5t44 -350.5zM1020 698q0 62 -3.5 115.5t-14.5 114t-28.5 108.5t-47.5 94t-70 76.5
t-98 49t-129 18.5q-47 0 -132 1t-139 1v-1151q54 0 139 -1t132 -1q71 0 129 18.5t98 49t70 76.5t47.5 94.5t28.5 108.5t14.5 113t3.5 115z" />
    <glyph glyph-name="E" unicode="E" horiz-adv-x="1153" 
d="M1040 137q0 -42 -4 -65q-15 -72 -100 -72h-645q-40 0 -64 27.5t-24 74.5v1284l12 13h791q4 -25 4 -64q0 -37 -11 -71h-522q-10 0 -34.5 -0.5t-47.5 -0.5t-43 1q0 -26 1 -63t1 -64v-363q24 0 66 1t57 1h424q6 -37 6 -67q0 -33 -6 -68h-424q-78 0 -123 2v-432q0 -15 -1 -40
t-1 -38q70 4 127 4h561z" />
    <glyph glyph-name="F" unicode="F" horiz-adv-x="1052" 
d="M358 0q-30 -6 -79 -6q-46 0 -76 6v1386l12 13h776q10 -30 10 -66q0 -71 -96 -71h-325q-163 0 -224 4q0 -47 1 -143t1 -144v-205q22 0 60.5 1t52.5 1h420q6 -38 6 -67q0 -33 -6 -68h-420q-72 0 -113 2v-643z" />
    <glyph glyph-name="G" unicode="G" horiz-adv-x="1304" 
d="M727 705h311q66 0 94.5 -26t28.5 -83v-530q-223 -91 -487 -91q-123 0 -220.5 41t-159.5 109t-102.5 162t-57.5 193t-17 210q0 154 33 279.5t88.5 208.5t131 139.5t157.5 81t171 24.5q126 0 251 -41t210 -112q-17 -74 -84 -121q-165 133 -387 133q-83 0 -153 -31
t-128 -97.5t-91 -185.5t-33 -280q0 -285 105 -430t314 -145q167 0 306 47v278q0 90 2 125h-224q-71 0 -71 74q0 28 12 68z" />
    <glyph glyph-name="H" unicode="H" horiz-adv-x="1368" 
d="M1010 0v504q0 29 1 76.5t1 74.5q-8 0 -63 -1t-62 -1h-406q-7 0 -62 1t-63 1q0 -27 1 -74.5t1 -76.5v-504q-30 -6 -79 -6q-46 0 -76 6v1399q30 6 76 6q49 0 79 -6v-457q0 -29 -1 -76.5t-1 -74.5q8 0 63 1t62 1h406q7 0 62 -1t63 -1q0 27 -1 74.5t-1 76.5v457q27 6 75 6
q45 0 80 -6v-1399q-35 -6 -80 -6t-75 6z" />
    <glyph glyph-name="I" unicode="I" horiz-adv-x="577" 
d="M211 0v1399q27 6 76 6q45 0 80 -6v-1399q-35 -6 -80 -6q-49 0 -76 6z" />
    <glyph glyph-name="J" unicode="J" horiz-adv-x="892" 
d="M84 184q49 -30 114.5 -49.5t125.5 -19.5q132 0 184.5 79t52.5 269v936q34 6 82 6q46 0 76 -6v-905q0 -95 -7.5 -164.5t-31.5 -139t-65.5 -113t-112.5 -70.5t-170 -27q-79 0 -164.5 22.5t-147.5 60.5q15 68 64 121z" />
    <glyph glyph-name="K" unicode="K" horiz-adv-x="1193" 
d="M1149 43q-16 -25 -48 -39t-61 -14q-48 0 -69.5 22.5t-42.5 79.5l-131 334q-49 125 -110 175t-163 50q-80 0 -166 -4v-647q-30 -6 -79 -6q-46 0 -76 6v1399q30 6 76 6q49 0 79 -6v-613l150 5q25 0 39.5 11t30.5 38l301 487q27 43 47.5 59.5t62.5 16.5q22 0 84 -4l12 -17
l-344 -557q-30 -49 -63 -75q97 -14 152.5 -74.5t109.5 -188.5l125 -319q35 -85 84 -125z" />
    <glyph glyph-name="L" unicode="L" horiz-adv-x="1036" 
d="M537 139h436q0 -44 -6 -67q-12 -72 -101 -72h-573q-39 0 -64.5 27t-25.5 77v1289l12 12h61q50 0 66 -23.5t16 -78.5v-1170q92 6 179 6z" />
    <glyph glyph-name="M" unicode="M" horiz-adv-x="1624" 
d="M172 2l109 1397q39 6 106 6q65 0 100 -6l236 -719q18 -51 49.5 -163t34.5 -136h10q5 28 36 139.5t48 159.5l236 719q43 6 100 6q63 0 106 -6l109 -1397q-38 -10 -80 -10q-38 0 -72 6l-59 848q-6 93 -16 387h-11l-323 -1014q-50 -8 -80 -8q-36 0 -76 8l-325 1014h-11
q-3 -52 -8 -194t-8 -193l-57 -848q-38 -6 -76 -6q-45 0 -78 10z" />
    <glyph glyph-name="N" unicode="N" horiz-adv-x="1374" 
d="M1161 1405l13 -10v-1395q-40 -6 -97 -6t-98 6l-498 928q-61 115 -139 282h-6q12 -381 12 -442v-768q-44 -6 -74 -6q-33 0 -71 6v1399q38 6 92 6q57 0 98 -6l498 -928q30 -56 77.5 -155t65.5 -134h6q-14 263 -14 467v654q0 56 16.5 79t65.5 23h53z" />
    <glyph glyph-name="O" unicode="O" horiz-adv-x="1337" 
d="M283 700q0 -86 10 -164.5t36.5 -159t68 -138.5t111 -95t159.5 -37q65 0 119.5 19t93.5 52t69.5 79.5t49.5 98t31 112t17 117t5 116.5q0 87 -9.5 164.5t-36 158t-68.5 138.5t-111.5 94.5t-159.5 36.5q-65 0 -119 -19t-93 -51.5t-69.5 -79t-50 -97.5t-31.5 -111.5t-17 -117
t-5 -116.5zM117 700q0 184 52.5 345.5t164.5 259.5q131 118 334 118q205 0 336 -118q111 -99 164 -260.5t53 -344.5q0 -185 -53 -346t-164 -260q-132 -119 -336 -119q-202 0 -334 119q-112 98 -164.5 259t-52.5 347z" />
    <glyph glyph-name="P" unicode="P" horiz-adv-x="1138" 
d="M1057 967q0 -212 -123 -326.5t-328 -114.5h-248v-526q-30 -6 -79 -6q-46 0 -76 6v1386l12 13q33 0 173.5 3t217.5 3q204 0 327.5 -113t123.5 -325zM358 1276v-621q84 2 252 2q80 0 138 28.5t87.5 76t42.5 98t13 107.5q0 58 -13 108.5t-42.5 97t-87.5 74t-138 27.5
q-176 0 -252 2z" />
    <glyph glyph-name="Q" unicode="Q" horiz-adv-x="1314" 
d="M946 -201l-250 178q-8 -2 -28 -2q-213 0 -344 115q-109 97 -158 260t-49 350q0 184 49 348t158 261q127 114 333 114q205 0 332 -114q110 -97 159.5 -260.5t49.5 -348.5q0 -415 -201 -596q-64 -57 -116 -75l45 -31q102 -73 155.5 -97t104.5 -26q-4 -60 -37.5 -88.5
t-77.5 -28.5q-66 0 -125 41zM283 700q0 -89 8.5 -165.5t33.5 -157t65 -136.5t108.5 -92t158.5 -36q373 0 373 587q0 89 -8.5 166t-33 158t-64.5 138t-108.5 93.5t-158.5 36.5t-158.5 -36.5t-108.5 -93.5t-65 -138t-33.5 -158t-8.5 -166z" />
    <glyph glyph-name="R" unicode="R" horiz-adv-x="1212" 
d="M1073 999q0 -138 -71.5 -236.5t-196.5 -135.5q84 -28 137 -166l107 -277q15 -37 22.5 -54.5t25.5 -45.5t40 -45q-16 -24 -48 -37.5t-61 -13.5q-44 0 -67.5 23.5t-45.5 78.5l-118 311q-34 93 -83 141t-143 48h-213v-590q-34 -6 -79 -6q-46 0 -76 6v1386l12 13
q50 1 134.5 2.5t153 2.5t126.5 1q212 0 328 -107.5t116 -298.5zM358 1276v-555q86 4 269 4q81 0 138.5 24t87.5 65.5t43 86.5t13 98q0 54 -13 99.5t-43 87t-87.5 65t-138.5 23.5q-193 0 -269 2z" />
    <glyph glyph-name="S" unicode="S" horiz-adv-x="1136" 
d="M80 129q3 34 24 69t48 56q95 -64 202.5 -102.5t206.5 -38.5q143 0 227.5 60.5t85.5 164.5q3 162 -217 258l-239 104q-136 60 -206.5 142.5t-70.5 201.5q0 159 123 269t322 110q203 0 407 -98q0 -35 -17.5 -71.5t-45.5 -59.5q-190 96 -338 96q-129 0 -210 -64.5
t-81 -166.5q0 -78 52 -127t147 -90l231 -101q305 -132 305 -370q0 -180 -122 -288t-359 -108q-126 0 -251.5 41.5t-223.5 112.5z" />
    <glyph glyph-name="T" unicode="T" horiz-adv-x="989" 
d="M416 0v1266q-14 0 -56 -1t-55 -1h-262q-6 34 -6 67q0 31 6 68h901q12 -27 12 -66q0 -36 -23 -52.5t-73 -16.5h-174q-12 0 -55.5 1t-57.5 1v-1266q-35 -6 -77 -6q-46 0 -80 6z" />
    <glyph glyph-name="U" unicode="U" horiz-adv-x="1363" 
d="M1180 1399v-922q0 -243 -136.5 -372.5t-363.5 -129.5q-224 0 -359 129.5t-135 372.5v916l13 12h61q50 0 66 -23.5t16 -78.5v-824q0 -181 89.5 -278t250.5 -97q162 0 251 96.5t89 278.5v920q30 6 76 6q48 0 82 -6z" />
    <glyph glyph-name="V" unicode="V" horiz-adv-x="1140" 
d="M594 152l356 1247q27 6 68 6q40 0 72 -8l8 -13l-418 -1386q-62 -6 -119 -6q-43 0 -68.5 15.5t-41.5 66.5l-396 1312q55 25 99 25q65 0 86 -76l243 -825q27 -87 95 -340q4 -18 16 -18z" />
    <glyph glyph-name="W" unicode="W" horiz-adv-x="1681" 
d="M344 78l-264 1315q39 18 90 18q36 0 54.5 -19t27.5 -65l151 -784l70 -393q3 -14 6 -17.5t13 -3.5l251 1239q47 6 105 6q68 0 102 -6l232 -1218q3 -14 6 -17.5t10 -3.5q9 50 80 414l180 856q30 6 72 6q45 0 76 -8l8 -11l-305 -1384q-51 -10 -148 -10q-42 0 -66 17t-32 67
l-115 606q-52 267 -96 522h-12q-60 -327 -103 -522l-143 -682q-55 -8 -139 -8q-44 0 -72.5 17.5t-38.5 68.5z" />
    <glyph glyph-name="X" unicode="X" horiz-adv-x="1171" 
d="M926 1399q24 8 65 8q55 0 80 -14l6 -13l-395 -639l440 -716q-45 -37 -106 -37q-57 0 -98 65l-343 555l-370 -608q-24 -8 -70 -8q-54 0 -82 14l-6 12l449 719l-392 637q48 37 107 37q60 0 98 -65l293 -476z" />
    <glyph glyph-name="Y" unicode="Y" horiz-adv-x="985" 
d="M594 862l213 537q31 8 70 8q37 0 75 -10l6 -13l-385 -929v-455q-35 -6 -79 -6q-48 0 -78 6v461l-385 919q53 33 102 33q59 0 86 -76l197 -475q27 -61 84 -235h10q9 31 26 79t36 98t22 58z" />
    <glyph glyph-name="Z" unicode="Z" horiz-adv-x="1132" 
d="M133 184l551 858q22 35 158 226l-6 6q-69 -14 -322 -14h-348q-6 27 -6 55q0 41 12 84h811q23 -84 23 -109q0 -26 -25 -71l-547 -848q-20 -32 -46.5 -70.5t-63.5 -90t-52 -73.5l7 -6q107 10 215 10h268q176 0 246 33q14 -44 14 -82q0 -92 -115 -92h-776q-22 75 -22 106
q0 39 24 78z" />
    <glyph glyph-name="bracketleft" unicode="[" horiz-adv-x="647" 
d="M580 -274l-363 -15l-12 13v1918l12 13l363 -15q4 -16 4 -47q0 -30 -13 -69l-211 -6v-1670l211 -6q13 -43 13 -69q0 -31 -4 -47z" />
    <glyph glyph-name="backslash" unicode="\" horiz-adv-x="833" 
d="M676 -217l-649 1718q60 48 135 51l649 -1718q-27 -21 -64.5 -35t-70.5 -16z" />
    <glyph glyph-name="bracketright" unicode="]" horiz-adv-x="647" 
d="M428 -289l-362 15q-5 20 -5 47q0 26 13 69l211 6v1670l-211 6q-13 39 -13 69q0 27 5 47l362 15l14 -13v-1918z" />
    <glyph glyph-name="asciicircum" unicode="^" horiz-adv-x="1085" 
d="M625 1327l352 -700q-23 -8 -73.5 -8.5t-82.5 8.5l-207 424q-19 38 -65 147h-12l-66 -147l-207 -424q-32 -9 -82 -8.5t-73 8.5l352 700q31 7 82 7t82 -7z" />
    <glyph glyph-name="underscore" unicode="_" horiz-adv-x="1044" 
d="M1044 -293h-1044q-6 24 -6 62q0 39 6 63h1044q7 -28 7 -63q0 -34 -7 -62z" />
    <glyph glyph-name="grave" unicode="`" 
d="M268 1479l281 -316q-9 -22 -29 -40.5t-43 -24.5l-334 266q15 38 50 70.5t75 44.5z" />
    <glyph glyph-name="a" unicode="a" horiz-adv-x="1032" 
d="M918 63q-8 -22 -28 -44.5t-42 -32.5q-102 37 -127 143q-158 -154 -322 -154q-140 0 -217.5 89t-77.5 208q0 165 103 247.5t280 82.5q131 0 226 -18v102q0 111 -48 160t-137 49q-144 0 -333 -84q-22 19 -38 54t-16 65q218 96 402 96q158 0 237.5 -87.5t79.5 -254.5v-422
q0 -73 11.5 -119t46.5 -80zM420 104q74 0 152.5 42t140.5 122v205q-98 14 -224 14q-107 0 -169 -53.5t-62 -150.5q0 -77 43.5 -128t118.5 -51z" />
    <glyph glyph-name="b" unicode="b" horiz-adv-x="1073" 
d="M969 514q0 -135 -36.5 -239t-98.5 -165.5t-136.5 -92.5t-158.5 -31q-182 0 -359 65v1442l13 12h55q50 0 66 -23.5t16 -78.5v-506q131 125 288 125q113 0 193 -65.5t119 -179t39 -263.5zM596 889q-73 0 -145 -40.5t-121 -103.5v-608q88 -35 207 -35q120 0 199 105.5
t79 306.5q0 188 -62 281.5t-157 93.5z" />
    <glyph glyph-name="c" unicode="c" horiz-adv-x="960" 
d="M727 649q3 47 -6.5 91t-32.5 82.5t-67.5 61.5t-106.5 23q-115 0 -182.5 -106.5t-67.5 -306.5q0 -192 68.5 -290t193.5 -98q47 0 97.5 18.5t83.5 39t81 55.5q24 -14 45 -41.5t27 -54.5q-158 -148 -354 -148q-85 0 -154 29.5t-114 78.5t-75.5 117t-43.5 141t-13 153
q0 134 34.5 239.5t93 168.5t131 95.5t153.5 32.5q92 0 164 -30t111.5 -76.5t59 -94.5t19.5 -92q0 -45 -16 -69.5t-63 -24.5q-29 0 -66 6z" />
    <glyph glyph-name="d" unicode="d" horiz-adv-x="1075" 
d="M104 489q0 135 34 240.5t90.5 167.5t122.5 93.5t136 31.5q122 0 256 -84v555l13 12h55q48 0 64 -23.5t16 -78.5v-1120q0 -163 57 -220q-8 -22 -26.5 -44.5t-40.5 -32.5q-96 34 -125 137q-57 -66 -135.5 -107t-171.5 -41q-165 0 -255 140t-90 374zM477 106q70 0 142 42
t124 116v535q-137 92 -241 92q-102 0 -173 -101t-71 -301q0 -192 62.5 -287.5t156.5 -95.5z" />
    <glyph glyph-name="e" unicode="e" horiz-adv-x="1030" 
d="M901 457h-635q10 -348 264 -348q139 0 297 86q21 -18 37 -48.5t19 -56.5q-73 -51 -172.5 -83t-200.5 -32q-89 0 -159 28.5t-115.5 76.5t-75 116.5t-42 144t-12.5 163.5q0 233 109 379.5t301 146.5q96 0 172 -34t124 -94t73.5 -139t25.5 -171q0 -74 -10 -135zM516 913
q-113 0 -177.5 -92t-72.5 -248h492v27q0 138 -59.5 225.5t-182.5 87.5z" />
    <glyph glyph-name="f" unicode="f" horiz-adv-x="655" 
d="M221 0v891l-176 -2q-6 30 -6 59q0 28 6 58l170 -5q-14 182 -14 213q0 131 76.5 215t216.5 84q54 0 120.5 -12.5t112.5 -30.5q0 -64 -37 -104q-126 33 -186 33q-75 0 -118.5 -50.5t-43.5 -140.5q0 -74 18 -207l299 5q7 -35 7 -58q0 -24 -7 -59l-290 2v-891q-30 -6 -74 -6
q-39 0 -74 6z" />
    <glyph glyph-name="g" unicode="g" horiz-adv-x="1073" 
d="M104 500q0 133 34 238t90 167t122 93.5t135 31.5q163 0 289 -110q28 71 109 100q22 -11 40.5 -34t26.5 -46q-57 -55 -57 -219v-643q0 -155 -21 -247.5t-71 -152.5q-46 -57 -128 -93t-186 -36q-174 0 -337 70q4 73 43 119q61 -30 140.5 -48t139.5 -18q86 0 143.5 25.5
t85.5 74.5t38 102t10 126v119q-131 -135 -297 -135q-168 0 -258.5 139t-90.5 377zM750 770v27q-121 102 -244 102q-107 0 -177.5 -99.5t-70.5 -299.5q0 -194 60.5 -289.5t156.5 -95.5q76 0 150 42t125 109v504z" />
    <glyph glyph-name="h" unicode="h" horiz-adv-x="1114" 
d="M944 700v-505q0 -113 25 -175q-37 -32 -97 -32q-42 0 -59.5 24t-17.5 76v565q0 125 -32.5 177.5t-119.5 52.5q-78 0 -165.5 -44.5t-147.5 -113.5v-725q-30 -6 -74 -6q-46 0 -76 6v1493l13 12h55q50 0 66 -23.5t16 -78.5v-529q70 67 164 107.5t188 40.5q71 0 123 -25.5
t81.5 -71t43.5 -101.5t14 -124z" />
    <glyph glyph-name="i" unicode="i" horiz-adv-x="524" 
d="M348 864v-864q-30 -6 -74 -6q-47 0 -77 6v791q0 57 -18 77.5t-66 20.5h-19q-8 27 -8 57q0 28 8 55q82 11 103 11h16q64 0 99.5 -40t35.5 -108zM133 1280q0 48 14 76q33 20 93 20q62 0 92 -20q14 -28 14 -76t-14 -76q-12 -9 -40.5 -15.5t-51.5 -6.5q-56 0 -93 22
q-14 28 -14 76z" />
    <glyph glyph-name="j" unicode="j" horiz-adv-x="538" 
d="M362 864v-837v-25q0 -91 -2 -133t-13.5 -104t-36.5 -93.5t-72 -65t-119 -55.5q-36 36 -47 97q83 43 111 96.5t28 157.5v889q0 57 -18 77.5t-66 20.5h-37q-8 40 -8 57q0 15 8 55q82 11 125 11h16q61 0 96 -40t35 -108zM147 1280q0 46 15 76q33 20 92 20q62 0 92 -20
q14 -28 14 -76t-14 -76q-12 -9 -40.5 -15.5t-51.5 -6.5q-55 0 -92 22q-15 30 -15 76z" />
    <glyph glyph-name="k" unicode="k" horiz-adv-x="1003" 
d="M780 367l80 -181q53 -120 98 -153q-14 -19 -42.5 -32t-57.5 -13q-47 0 -70.5 24.5t-48.5 81.5l-94 213q-39 90 -79.5 121t-125.5 31q-50 0 -110 -8v-451q-30 -6 -74 -6q-46 0 -76 6v1493l13 12h55q50 0 66 -23.5t16 -78.5v-823l88 4q28 0 47 28l219 324q27 41 50 58.5
t65 17.5q17 0 75 -4l13 -17l-260 -379q-24 -38 -49 -57q71 -13 117 -57t85 -131z" />
    <glyph glyph-name="l" unicode="l" horiz-adv-x="579" 
d="M401 117h86q15 -30 15 -82q0 -23 -2 -31q-82 -12 -150 -12q-80 0 -127 44t-47 126v1331l12 12h56q50 0 66 -23.5t16 -78.5v-1198q0 -88 75 -88z" />
    <glyph glyph-name="m" unicode="m" horiz-adv-x="1619" 
d="M739 655q0 123 -31.5 176.5t-107.5 53.5q-66 0 -140 -43t-128 -117v-725q-30 -6 -74 -6q-48 0 -78 6v997l13 15h57q49 0 65.5 -25.5t16.5 -81.5v-31q61 70 141 109t160 39q167 0 229 -154q167 154 332 154q127 0 191.5 -88t64.5 -227v-512q0 -113 25 -175
q-37 -32 -97 -32q-42 0 -60 24t-18 76v569q0 122 -32 175t-107 53q-65 0 -138 -41.5t-132 -114.5v-22v-707q-30 -6 -76 -6t-76 6v655z" />
    <glyph glyph-name="n" unicode="n" horiz-adv-x="1116" 
d="M948 702v-507q0 -117 23 -175q-32 -32 -97 -32q-42 0 -59.5 24t-17.5 76v567q0 125 -32 177.5t-118 52.5q-79 0 -167 -44.5t-148 -113.5v-727q-30 -6 -74 -6q-48 0 -78 6v999l13 13h57q49 0 65.5 -25.5t16.5 -81.5v-28q69 66 163 105.5t189 39.5q137 0 200.5 -88.5
t63.5 -231.5z" />
    <glyph glyph-name="o" unicode="o" horiz-adv-x="1062" 
d="M956 502q0 -271 -143 -418q-109 -109 -283 -109q-171 0 -280 109q-144 148 -144 418t144 418q107 110 280 110q176 0 283 -110q143 -147 143 -418zM264 502q0 -81 13.5 -150t43 -129t83.5 -94.5t128 -34.5q73 0 127 34.5t84 94t44 129t14 150.5q0 80 -14 149.5t-44 129.5
t-84 95t-127 35q-74 0 -128 -35t-83.5 -95t-43 -129.5t-13.5 -149.5z" />
    <glyph glyph-name="p" unicode="p" horiz-adv-x="1077" 
d="M973 514q0 -108 -23 -198t-60.5 -150.5t-87.5 -102t-103.5 -60.5t-108.5 -19q-132 0 -260 84v-406q0 -55 -16 -78.5t-66 -23.5h-55l-13 12v1427l13 13h53q50 0 67 -26t17 -83v-10q56 62 133 99.5t166 37.5q165 0 254.5 -140.5t89.5 -375.5zM600 897q-73 0 -146.5 -43.5
t-123.5 -120.5v-526q133 -92 245 -92q102 0 173 100t71 299q0 193 -63 288t-156 95z" />
    <glyph glyph-name="q" unicode="q" horiz-adv-x="1073" 
d="M745 -338v449q-127 -127 -292 -127q-168 0 -258.5 139t-90.5 377q0 133 34 238t90 167t122 93.5t135 31.5q163 0 289 -106q31 67 109 96q22 -11 40.5 -34t26.5 -46q-57 -55 -57 -219v-1149l-12 -12h-56q-48 0 -64 23.5t-16 78.5zM475 115q74 0 146.5 40t123.5 105v510
q0 3 -0.5 9.5t-0.5 12t1 9.5q-117 98 -239 98q-105 0 -176.5 -100t-71.5 -299q0 -192 61.5 -288.5t155.5 -96.5z" />
    <glyph glyph-name="r" unicode="r" horiz-adv-x="722" 
d="M125 934q6 22 25 47.5t40 38.5q116 -43 148 -182q38 81 107 130.5t167 49.5q43 0 95 -8q0 -89 -35 -144q-25 2 -72 2q-165 0 -250 -186v-682q-30 -6 -74 -6q-47 0 -77 6v725q0 71 -21.5 125.5t-52.5 83.5z" />
    <glyph glyph-name="s" unicode="s" horiz-adv-x="888" 
d="M76 78q1 28 18.5 59.5t40.5 50.5q168 -94 291 -94q96 0 155.5 44.5t61.5 115.5q0 51 -39 94.5t-110 69.5l-115 45q-262 98 -262 285q0 128 99 205t243 77q74 0 160.5 -19t150.5 -48q0 -31 -13 -64.5t-34 -54.5q-143 63 -268 63q-80 0 -131.5 -41t-51.5 -108q0 -51 37 -85
t117 -65l121 -47q122 -47 188 -118.5t66 -178.5q0 -134 -104.5 -211.5t-272.5 -77.5q-185 0 -348 103z" />
    <glyph glyph-name="t" unicode="t" horiz-adv-x="690" 
d="M625 1006q6 -30 6 -58q0 -29 -6 -59l-260 2v-688q0 -86 79 -86h156q14 -35 14 -82q0 -23 -4 -31q-94 -12 -207 -12q-87 0 -136.5 44t-49.5 126v729l-145 -2q-6 30 -6 59q0 28 6 58l145 -2v215q0 55 16 78.5t64 23.5h55l13 -12v-308z" />
    <glyph glyph-name="u" unicode="u" horiz-adv-x="1118" 
d="M170 301v510q0 109 -25 174q37 33 97 33q42 0 59.5 -24t17.5 -76v-568q0 -126 32.5 -178.5t119.5 -52.5q77 0 165 44t148 113v728q27 8 74 8q51 0 78 -8v-721q0 -78 11 -132.5t46 -87.5q-8 -23 -27 -45t-42 -32q-102 36 -129 151q-70 -70 -167.5 -112.5t-195.5 -42.5
q-137 0 -199.5 88t-62.5 231z" />
    <glyph glyph-name="v" unicode="v" horiz-adv-x="905" 
d="M469 131l274 875q33 8 62 8q22 0 76 -13l4 -6q-181 -563 -336 -995q-41 -10 -107 -10q-48 0 -70 17.5t-44 80.5l-305 905q55 27 92 27q59 0 75 -59l164 -488q67 -210 97 -326q3 -11 6 -13.5t12 -2.5z" />
    <glyph glyph-name="w" unicode="w" horiz-adv-x="1441" 
d="M287 88l-221 907q57 25 94 25q56 0 69 -62l109 -475q37 -160 74 -352q4 -18 16 -18l207 891q30 6 92 6t92 -6l195 -873q3 -12 5.5 -15t10.5 -3q47 216 84 370l123 523q24 8 72 8q42 0 71 -13l4 -6l-254 -997q-44 -6 -118 -6q-48 0 -76.5 18.5t-40.5 77.5l-72 320
q-9 40 -41.5 201.5t-52.5 246.5h-8q-27 -132 -98 -446l-99 -410q-47 -8 -129 -8q-42 0 -68 18.5t-40 77.5z" />
    <glyph glyph-name="x" unicode="x" horiz-adv-x="919" 
d="M684 1004q20 10 66 10q47 0 73 -15l6 -12l-288 -455l333 -509q-60 -37 -106 -37q-48 0 -76 45l-243 377l-256 -410q-20 -8 -68 -8q-46 0 -74 14l-6 12l326 510l-297 459q56 37 104 37q47 0 76 -47l211 -326z" />
    <glyph glyph-name="y" unicode="y" horiz-adv-x="925" 
d="M893 995l-281 -960q-31 -106 -58.5 -177.5t-63.5 -133.5t-78.5 -97t-99.5 -54t-130 -19q-90 0 -166 26q-3 26 7.5 58t25.5 53q67 -23 135 -23q57 0 100 20.5t74 63.5t52.5 93t44.5 126l6 21q-54 3 -81.5 23.5t-45.5 76.5l-287 901q66 27 90 27q59 0 80 -72l162 -514
q21 -65 56.5 -188.5t37.5 -130.5q5 -15 21 -15l249 906q27 8 70 8t76 -13z" />
    <glyph glyph-name="z" unicode="z" horiz-adv-x="909" 
d="M111 158l385 528q9 12 159 199l-6 6q-82 -10 -282 -10h-246q-4 18 -4 53q0 37 8 70h668q26 -64 26 -97q0 -25 -24 -59l-379 -516q-56 -75 -162 -207l6 -6q108 6 205 6h113q169 0 237 25q12 -35 12 -72q0 -39 -24.5 -58.5t-85.5 -19.5h-608q-25 74 -25 94q0 28 27 64z" />
    <glyph glyph-name="braceleft" unicode="{" horiz-adv-x="651" 
d="M84 717q72 28 118 92.5t46 157.5v358q0 134 73.5 215t196.5 102l88 15q16 -18 24 -51t1 -60l-88 -28q-137 -40 -137 -195v-352q0 -95 -45 -179t-119 -120v-17q74 -36 119 -119.5t45 -177.5v-356q0 -152 137 -195l88 -26q7 -28 -1 -60.5t-24 -52.5l-88 15
q-122 21 -196 102.5t-74 214.5v362q0 91 -46 155.5t-118 94.5q-8 19 -8 52.5t8 52.5z" />
    <glyph glyph-name="bar" unicode="|" horiz-adv-x="505" 
d="M180 -287v1874q30 6 72 6q40 0 74 -6v-1874q-34 -6 -74 -6q-42 0 -72 6z" />
    <glyph glyph-name="braceright" unicode="}" horiz-adv-x="651" 
d="M565 717q9 -19 9 -52.5t-9 -52.5q-72 -30 -118 -94.5t-46 -155.5v-362q0 -133 -74 -214.5t-196 -102.5l-86 -15q-17 19 -25 51.5t-2 61.5l91 26q137 43 137 195v356q0 94 45 177.5t119 119.5v17q-74 36 -119 120t-45 179v352q0 155 -137 195l-91 28q-6 28 2 61t25 50
l86 -15q123 -21 196.5 -102t73.5 -215v-358q0 -93 46 -157.5t118 -92.5z" />
    <glyph glyph-name="asciitilde" unicode="~" horiz-adv-x="1146" 
d="M535 696l157 -71q66 -27 113 -27q73 0 131 74l31 39q27 -2 53.5 -18t36.5 -40l-21 -37q-82 -163 -256 -163q-81 0 -168 41l-157 71q-58 25 -113 25q-73 0 -129 -72l-33 -39q-27 2 -53.5 18t-36.5 40l21 36q83 164 256 164q81 0 168 -41z" />
    <glyph glyph-name="exclamdown" unicode="&#xa1;" horiz-adv-x="567" 
d="M346 623l14 -985q-66 -46 -163 -46l-13 13l39 1018q24 8 62 8q37 0 61 -8zM285 813q-62 0 -97 21q-16 22 -16 81q0 60 16 82q33 23 97 23q58 0 96 -23q14 -25 14 -82t-14 -81q-40 -21 -96 -21z" />
    <glyph glyph-name="cent" unicode="&#xa2;" horiz-adv-x="964" 
d="M442 -61v204q-90 13 -157.5 62t-105.5 123t-56.5 157.5t-18.5 176.5q0 234 97 367.5t248 160.5v203q24 6 67 6t70 -6v-201q74 -10 132 -43t90 -76t48 -86t16 -82q0 -46 -17 -71t-64 -25q-30 0 -64 6q3 47 -6.5 90.5t-32.5 82.5t-68.5 62t-107.5 23q-113 0 -178.5 -106.5
t-65.5 -304.5q0 -194 66.5 -292t191.5 -98q128 0 258 117q24 -12 47.5 -38t32.5 -50q-112 -131 -284 -158v-204q-45 -5 -70 -5q-28 0 -68 5z" />
    <glyph glyph-name="sterling" unicode="&#xa3;" horiz-adv-x="1073" 
d="M438 522q0 -175 -149 -389l6 -6q17 1 57 3t85 3.5t100 1.5h448q0 -38 -4 -63q-15 -72 -100 -72h-736q-24 71 -24 104q0 46 24 78l37 58q105 156 105 286q0 6 -1 18.5t-1 18.5q-53 -2 -156 -2q-12 56 0 125q84 0 125 -2q-9 24 -28 72.5t-30 79t-20.5 75t-9.5 84.5
q0 65 23 126.5t68.5 114t122 84.5t173.5 32q122 0 222 -43t167 -101q-2 -32 -26.5 -66t-55.5 -44q-67 56 -149 88.5t-148 32.5q-103 0 -171 -62t-68 -166q0 -49 12 -97t38.5 -118t33.5 -92q52 0 180 1t211 1q16 -62 0 -125q-62 0 -182.5 1t-180.5 1q0 -7 1 -21t1 -20z" />
    <glyph glyph-name="currency" unicode="&#xa4;" horiz-adv-x="1159" 
d="M145 686q0 139 78 254l-147 158q34 60 90 90l158 -148q111 78 256 78q138 0 251 -76l160 148q27 -14 52 -38.5t38 -51.5l-147 -158q80 -118 80 -256q0 -139 -78 -254l147 -158q-26 -50 -90 -90l-157 148q-115 -78 -256 -78t-256 78l-158 -148q-53 30 -90 90l147 158
q-78 115 -78 254zM305 686q0 -130 76 -220.5t199 -90.5t198.5 90.5t75.5 220.5t-76 221.5t-198 91.5q-123 0 -199 -91.5t-76 -221.5z" />
    <glyph glyph-name="yen" unicode="&#xa5;" horiz-adv-x="1019" 
d="M899 375h-313v-375q-34 -6 -80 -6q-44 0 -74 6v375h-313q-8 27 -8 55q0 32 8 59h305l-80 181h-225q-8 27 -8 55q0 32 8 59h174l-234 531q52 31 105 31q51 0 82 -66l182 -444q29 -61 82 -218h10q7 19 24 67t31.5 87t26.5 64l207 497q38 10 70 10q42 0 75 -8l7 -12
l-238 -539h176q6 -30 6 -59q0 -25 -6 -55h-227l-78 -181h305q6 -30 6 -59q0 -25 -6 -55z" />
    <glyph glyph-name="brokenbar" unicode="&#xa6;" horiz-adv-x="493" 
d="M176 -287v793q27 6 70 6q38 0 73 -6v-793q-34 -6 -73 -6q-43 0 -70 6zM176 795v792q27 6 70 6q38 0 73 -6v-792q-40 -7 -73 -7q-38 0 -70 7z" />
    <glyph glyph-name="section" unicode="&#xa7;" horiz-adv-x="976" 
d="M909 616q0 -96 -63.5 -176t-163.5 -129q145 -91 145 -241q0 -128 -101.5 -204.5t-258.5 -76.5q-85 0 -176.5 24t-149.5 62q-1 29 16.5 64t39.5 51q147 -78 276 -78q92 0 145.5 40t53.5 109q0 53 -38.5 90t-115.5 68l-121 47q-72 28 -123 55.5t-101 67t-75.5 92
t-25.5 117.5q0 96 62 175t161 128q-143 96 -143 242q0 127 100 203.5t246 76.5q74 0 159 -19.5t148 -49.5q0 -31 -13 -64.5t-34 -54.5q-148 65 -264 65q-81 0 -133 -40.5t-52 -108.5q0 -53 38.5 -90t115.5 -68l119 -47q73 -29 123.5 -55.5t101 -65.5t76.5 -91.5t26 -117.5z
M528 799l-114 41q-185 -87 -185 -224q0 -37 18 -68t53 -55.5t68.5 -41t82.5 -35.5l110 -45q191 88 191 225q0 38 -18 69.5t-53 56t-69.5 41.5t-83.5 36z" />
    <glyph glyph-name="dieresis" unicode="&#xa8;" 
d="M494 1241q0 35 14 70q32 18 82 18q51 0 80 -18q14 -35 14 -70q0 -39 -14 -70q-25 -18 -80 -18q-53 0 -82 18q-14 35 -14 70zM131 1241q0 35 14 70q29 18 80 18q50 0 82 -18q15 -38 15 -70q0 -36 -15 -70q-29 -18 -82 -18q-20 0 -45 5.5t-35 12.5q-14 35 -14 70z" />
    <glyph glyph-name="copyright" unicode="&#xa9;" horiz-adv-x="1658" 
d="M92 698q0 205 96.5 374.5t265 266.5t373.5 97q153 0 290.5 -57t236 -155.5t156 -235.5t57.5 -290q0 -205 -97.5 -373.5t-267.5 -265t-375 -96.5t-373.5 96.5t-265 265t-96.5 373.5zM236 698q0 -168 76 -309.5t212.5 -225t302.5 -83.5q168 0 305 83.5t214 225t77 309.5
t-77 310.5t-214.5 226.5t-304.5 84q-166 0 -302.5 -84t-212.5 -226t-76 -311zM1006 797q4 49 -11 93.5t-58 76.5t-108 32q-96 0 -152 -78t-56 -223q0 -141 58.5 -218t160.5 -77q58 0 117.5 26t105.5 67q44 -21 67 -80q-56 -57 -139 -93t-168 -36q-160 0 -255 112.5
t-95 298.5q0 101 31 182.5t83 131.5t115.5 76t131.5 26q76 0 137.5 -25t96.5 -63.5t53 -80t18 -79.5q0 -80 -72 -80q-32 0 -61 11z" />
    <glyph glyph-name="ordfeminine" unicode="&#xaa;" horiz-adv-x="831" 
d="M729 696q-5 -17 -23 -37t-40 -30q-80 27 -101 102q-120 -108 -248 -108q-113 0 -174 68t-61 161q0 126 80.5 189t220.5 63q77 0 172 -10v61q0 152 -133 152q-126 0 -266 -62q-19 16 -33 45.5t-14 59.5q171 73 321 73q252 0 252 -262v-311q0 -56 9.5 -91.5t37.5 -62.5z
M336 731q52 0 111.5 30.5t107.5 84.5v145q-119 13 -174 13q-74 0 -118 -39t-44 -103q0 -55 31.5 -93t85.5 -38z" />
    <glyph glyph-name="guillemotleft" unicode="&#xab;" horiz-adv-x="1077" 
d="M985 864l-301 -340l313 -352q-10 -26 -35 -49.5t-53 -34.5l-401 381q-8 22 -8 53t8 53l389 373q28 -11 53 -34.5t35 -49.5zM565 864l-301 -340l314 -352q-10 -26 -35.5 -49.5t-53.5 -34.5l-401 381q-8 22 -8 53t8 53l389 373q28 -11 53 -34.5t35 -49.5z" />
    <glyph glyph-name="logicalnot" unicode="&#xac;" horiz-adv-x="1085" 
d="M111 678h837l15 -12v-441q-30 -6 -76 -6q-41 0 -76 6v236q0 10 1 38t1 40q-13 0 -41 -1t-37 -1h-624q-9 27 -9 69q0 38 9 72z" />
    <glyph glyph-name="uni00AD" unicode="&#xad;" horiz-adv-x="686" 
d="M580 473h-471q-9 27 -9 68q0 39 9 73h471q6 -35 6 -73q0 -41 -6 -68z" />
    <glyph glyph-name="registered" unicode="&#xae;" horiz-adv-x="1204" 
d="M78 997q0 144 69.5 265t189.5 190.5t263 69.5q144 0 264.5 -69.5t190 -190.5t69.5 -265t-69.5 -264t-190 -189t-264.5 -69q-143 0 -263 69t-189.5 189t-69.5 264zM195 997q0 -174 117 -294.5t288 -120.5q174 0 292 120.5t118 294.5t-118 296t-292 122q-171 0 -288 -122
t-117 -296zM803 1106q0 -51 -30.5 -85t-74.5 -48q8 -4 16 -10t13 -10.5t12 -15.5t9 -14.5t9.5 -17.5t8.5 -16l33 -58q20 -37 43 -55q-21 -41 -72 -41q-42 0 -72 62l-53 100q-21 43 -65 43h-64v-195q-53 -15 -106 0v506l6 6q152 5 196 5q93 0 142 -41t49 -115zM516 1178v-152
h86q47 0 69.5 21t22.5 55q0 33 -21 54.5t-63 21.5h-94z" />
    <glyph glyph-name="macron" unicode="&#xaf;" 
d="M680 1184h-545q-6 27 -6 65q0 40 6 70h545q6 -30 6 -70q0 -38 -6 -65z" />
    <glyph glyph-name="degree" unicode="&#xb0;" horiz-adv-x="643" 
d="M41 1087q0 122 80.5 203.5t200.5 81.5t200 -81.5t80 -203.5t-80 -203t-200 -81t-200.5 81.5t-80.5 202.5zM168 1087q0 -74 42 -121.5t112 -47.5q68 0 109.5 47.5t41.5 121.5q0 73 -41.5 121.5t-109.5 48.5q-69 0 -111.5 -48.5t-42.5 -121.5z" />
    <glyph glyph-name="plusminus" unicode="&#xb1;" horiz-adv-x="1085" 
d="M467 829v256q40 7 76 7q40 0 75 -7v-256q0 -10 -1 -37.5t-1 -39.5q10 0 38 1t38 1h252q6 -34 6 -70q0 -43 -6 -70h-252q-10 0 -38 1t-38 1q0 -13 1 -40.5t1 -36.5v-260q-35 -7 -75 -7q-36 0 -76 7v260q0 9 1 36.5t1 40.5q-12 0 -39 -1t-37 -1h-252q-6 27 -6 70q0 36 6 70
h252q10 0 37 -1t39 -1q0 12 -1 39.5t-1 37.5zM944 0h-803q-6 38 -6 70q0 31 6 71h803q6 -40 6 -71q0 -32 -6 -70z" />
    <glyph glyph-name="twosuperior" unicode="&#xb2;" horiz-adv-x="860" 
d="M705 840q0 -33 -3 -60q-10 -63 -69 -63h-455q-1 1 -8 9l-10.5 12t-10 12.5t-10 15.5t-6 16t-2.5 17q0 57 46.5 123t121.5 125l129 106q62 49 87.5 87t25.5 89q0 56 -37 92.5t-94 36.5q-52 0 -94 -34.5t-68 -92.5q-30 5 -60 20t-43 33q32 83 103.5 138t171.5 55
q117 0 189.5 -72.5t72.5 -173.5q0 -61 -23 -111.5t-55.5 -84.5t-89.5 -80l-115 -92q-99 -81 -118 -132q76 9 141 9h283z" />
    <glyph glyph-name="threesuperior" unicode="&#xb3;" horiz-adv-x="860" 
d="M643 1440l-135 -142q-23 -26 -59 -51h12q103 0 172 -71t69 -189q0 -70 -27.5 -125.5t-73 -88t-99.5 -49.5t-111 -17q-165 0 -270 84q9 61 51 98q106 -68 203 -68q83 0 135.5 42.5t52.5 123.5q0 74 -41 120t-114 46q-49 0 -101 -25q-41 16 -51 74l176 187q35 39 72 63
l-4 6q-55 -10 -160 -10h-182q-6 30 -6 57q0 37 8 58h483q23 -38 23 -72q0 -28 -23 -51z" />
    <glyph glyph-name="acute" unicode="&#xb4;" 
d="M274 1163l281 316q40 -12 75 -44.5t50 -70.5l-334 -266q-23 6 -43 24.5t-29 40.5z" />
    <glyph glyph-name="paragraph" unicode="&#xb6;" horiz-adv-x="1284" 
d="M600 119v413h-45q-205 0 -328 114.5t-123 324.5q0 213 123.5 324.5t327.5 111.5q76 0 190 -6l13 -12v-1250q0 -130 -17.5 -212.5t-68.5 -139.5q-88 -100 -262 -100q-63 0 -134 14.5t-114 32.5q0 29 13 66t30 59q100 -45 192 -45q112 0 162 69q41 58 41 236zM895 -274
v1660l12 13h310q7 -25 7 -69.5t-7 -69.5h-97q-47 0 -67 2v-1536q-40 -7 -80 -7q-43 0 -78 7z" />
    <glyph glyph-name="periodcentered" unicode="&#xb7;" horiz-adv-x="595" 
d="M182 578q0 21 5 50t12 40q40 22 98 22q24 0 56 -7t44 -15q7 -11 12 -40t5 -50q0 -60 -17 -91q-10 -7 -42.5 -13.5t-57.5 -6.5q-62 0 -98 20q-17 31 -17 91z" />
    <glyph glyph-name="cedilla" unicode="&#xb8;" 
d="M309 -147q20 76 53 147h115q-24 -49 -35 -82q78 -6 129.5 -53.5t51.5 -124.5q0 -81 -64 -135t-160 -54q-97 0 -153 39q2 43 37 91q49 -29 106 -29q51 0 75.5 25.5t24.5 64.5t-24.5 63.5t-73.5 24.5q-28 0 -51 -10q-23 10 -31 33z" />
    <glyph glyph-name="onesuperior" unicode="&#xb9;" horiz-adv-x="860" 
d="M152 1292q184 106 260 271q31 8 65 8q26 0 62 -8v-729q10 0 47 1t49 1h74q6 -24 6 -56q0 -29 -6 -59h-514q-7 40 -7 59q0 28 7 56h116q11 0 46.5 -1t48.5 -1v411q0 31 4 109q-67 -90 -203 -150q-21 12 -36.5 36.5t-18.5 51.5z" />
    <glyph glyph-name="ordmasculine" unicode="&#xba;" horiz-adv-x="796" 
d="M729 1024q0 -202 -111 -322q-85 -79 -221 -79q-134 0 -219 79q-112 118 -112 322q0 201 112 319q86 80 219 80q135 0 221 -80q111 -120 111 -319zM207 1024q0 -59 10 -109t31.5 -91.5t60 -65t90.5 -23.5q67 0 111.5 42t62 104.5t17.5 142.5q0 79 -17.5 141.5t-62 106
t-111.5 43.5q-52 0 -90.5 -24.5t-60 -66.5t-31.5 -92t-10 -108z" />
    <glyph glyph-name="guillemotright" unicode="&#xbb;" horiz-adv-x="1077" 
d="M92 172l303 340l-315 352q12 26 37 50t53 34l399 -381q9 -20 9 -52t-9 -54l-387 -373q-28 10 -53 34t-37 50zM512 172l303 340l-315 352q12 26 37 50t53 34l399 -381q9 -20 9 -52t-9 -54l-387 -373q-28 10 -53 34t-37 50z" />
    <glyph glyph-name="onequarter" unicode="&#xbc;" horiz-adv-x="1814" 
d="M84 1128q184 106 260 271q31 8 66 8q25 0 61 -8v-729q10 0 47 1t49 1h74q6 -24 6 -56q0 -29 -6 -59h-514q-6 35 -6 59q0 32 6 56h117q11 0 46 -1t48 -1v411q0 31 4 109q-67 -90 -203 -150q-21 12 -36.5 36.5t-18.5 51.5zM520 0l772 1399q25 11 76 11t76 -11l-770 -1399
q-26 -10 -77.5 -10t-76.5 10zM1454 0v168h-328q-30 49 -30 80q0 28 30 90l244 512q31 5 69.5 -4t55.5 -27l-182 -395q-50 -102 -74 -135l2 -4q45 2 119 2h94v147q0 42 23 67t59 25h45l2 -4v-235h135q6 -21 6 -54q0 -41 -12 -65h-129v-168q-19 -8 -61 -8q-44 0 -68 8z" />
    <glyph glyph-name="onehalf" unicode="&#xbd;" horiz-adv-x="1814" 
d="M487 0l773 1399q25 11 75.5 11t75.5 -11l-770 -1399q-26 -10 -77.5 -10t-76.5 10zM84 1128q184 106 260 271q31 8 66 8q25 0 61 -8v-729q10 0 47 1t49 1h74q6 -24 6 -56q0 -29 -6 -59h-514q-6 35 -6 59q0 32 6 56h117q11 0 46 -1t48 -1v411q0 31 4 109q-67 -90 -203 -150
q-21 12 -36.5 36.5t-18.5 51.5zM1708 117q0 -42 -2 -60q-10 -63 -70 -63h-454q-1 1 -8 9l-10.5 12t-10 12.5t-10 15.5t-6 16t-2.5 17q0 57 46.5 123t121.5 125l129 106q62 49 87 87t25 89q0 56 -37 92.5t-94 36.5q-52 0 -94 -34.5t-68 -92.5q-30 5 -59.5 20t-42.5 34
q32 83 103 137.5t171 54.5q117 0 190 -72.5t73 -173.5q0 -61 -23 -111.5t-55.5 -84.5t-89.5 -80l-115 -92q-101 -83 -119 -131q68 8 141 8h283z" />
    <glyph glyph-name="threequarters" unicode="&#xbe;" horiz-adv-x="1814" 
d="M506 0l772 1399q25 11 76 11t76 -11l-771 -1399q-26 -10 -77 -10t-76 10zM635 1280l-135 -141q-24 -26 -60 -52h13q103 0 172 -71t69 -189q0 -70 -27.5 -125.5t-73 -88t-99.5 -49.5t-111 -17q-165 0 -270 84q9 61 51 98q105 -67 203 -67q83 0 135.5 42t52.5 123
q0 74 -41.5 120t-114.5 46q-50 0 -100 -24q-41 17 -51 73l176 187q35 39 72 63l-4 6q-55 -10 -160 -10h-182q-7 35 -7 58q0 33 9 57h483q22 -37 22 -72q0 -29 -22 -51zM1462 0v168h-327q-31 51 -31 80q0 26 31 90l243 512q31 5 69.5 -4t55.5 -27l-182 -395
q-50 -102 -74 -135l2 -4q45 2 119 2h94v147q0 42 23 67t59 25h45l2 -4v-235h135q7 -25 7 -54q0 -39 -13 -65h-129v-168q-19 -8 -61 -8q-44 0 -68 8z" />
    <glyph glyph-name="questiondown" unicode="&#xbf;" horiz-adv-x="782" 
d="M750 -322q-184 -96 -373 -96q-159 0 -258 91.5t-99 244.5q0 238 267 391l131 76l14 238q24 8 57 8q40 0 64 -8l8 -306l-14 -18l-92 -49q-132 -71 -200.5 -147t-68.5 -171q0 -96 61 -153.5t163 -57.5q124 0 284 78q20 -20 36.5 -54.5t19.5 -66.5zM492 813q-59 0 -99 21
q-14 24 -14 81t14 82q38 23 99 23t94 -23q16 -22 16 -82q0 -59 -16 -81q-35 -21 -94 -21z" />
    <glyph glyph-name="Agrave" unicode="&#xc0;" horiz-adv-x="1220" 
d="M465 362q-5 0 -64.5 1.5t-78.5 1.5l-119 -367q-27 -6 -70 -6q-34 0 -76 10l-4 6l469 1391q35 6 90 6q59 0 86 -6l469 -1391q-33 -20 -92 -20q-39 0 -59 17t-35 65l-98 295q-19 0 -80 -1.5t-64 -1.5h-274zM526 985l-159 -487q18 0 66 1t52 1h236q2 0 50 -1t69 -1l-129 389
q-77 239 -105 342h-10q-32 -128 -70 -244zM430 1806l391 -227q-13 -62 -49 -86l-420 176q6 41 28 80.5t50 56.5z" />
    <glyph glyph-name="Aacute" unicode="&#xc1;" horiz-adv-x="1220" 
d="M465 362q-5 0 -64.5 1.5t-78.5 1.5l-119 -367q-27 -6 -70 -6q-34 0 -76 10l-4 6l469 1391q35 6 90 6q59 0 86 -6l469 -1391q-33 -20 -92 -20q-39 0 -59 17t-35 65l-98 295q-19 0 -80 -1.5t-64 -1.5h-274zM526 985l-159 -487q18 0 66 1t52 1h236q2 0 50 -1t69 -1l-129 389
q-77 239 -105 342h-10q-32 -128 -70 -244zM430 1579l391 227q27 -17 48.5 -56t29.5 -81l-420 -176q-19 13 -32.5 37.5t-16.5 48.5z" />
    <glyph glyph-name="Acircumflex" unicode="&#xc2;" horiz-adv-x="1220" 
d="M465 362q-5 0 -64.5 1.5t-78.5 1.5l-119 -367q-27 -6 -70 -6q-34 0 -76 10l-4 6l469 1391q35 6 90 6q59 0 86 -6l469 -1391q-33 -20 -92 -20q-39 0 -59 17t-35 65l-98 295q-19 0 -80 -1.5t-64 -1.5h-274zM526 985l-159 -487q18 0 66 1t52 1h236q2 0 50 -1t69 -1l-129 389
q-77 239 -105 342h-10q-32 -128 -70 -244zM834 1511l-224 154l-231 -166q-23 10 -43.5 30.5t-26.5 43.5l228 221q72 11 145 0l227 -211q-9 -26 -30.5 -46t-44.5 -26z" />
    <glyph glyph-name="Atilde" unicode="&#xc3;" horiz-adv-x="1220" 
d="M465 362q-5 0 -64.5 1.5t-78.5 1.5l-119 -367q-27 -6 -70 -6q-34 0 -76 10l-4 6l469 1391q35 6 90 6q59 0 86 -6l469 -1391q-33 -20 -92 -20q-39 0 -59 17t-35 65l-98 295q-19 0 -80 -1.5t-64 -1.5h-274zM526 985l-159 -487q18 0 66 1t52 1h236q2 0 50 -1t69 -1l-129 389
q-77 239 -105 342h-10q-32 -128 -70 -244zM645 1546l-125 60q-41 18 -69 18q-43 0 -86 -51l-25 -33q-25 1 -47 14.5t-31 32.5l17 41q26 62 76.5 97.5t109.5 35.5q52 0 110 -28l125 -60q36 -18 70 -18q42 0 86 51l25 33q24 -1 45 -15.5t32 -35.5l-16 -39q-30 -65 -79.5 -98
t-106.5 -33q-53 0 -111 28z" />
    <glyph glyph-name="Adieresis" unicode="&#xc4;" horiz-adv-x="1220" 
d="M465 362q-5 0 -64.5 1.5t-78.5 1.5l-119 -367q-27 -6 -70 -6q-34 0 -76 10l-4 6l469 1391q35 6 90 6q59 0 86 -6l469 -1391q-33 -20 -92 -20q-39 0 -59 17t-35 65l-98 295q-19 0 -80 -1.5t-64 -1.5h-274zM526 985l-159 -487q18 0 66 1t52 1h236q2 0 50 -1t69 -1l-129 389
q-77 239 -105 342h-10q-32 -128 -70 -244zM813 1692q52 0 86 -17q12 -40 12 -73q0 -36 -12 -76q-28 -17 -86 -17q-61 0 -84 17q-16 36 -16 76q0 37 16 73q27 17 84 17zM408 1692q57 0 84 -17q14 -38 14 -73q0 -38 -14 -76q-23 -17 -84 -17q-58 0 -86 17q-13 44 -13 76
q0 29 13 73q34 17 86 17z" />
    <glyph glyph-name="Aring" unicode="&#xc5;" horiz-adv-x="1220" 
d="M465 362q-5 0 -64.5 1.5t-78.5 1.5l-119 -367q-27 -6 -70 -6q-34 0 -76 10l-4 6l467 1383q-62 26 -97.5 79.5t-35.5 120.5q0 89 64 152t159 63q97 0 161.5 -63t64.5 -152q0 -67 -37 -121t-99 -79l467 -1383q-33 -20 -92 -20q-39 0 -59 17t-35 65l-98 295q-19 0 -80 -1.5
t-64 -1.5h-274zM526 985l-159 -487q18 0 66 1t52 1h236q2 0 50 -1t69 -1l-129 389q-77 239 -105 342h-10q-32 -128 -70 -244zM506 1591q0 -51 29.5 -83.5t74.5 -32.5t75 32.5t30 83.5q0 49 -30.5 82t-74.5 33t-74 -33t-30 -82z" />
    <glyph glyph-name="AE" unicode="&#xc6;" horiz-adv-x="1783" 
d="M516 362q-3 0 -54.5 1.5t-70.5 1.5l-186 -367q-35 -6 -82 -6q-34 0 -76 10l-4 6l709 1374q38 17 94 17h792q4 -25 4 -64q0 -41 -12 -71h-522h-123q0 -26 1 -63t1 -64v-363q23 0 64.5 1t56.5 1h424q6 -37 6 -67q0 -33 -6 -68h-424q-78 0 -121 2v-432q0 -15 -1 -40t-1 -38
q74 4 125 4h561q0 -42 -4 -65q-12 -72 -100 -72h-643q-41 0 -65.5 27.5t-24.5 74.5v263q-19 0 -75.5 -1.5t-58.5 -1.5h-184zM709 985l-250 -487q18 0 56 1t40 1h147q2 0 57.5 -1t74.5 -1v733l-3 -2h-10q-21 -51 -112 -244z" />
    <glyph glyph-name="Ccedilla" unicode="&#xc7;" horiz-adv-x="1228" 
d="M545 -147q18 65 43 124q-99 7 -179 50t-134 110.5t-90 157.5t-52 189t-16 208q0 184 43 327t118 229.5t170.5 130.5t206.5 44q107 0 199 -33.5t152 -88.5t93.5 -123.5t33.5 -139.5q0 -92 -89 -92q-33 0 -69 10q1 46 -8.5 91t-33 90t-59.5 79t-92.5 55t-126.5 21
q-180 0 -276 -153.5t-96 -446.5q0 -273 98.5 -426t271.5 -153q188 0 375 161q29 -17 53 -45.5t33 -56.5q-75 -76 -181 -127.5t-228 -64.5q-19 -38 -27 -62q79 -6 130.5 -53.5t51.5 -124.5q0 -81 -64.5 -135t-160.5 -54q-98 0 -154 39q3 46 39 91q45 -29 105 -29
q52 0 77 25.5t25 64.5t-25 63.5t-75 24.5q-26 0 -49 -10q-10 5 -20 14.5t-13 18.5z" />
    <glyph glyph-name="Egrave" unicode="&#xc8;" horiz-adv-x="1153" 
d="M1040 137q0 -42 -4 -65q-15 -72 -100 -72h-645q-40 0 -64 27.5t-24 74.5v1284l12 13h791q4 -25 4 -64q0 -37 -11 -71h-522q-10 0 -34.5 -0.5t-47.5 -0.5t-43 1q0 -26 1 -63t1 -64v-363q24 0 66 1t57 1h424q6 -37 6 -67q0 -33 -6 -68h-424q-78 0 -123 2v-432q0 -15 -1 -40
t-1 -38q70 4 127 4h561zM432 1806l391 -227q-13 -62 -49 -86l-420 176q6 41 28 80.5t50 56.5z" />
    <glyph glyph-name="Eacute" unicode="&#xc9;" horiz-adv-x="1153" 
d="M1040 137q0 -42 -4 -65q-15 -72 -100 -72h-645q-40 0 -64 27.5t-24 74.5v1284l12 13h791q4 -25 4 -64q0 -37 -11 -71h-522q-10 0 -34.5 -0.5t-47.5 -0.5t-43 1q0 -26 1 -63t1 -64v-363q24 0 66 1t57 1h424q6 -37 6 -67q0 -33 -6 -68h-424q-78 0 -123 2v-432q0 -15 -1 -40
t-1 -38q70 4 127 4h561zM432 1579l391 227q27 -17 48.5 -56t29.5 -81l-420 -176q-19 13 -32.5 37.5t-16.5 48.5z" />
    <glyph glyph-name="Ecircumflex" unicode="&#xca;" horiz-adv-x="1153" 
d="M1040 137q0 -42 -4 -65q-15 -72 -100 -72h-645q-40 0 -64 27.5t-24 74.5v1284l12 13h791q4 -25 4 -64q0 -37 -11 -71h-522q-10 0 -34.5 -0.5t-47.5 -0.5t-43 1q0 -26 1 -63t1 -64v-363q24 0 66 1t57 1h424q6 -37 6 -67q0 -33 -6 -68h-424q-78 0 -123 2v-432q0 -15 -1 -40
t-1 -38q70 4 127 4h561zM836 1511l-224 154l-231 -166q-23 10 -43.5 30.5t-26.5 43.5l228 221q72 11 145 0l227 -211q-9 -26 -30.5 -46t-44.5 -26z" />
    <glyph glyph-name="Edieresis" unicode="&#xcb;" horiz-adv-x="1153" 
d="M1040 137q0 -42 -4 -65q-15 -72 -100 -72h-645q-40 0 -64 27.5t-24 74.5v1284l12 13h791q4 -25 4 -64q0 -37 -11 -71h-522q-10 0 -34.5 -0.5t-47.5 -0.5t-43 1q0 -26 1 -63t1 -64v-363q24 0 66 1t57 1h424q6 -37 6 -67q0 -33 -6 -68h-424q-78 0 -123 2v-432q0 -15 -1 -40
t-1 -38q70 4 127 4h561zM815 1692q52 0 86 -17q12 -40 12 -73q0 -36 -12 -76q-28 -17 -86 -17q-61 0 -84 17q-16 36 -16 76q0 37 16 73q27 17 84 17zM410 1692q57 0 84 -17q14 -38 14 -73q0 -38 -14 -76q-23 -17 -84 -17q-58 0 -86 17q-13 44 -13 76q0 29 13 73q34 17 86 17
z" />
    <glyph glyph-name="Igrave" unicode="&#xcc;" horiz-adv-x="577" 
d="M211 0v1399q27 6 76 6q45 0 80 -6v-1399q-35 -6 -80 -6q-49 0 -76 6zM109 1806l391 -227q-13 -62 -49 -86l-420 176q6 41 28 80.5t50 56.5z" />
    <glyph glyph-name="Iacute" unicode="&#xcd;" horiz-adv-x="577" 
d="M211 0v1399q27 6 76 6q45 0 80 -6v-1399q-35 -6 -80 -6q-49 0 -76 6zM109 1579l391 227q27 -17 48.5 -56t29.5 -81l-420 -176q-19 13 -32.5 37.5t-16.5 48.5z" />
    <glyph glyph-name="Icircumflex" unicode="&#xce;" horiz-adv-x="577" 
d="M211 0v1399q27 6 76 6q45 0 80 -6v-1399q-35 -6 -80 -6q-49 0 -76 6zM512 1511l-223 154l-232 -166q-23 10 -43 30t-26 44l227 221q73 11 145 0l228 -211q-9 -26 -31 -46t-45 -26z" />
    <glyph glyph-name="Idieresis" unicode="&#xcf;" horiz-adv-x="577" 
d="M211 0v1399q27 6 76 6q45 0 80 -6v-1399q-35 -6 -80 -6q-49 0 -76 6zM492 1692q52 0 86 -17q12 -40 12 -73q0 -36 -12 -76q-28 -17 -86 -17q-61 0 -84 17q-17 38 -17 76q0 35 17 73q27 17 84 17zM86 1692q57 0 84 -17q14 -38 14 -73q0 -38 -14 -76q-23 -17 -84 -17
q-58 0 -86 17q-12 40 -12 76q0 32 12 73q34 17 86 17z" />
    <glyph glyph-name="Eth" unicode="&#xd0;" horiz-adv-x="1339" 
d="M1219 700q0 -207 -43.5 -353t-167.5 -251q-60 -51 -157.5 -77.5t-186.5 -26.5q-60 0 -416 8l-12 12v629h-170q-7 35 -7 66q0 29 7 69h170v610l12 13q178 6 416 6q88 0 186 -27t158 -78q123 -105 167 -250.5t44 -349.5zM739 641h-348v-516q53 0 138.5 -1t132.5 -1
q71 0 129 18.5t98 49.5t70 77t47.5 94.5t28.5 109t14.5 113.5t3.5 115t-3.5 115.5t-14.5 113.5t-28.5 108t-47.5 93.5t-70 76t-98 49t-129 18.5q-47 0 -132.5 1t-138.5 1v-500h348q6 -34 6 -69q0 -36 -6 -66z" />
    <glyph glyph-name="Ntilde" unicode="&#xd1;" horiz-adv-x="1374" 
d="M1161 1405l13 -10v-1395q-40 -6 -97 -6t-98 6l-498 928q-61 115 -139 282h-6q12 -381 12 -442v-768q-44 -6 -74 -6q-33 0 -71 6v1399q38 6 92 6q57 0 98 -6l498 -928q30 -56 77.5 -155t65.5 -134h6q-14 263 -14 467v654q0 56 16.5 79t65.5 23h53zM727 1546l-125 60
q-40 18 -70 18q-43 0 -86 -51l-24 -33q-25 1 -47 14.5t-31 32.5l16 41q26 62 77 97.5t110 35.5q52 0 110 -28l125 -60q36 -18 70 -18q42 0 86 51l25 33q24 -1 45 -15.5t32 -35.5l-16 -39q-30 -65 -79.5 -98t-106.5 -33q-53 0 -111 28z" />
    <glyph glyph-name="Ograve" unicode="&#xd2;" horiz-adv-x="1337" 
d="M283 700q0 -86 10 -164.5t36.5 -159t68 -138.5t111 -95t159.5 -37q65 0 119.5 19t93.5 52t69.5 79.5t49.5 98t31 112t17 117t5 116.5q0 87 -9.5 164.5t-36 158t-68.5 138.5t-111.5 94.5t-159.5 36.5q-65 0 -119 -19t-93 -51.5t-69.5 -79t-50 -97.5t-31.5 -111.5t-17 -117
t-5 -116.5zM117 700q0 184 52.5 345.5t164.5 259.5q131 118 334 118q205 0 336 -118q111 -99 164 -260.5t53 -344.5q0 -185 -53 -346t-164 -260q-132 -119 -336 -119q-202 0 -334 119q-112 98 -164.5 259t-52.5 347zM487 1806l392 -227q-13 -61 -50 -86l-419 176q6 42 28 81
t49 56z" />
    <glyph glyph-name="Oacute" unicode="&#xd3;" horiz-adv-x="1337" 
d="M283 700q0 -86 10 -164.5t36.5 -159t68 -138.5t111 -95t159.5 -37q65 0 119.5 19t93.5 52t69.5 79.5t49.5 98t31 112t17 117t5 116.5q0 87 -9.5 164.5t-36 158t-68.5 138.5t-111.5 94.5t-159.5 36.5q-65 0 -119 -19t-93 -51.5t-69.5 -79t-50 -97.5t-31.5 -111.5t-17 -117
t-5 -116.5zM117 700q0 184 52.5 345.5t164.5 259.5q131 118 334 118q205 0 336 -118q111 -99 164 -260.5t53 -344.5q0 -185 -53 -346t-164 -260q-132 -119 -336 -119q-202 0 -334 119q-112 98 -164.5 259t-52.5 347zM487 1579l392 227q27 -17 48 -55.5t29 -81.5l-419 -176
q-19 13 -33 38t-17 48z" />
    <glyph glyph-name="Ocircumflex" unicode="&#xd4;" horiz-adv-x="1337" 
d="M283 700q0 -86 10 -164.5t36.5 -159t68 -138.5t111 -95t159.5 -37q65 0 119.5 19t93.5 52t69.5 79.5t49.5 98t31 112t17 117t5 116.5q0 87 -9.5 164.5t-36 158t-68.5 138.5t-111.5 94.5t-159.5 36.5q-65 0 -119 -19t-93 -51.5t-69.5 -79t-50 -97.5t-31.5 -111.5t-17 -117
t-5 -116.5zM117 700q0 184 52.5 345.5t164.5 259.5q131 118 334 118q205 0 336 -118q111 -99 164 -260.5t53 -344.5q0 -185 -53 -346t-164 -260q-132 -119 -336 -119q-202 0 -334 119q-112 98 -164.5 259t-52.5 347zM891 1511l-223 154l-232 -166q-23 10 -43 30t-26 44
l227 221q73 11 145 0l228 -211q-9 -26 -31 -46t-45 -26z" />
    <glyph glyph-name="Otilde" unicode="&#xd5;" horiz-adv-x="1337" 
d="M283 700q0 -86 10 -164.5t36.5 -159t68 -138.5t111 -95t159.5 -37q65 0 119.5 19t93.5 52t69.5 79.5t49.5 98t31 112t17 117t5 116.5q0 87 -9.5 164.5t-36 158t-68.5 138.5t-111.5 94.5t-159.5 36.5q-65 0 -119 -19t-93 -51.5t-69.5 -79t-50 -97.5t-31.5 -111.5t-17 -117
t-5 -116.5zM117 700q0 184 52.5 345.5t164.5 259.5q131 118 334 118q205 0 336 -118q111 -99 164 -260.5t53 -344.5q0 -185 -53 -346t-164 -260q-132 -119 -336 -119q-202 0 -334 119q-112 98 -164.5 259t-52.5 347zM705 1556l-121 62q-36 16 -68 16q-42 0 -82 -51l-24 -33
q-26 2 -47.5 15t-28.5 34l18 39q26 62 73 96.5t105 34.5q49 0 107 -28l121 -58q36 -18 67 -18q42 0 82 53l25 29q25 -2 46 -14.5t30 -32.5l-19 -41q-28 -64 -76 -97.5t-102 -33.5q-52 0 -106 28z" />
    <glyph glyph-name="Odieresis" unicode="&#xd6;" horiz-adv-x="1337" 
d="M283 700q0 -86 10 -164.5t36.5 -159t68 -138.5t111 -95t159.5 -37q65 0 119.5 19t93.5 52t69.5 79.5t49.5 98t31 112t17 117t5 116.5q0 87 -9.5 164.5t-36 158t-68.5 138.5t-111.5 94.5t-159.5 36.5q-65 0 -119 -19t-93 -51.5t-69.5 -79t-50 -97.5t-31.5 -111.5t-17 -117
t-5 -116.5zM117 700q0 184 52.5 345.5t164.5 259.5q131 118 334 118q205 0 336 -118q111 -99 164 -260.5t53 -344.5q0 -185 -53 -346t-164 -260q-132 -119 -336 -119q-202 0 -334 119q-112 98 -164.5 259t-52.5 347zM870 1692q52 0 86 -17q13 -44 13 -73q0 -32 -13 -76
q-28 -17 -86 -17q-61 0 -84 17q-16 36 -16 76q0 37 16 73q27 17 84 17zM465 1692q57 0 84 -17q14 -38 14 -73q0 -38 -14 -76q-23 -17 -84 -17q-58 0 -86 17q-12 40 -12 76q0 32 12 73q34 17 86 17z" />
    <glyph glyph-name="multiply" unicode="&#xd7;" horiz-adv-x="1085" 
d="M496 446l-230 -231q-30 12 -59 41q-31 31 -43 63l229 228l49 47q-5 5 -16 15.5t-19.5 19t-13.5 14.5l-229 227q15 38 41 64q25 29 61 41l230 -232q15 -21 47 -49l47 49l229 232q42 -21 60 -39q29 -29 43 -66l-232 -227l-49 -49l49 -47l232 -228q-13 -35 -41 -63
q-30 -30 -62 -41l-229 231q-13 11 -47 50z" />
    <glyph glyph-name="Oslash" unicode="&#xd8;" horiz-adv-x="1337" 
d="M117 700q0 183 53 344.5t164 260.5q131 118 334 118q162 0 272 -71l76 133q29 -3 62 -21t48 -39l-86 -157q92 -100 136.5 -251t44.5 -317q0 -185 -53 -346t-164 -260q-132 -119 -336 -119q-161 0 -273 72l-73 -133q-29 3 -62.5 21t-48.5 40l86 154q-92 102 -136 252
t-44 319zM281 700q0 -273 94 -428l497 957q-86 63 -204 63q-90 0 -159.5 -36.5t-111.5 -94.5t-69 -138t-37 -158.5t-10 -164.5zM1055 700q0 270 -92 424l-500 -954q87 -64 205 -64q90 0 160 37t112 95t68.5 138.5t36.5 159t10 164.5z" />
    <glyph glyph-name="Ugrave" unicode="&#xd9;" horiz-adv-x="1363" 
d="M1180 1399v-922q0 -243 -136.5 -372.5t-363.5 -129.5q-224 0 -359 129.5t-135 372.5v916l13 12h61q50 0 66 -23.5t16 -78.5v-824q0 -181 89.5 -278t250.5 -97q162 0 251 96.5t89 278.5v920q30 6 76 6q48 0 82 -6zM502 1806l391 -227q-13 -62 -49 -86l-420 176
q6 41 28 80.5t50 56.5z" />
    <glyph glyph-name="Uacute" unicode="&#xda;" horiz-adv-x="1363" 
d="M1180 1399v-922q0 -243 -136.5 -372.5t-363.5 -129.5q-224 0 -359 129.5t-135 372.5v916l13 12h61q50 0 66 -23.5t16 -78.5v-824q0 -181 89.5 -278t250.5 -97q162 0 251 96.5t89 278.5v920q30 6 76 6q48 0 82 -6zM502 1579l391 227q27 -17 48.5 -56t29.5 -81l-420 -176
q-19 13 -32.5 37.5t-16.5 48.5z" />
    <glyph glyph-name="Ucircumflex" unicode="&#xdb;" horiz-adv-x="1363" 
d="M1180 1399v-922q0 -243 -136.5 -372.5t-363.5 -129.5q-224 0 -359 129.5t-135 372.5v916l13 12h61q50 0 66 -23.5t16 -78.5v-824q0 -181 89.5 -278t250.5 -97q162 0 251 96.5t89 278.5v920q30 6 76 6q48 0 82 -6zM905 1511l-223 154l-231 -166q-23 10 -43.5 30.5
t-26.5 43.5l227 221q73 11 146 0l227 -211q-9 -26 -31 -46t-45 -26z" />
    <glyph glyph-name="Udieresis" unicode="&#xdc;" horiz-adv-x="1363" 
d="M1180 1399v-922q0 -243 -136.5 -372.5t-363.5 -129.5q-224 0 -359 129.5t-135 372.5v916l13 12h61q50 0 66 -23.5t16 -78.5v-824q0 -181 89.5 -278t250.5 -97q162 0 251 96.5t89 278.5v920q30 6 76 6q48 0 82 -6zM885 1692q52 0 86 -17q12 -40 12 -73q0 -36 -12 -76
q-28 -17 -86 -17q-61 0 -84 17q-17 38 -17 76q0 35 17 73q27 17 84 17zM479 1692q57 0 84 -17q15 -40 15 -73q0 -36 -15 -76q-23 -17 -84 -17q-58 0 -86 17q-12 40 -12 76q0 32 12 73q34 17 86 17z" />
    <glyph glyph-name="Yacute" unicode="&#xdd;" horiz-adv-x="985" 
d="M594 862l213 537q31 8 70 8q37 0 75 -10l6 -13l-385 -929v-455q-35 -6 -79 -6q-48 0 -78 6v461l-385 919q53 33 102 33q59 0 86 -76l197 -475q27 -61 84 -235h10q9 31 26 79t36 98t22 58zM319 1579l392 227q27 -17 48 -55.5t29 -81.5l-419 -176q-19 13 -33 38t-17 48z
" />
    <glyph glyph-name="Thorn" unicode="&#xde;" horiz-adv-x="1146" 
d="M203 0v1399q30 6 76 6q49 0 79 -6v-217q156 4 244 4q204 0 328.5 -113t124.5 -325q0 -211 -124 -326t-329 -115h-244v-307q-30 -6 -79 -6q-46 0 -76 6zM606 1053q-162 0 -248 2v-617q46 0 136.5 1t111.5 1q65 0 115.5 19t81 49.5t50 72t27 82.5t7.5 85q0 45 -7.5 86
t-27 82t-50 70.5t-81 48t-115.5 18.5z" />
    <glyph glyph-name="germandbls" unicode="&#xdf;" horiz-adv-x="1251" 
d="M225 0v834l-176 -3q-6 30 -6 68q0 34 6 64l176 -5v86q0 182 117 284t307 102q191 0 304.5 -108.5t113.5 -289.5q0 -72 -31 -160h-4l4 -2q-95 -24 -140.5 -71t-45.5 -94q0 -63 92 -140l76 -61q153 -133 153 -260q0 -113 -97.5 -191t-252.5 -78q-60 0 -131.5 16t-124.5 44
q2 27 20 60.5t42 51.5q90 -49 190 -49q84 0 138.5 40.5t54.5 103.5q0 72 -95 155l-84 70q-71 60 -105 113t-34 112q0 79 57.5 144.5t153.5 99.5q12 44 12 84q0 128 -69 210.5t-201 82.5q-134 0 -200 -75.5t-66 -209.5v-1028q-34 -6 -76 -6q-43 0 -78 6z" />
    <glyph glyph-name="agrave" unicode="&#xe0;" horiz-adv-x="1032" 
d="M918 63q-8 -22 -28 -44.5t-42 -32.5q-102 37 -127 143q-158 -154 -322 -154q-140 0 -217.5 89t-77.5 208q0 165 103 247.5t280 82.5q131 0 226 -18v102q0 111 -48 160t-137 49q-144 0 -333 -84q-22 19 -38 54t-16 65q218 96 402 96q158 0 237.5 -87.5t79.5 -254.5v-422
q0 -73 11.5 -119t46.5 -80zM420 104q74 0 152.5 42t140.5 122v205q-98 14 -224 14q-107 0 -169 -53.5t-62 -150.5q0 -77 43.5 -128t118.5 -51zM362 1479l281 -316q-9 -22 -29 -40.5t-43 -24.5l-334 266q15 38 50 70.5t75 44.5z" />
    <glyph glyph-name="aacute" unicode="&#xe1;" horiz-adv-x="1032" 
d="M918 63q-8 -22 -28 -44.5t-42 -32.5q-102 37 -127 143q-158 -154 -322 -154q-140 0 -217.5 89t-77.5 208q0 165 103 247.5t280 82.5q131 0 226 -18v102q0 111 -48 160t-137 49q-144 0 -333 -84q-22 19 -38 54t-16 65q218 96 402 96q158 0 237.5 -87.5t79.5 -254.5v-422
q0 -73 11.5 -119t46.5 -80zM420 104q74 0 152.5 42t140.5 122v205q-98 14 -224 14q-107 0 -169 -53.5t-62 -150.5q0 -77 43.5 -128t118.5 -51zM362 1163l281 316q40 -12 75 -44.5t50 -70.5l-334 -266q-23 6 -43 24.5t-29 40.5z" />
    <glyph glyph-name="acircumflex" unicode="&#xe2;" horiz-adv-x="1032" 
d="M918 63q-8 -22 -28 -44.5t-42 -32.5q-102 37 -127 143q-158 -154 -322 -154q-140 0 -217.5 89t-77.5 208q0 165 103 247.5t280 82.5q131 0 226 -18v102q0 111 -48 160t-137 49q-144 0 -333 -84q-22 19 -38 54t-16 65q218 96 402 96q158 0 237.5 -87.5t79.5 -254.5v-422
q0 -73 11.5 -119t46.5 -80zM420 104q74 0 152.5 42t140.5 122v205q-98 14 -224 14q-107 0 -169 -53.5t-62 -150.5q0 -77 43.5 -128t118.5 -51zM688 1112l-194 193l-207 -203q-50 20 -74 72l217 270q51 15 133 2l207 -260q-27 -55 -82 -74z" />
    <glyph glyph-name="atilde" unicode="&#xe3;" horiz-adv-x="1032" 
d="M918 63q-8 -22 -28 -44.5t-42 -32.5q-102 37 -127 143q-158 -154 -322 -154q-140 0 -217.5 89t-77.5 208q0 165 103 247.5t280 82.5q131 0 226 -18v102q0 111 -48 160t-137 49q-144 0 -333 -84q-22 19 -38 54t-16 65q218 96 402 96q158 0 237.5 -87.5t79.5 -254.5v-422
q0 -73 11.5 -119t46.5 -80zM420 104q74 0 152.5 42t140.5 122v205q-98 14 -224 14q-107 0 -169 -53.5t-62 -150.5q0 -77 43.5 -128t118.5 -51zM528 1169l-125 62q-40 18 -69 18q-42 0 -84 -53l-27 -33q-26 2 -48.5 15t-29.5 34l19 41q28 63 76.5 98t107.5 35q53 0 111 -28
l125 -60q36 -18 69 -18q44 0 84 53l27 31q25 -2 47 -15.5t31 -33.5l-19 -41q-30 -65 -79 -99t-105 -34q-53 0 -111 28z" />
    <glyph glyph-name="adieresis" unicode="&#xe4;" horiz-adv-x="1032" 
d="M918 63q-8 -22 -28 -44.5t-42 -32.5q-102 37 -127 143q-158 -154 -322 -154q-140 0 -217.5 89t-77.5 208q0 165 103 247.5t280 82.5q131 0 226 -18v102q0 111 -48 160t-137 49q-144 0 -333 -84q-22 19 -38 54t-16 65q218 96 402 96q158 0 237.5 -87.5t79.5 -254.5v-422
q0 -73 11.5 -119t46.5 -80zM420 104q74 0 152.5 42t140.5 122v205q-98 14 -224 14q-107 0 -169 -53.5t-62 -150.5q0 -77 43.5 -128t118.5 -51zM580 1241q0 35 14 70q32 18 82 18q51 0 80 -18q14 -35 14 -70q0 -39 -14 -70q-25 -18 -80 -18q-53 0 -82 18q-14 35 -14 70z
M217 1241q0 35 14 70q29 18 80 18q50 0 82 -18q15 -38 15 -70q0 -36 -15 -70q-29 -18 -82 -18q-20 0 -45 5.5t-35 12.5q-14 35 -14 70z" />
    <glyph glyph-name="aring" unicode="&#xe5;" horiz-adv-x="1032" 
d="M918 63q-8 -22 -28 -44.5t-42 -32.5q-102 37 -127 143q-158 -154 -322 -154q-140 0 -217.5 89t-77.5 208q0 165 103 247.5t280 82.5q131 0 226 -18v102q0 111 -48 160t-137 49q-144 0 -333 -84q-22 19 -38 54t-16 65q218 96 402 96q158 0 237.5 -87.5t79.5 -254.5v-422
q0 -73 11.5 -119t46.5 -80zM420 104q74 0 152.5 42t140.5 122v205q-98 14 -224 14q-107 0 -169 -53.5t-62 -150.5q0 -77 43.5 -128t118.5 -51zM268 1315q0 89 65 152t161 63t160.5 -63t64.5 -152q0 -90 -64.5 -153.5t-160.5 -63.5t-161 63.5t-65 153.5zM389 1315
q0 -51 30 -84t75 -33t74.5 33t29.5 84q0 49 -30 82t-74 33t-74.5 -33t-30.5 -82z" />
    <glyph glyph-name="ae" unicode="&#xe6;" horiz-adv-x="1630" 
d="M1503 457h-635q5 -165 66 -256.5t196 -91.5q139 0 297 88q21 -18 37 -49.5t19 -57.5q-73 -52 -171.5 -83.5t-199.5 -31.5q-234 0 -334 189q-68 -80 -166.5 -134.5t-212.5 -54.5q-95 0 -164 44.5t-100 110.5t-31 144q0 164 102.5 246t280.5 82q106 0 226 -20v106
q0 207 -185 207q-144 0 -333 -84q-22 19 -38 54t-16 65q218 96 400 96q203 0 276 -149q112 153 299 153q128 0 219 -60t133.5 -157t42.5 -221q0 -70 -8 -135zM420 104q81 0 167 45.5t148 135.5q-18 80 -24 184q-105 18 -222 18q-107 0 -169 -52.5t-62 -149.5
q0 -77 43.5 -129t118.5 -52zM1116 913q-112 0 -176 -91t-72 -249h488v23q0 66 -13.5 121.5t-41 100.5t-75 70t-110.5 25z" />
    <glyph glyph-name="ccedilla" unicode="&#xe7;" horiz-adv-x="960" 
d="M408 -147q15 59 43 127q-91 10 -159.5 57.5t-108 120.5t-58.5 157t-19 179q0 134 34.5 239.5t93 168.5t131 95.5t153.5 32.5q92 0 164 -30t111.5 -76.5t59 -94.5t19.5 -92q0 -45 -16 -69.5t-63 -24.5q-29 0 -66 6q3 47 -6.5 91t-32.5 82.5t-67.5 61.5t-106.5 23
q-115 0 -182.5 -106.5t-67.5 -306.5q0 -192 68.5 -290t193.5 -98q47 0 97.5 18.5t83.5 39t81 55.5q24 -14 45 -41.5t27 -54.5q-130 -123 -293 -143q-13 -24 -26 -62q79 -6 129.5 -53.5t50.5 -124.5q0 -82 -63.5 -135.5t-159.5 -53.5q-98 0 -154 39q3 46 39 91
q45 -29 104 -29q52 0 76.5 25.5t24.5 64.5t-24.5 63.5t-74.5 24.5q-26 0 -49 -10q-24 10 -32 33z" />
    <glyph glyph-name="egrave" unicode="&#xe8;" horiz-adv-x="1030" 
d="M901 457h-635q10 -348 264 -348q139 0 297 86q21 -18 37 -48.5t19 -56.5q-73 -51 -172.5 -83t-200.5 -32q-89 0 -159 28.5t-115.5 76.5t-75 116.5t-42 144t-12.5 163.5q0 233 109 379.5t301 146.5q96 0 172 -34t124 -94t73.5 -139t25.5 -171q0 -74 -10 -135zM516 913
q-113 0 -177.5 -92t-72.5 -248h492v27q0 138 -59.5 225.5t-182.5 87.5zM391 1479l281 -316q-9 -22 -29 -40.5t-43 -24.5l-334 266q15 38 50 70.5t75 44.5z" />
    <glyph glyph-name="eacute" unicode="&#xe9;" horiz-adv-x="1030" 
d="M901 457h-635q10 -348 264 -348q139 0 297 86q21 -18 37 -48.5t19 -56.5q-73 -51 -172.5 -83t-200.5 -32q-89 0 -159 28.5t-115.5 76.5t-75 116.5t-42 144t-12.5 163.5q0 233 109 379.5t301 146.5q96 0 172 -34t124 -94t73.5 -139t25.5 -171q0 -74 -10 -135zM516 913
q-113 0 -177.5 -92t-72.5 -248h492v27q0 138 -59.5 225.5t-182.5 87.5zM389 1163l281 316q40 -12 75 -44.5t50 -70.5l-334 -266q-23 6 -43 24.5t-29 40.5z" />
    <glyph glyph-name="ecircumflex" unicode="&#xea;" horiz-adv-x="1030" 
d="M901 457h-635q10 -348 264 -348q139 0 297 86q21 -18 37 -48.5t19 -56.5q-73 -51 -172.5 -83t-200.5 -32q-89 0 -159 28.5t-115.5 76.5t-75 116.5t-42 144t-12.5 163.5q0 233 109 379.5t301 146.5q96 0 172 -34t124 -94t73.5 -139t25.5 -171q0 -74 -10 -135zM516 913
q-113 0 -177.5 -92t-72.5 -248h492v27q0 138 -59.5 225.5t-182.5 87.5zM717 1112l-194 193l-207 -203q-50 20 -74 72l217 270q51 15 133 2l207 -260q-27 -55 -82 -74z" />
    <glyph glyph-name="edieresis" unicode="&#xeb;" horiz-adv-x="1030" 
d="M901 457h-635q10 -348 264 -348q139 0 297 86q21 -18 37 -48.5t19 -56.5q-73 -51 -172.5 -83t-200.5 -32q-89 0 -159 28.5t-115.5 76.5t-75 116.5t-42 144t-12.5 163.5q0 233 109 379.5t301 146.5q96 0 172 -34t124 -94t73.5 -139t25.5 -171q0 -74 -10 -135zM516 913
q-113 0 -177.5 -92t-72.5 -248h492v27q0 138 -59.5 225.5t-182.5 87.5zM608 1241q0 32 15 70q32 18 82 18t79 -18q15 -37 15 -70q0 -36 -15 -70q-25 -18 -79 -18q-53 0 -82 18q-15 38 -15 70zM246 1241q0 35 14 70q29 18 80 18q50 0 82 -18q14 -35 14 -70q0 -39 -14 -70
q-29 -18 -82 -18q-20 0 -45 5.5t-35 12.5q-14 35 -14 70z" />
    <glyph glyph-name="igrave" unicode="&#xec;" horiz-adv-x="524" 
d="M348 864v-864q-30 -6 -74 -6q-47 0 -77 6v791q0 57 -18 77.5t-66 20.5h-19q-8 27 -8 57q0 28 8 55q82 11 103 11h16q64 0 99.5 -40t35.5 -108zM104 1479l281 -316q-9 -22 -29 -40.5t-43 -24.5l-333 266q16 38 50 70.5t74 44.5z" />
    <glyph glyph-name="iacute" unicode="&#xed;" horiz-adv-x="524" 
d="M348 864v-864q-30 -6 -74 -6q-47 0 -77 6v791q0 57 -18 77.5t-66 20.5h-19q-8 27 -8 57q0 28 8 55q82 11 103 11h16q64 0 99.5 -40t35.5 -108zM102 1163l281 316q40 -12 75 -44.5t50 -70.5l-334 -266q-23 6 -43 24.5t-29 40.5z" />
    <glyph glyph-name="icircumflex" unicode="&#xee;" horiz-adv-x="524" 
d="M348 864v-864q-30 -6 -74 -6q-47 0 -77 6v791q0 57 -18 77.5t-66 20.5h-19q-8 27 -8 57q0 28 8 55q82 11 103 11h16q64 0 99.5 -40t35.5 -108zM430 1112l-194 193l-207 -203q-50 20 -74 72l217 270q51 15 133 2l207 -260q-27 -55 -82 -74z" />
    <glyph glyph-name="idieresis" unicode="&#xef;" horiz-adv-x="524" 
d="M348 864v-864q-30 -6 -74 -6q-47 0 -77 6v791q0 57 -18 77.5t-66 20.5h-19q-8 27 -8 57q0 28 8 55q82 11 103 11h16q64 0 99.5 -40t35.5 -108zM322 1241q0 35 14 70q32 18 82 18q51 0 80 -18q14 -35 14 -70q0 -39 -14 -70q-25 -18 -80 -18q-53 0 -82 18q-14 35 -14 70z
M-41 1241q0 35 14 70q29 18 80 18q50 0 82 -18q15 -38 15 -70q0 -36 -15 -70q-29 -18 -82 -18q-20 0 -45 5.5t-35 12.5q-14 35 -14 70z" />
    <glyph glyph-name="eth" unicode="&#xf0;" horiz-adv-x="1056" 
d="M260 1171l193 134q-77 67 -187 118q6 31 24 60.5t40 40.5q128 -58 235 -142l180 125q21 -13 42 -41.5t22 -50.5l-160 -110q148 -151 225.5 -358t77.5 -451q0 -265 -143 -412q-109 -109 -283 -109q-171 0 -280 109q-144 148 -144 408q0 126 33.5 223t110.5 174
q108 108 278 108q99 0 191 -47q-52 148 -178 277l-213 -148q-21 13 -42 41.5t-22 50.5zM797 496q0 159 -37 303q-102 78 -232 78q-59 0 -105.5 -21t-76.5 -56.5t-50 -85.5t-28 -104.5t-8 -117.5q0 -79 13.5 -147t43 -126t83.5 -91.5t128 -33.5q73 0 127 34t84 93t44 127.5
t14 147.5z" />
    <glyph glyph-name="ntilde" unicode="&#xf1;" horiz-adv-x="1116" 
d="M948 702v-507q0 -117 23 -175q-32 -32 -97 -32q-42 0 -59.5 24t-17.5 76v567q0 125 -32 177.5t-118 52.5q-79 0 -167 -44.5t-148 -113.5v-727q-30 -6 -74 -6q-48 0 -78 6v999l13 13h57q49 0 65.5 -25.5t16.5 -81.5v-28q69 66 163 105.5t189 39.5q137 0 200.5 -88.5
t63.5 -231.5zM602 1169l-125 62q-41 18 -69 18q-42 0 -84 -53l-27 -33q-26 2 -48.5 15t-29.5 34l19 41q28 63 76.5 98t107.5 35q52 0 110 -28l125 -60q36 -18 70 -18q44 0 84 53l27 31q25 -2 46.5 -15.5t30.5 -33.5l-18 -41q-30 -65 -79 -99t-105 -34q-53 0 -111 28z" />
    <glyph glyph-name="ograve" unicode="&#xf2;" horiz-adv-x="1062" 
d="M956 502q0 -271 -143 -418q-109 -109 -283 -109q-171 0 -280 109q-144 148 -144 418t144 418q107 110 280 110q176 0 283 -110q143 -147 143 -418zM264 502q0 -81 13.5 -150t43 -129t83.5 -94.5t128 -34.5q73 0 127 34.5t84 94t44 129t14 150.5q0 80 -14 149.5t-44 129.5
t-84 95t-127 35q-74 0 -128 -35t-83.5 -95t-43 -129.5t-13.5 -149.5zM399 1479l281 -316q-9 -22 -29 -40.5t-43 -24.5l-334 266q15 38 50 70.5t75 44.5z" />
    <glyph glyph-name="oacute" unicode="&#xf3;" horiz-adv-x="1062" 
d="M956 502q0 -271 -143 -418q-109 -109 -283 -109q-171 0 -280 109q-144 148 -144 418t144 418q107 110 280 110q176 0 283 -110q143 -147 143 -418zM264 502q0 -81 13.5 -150t43 -129t83.5 -94.5t128 -34.5q73 0 127 34.5t84 94t44 129t14 150.5q0 80 -14 149.5t-44 129.5
t-84 95t-127 35q-74 0 -128 -35t-83.5 -95t-43 -129.5t-13.5 -149.5zM397 1163l281 316q40 -12 75 -44.5t50 -70.5l-334 -266q-23 6 -43 24.5t-29 40.5z" />
    <glyph glyph-name="ocircumflex" unicode="&#xf4;" horiz-adv-x="1062" 
d="M956 502q0 -271 -143 -418q-109 -109 -283 -109q-171 0 -280 109q-144 148 -144 418t144 418q107 110 280 110q176 0 283 -110q143 -147 143 -418zM264 502q0 -81 13.5 -150t43 -129t83.5 -94.5t128 -34.5q73 0 127 34.5t84 94t44 129t14 150.5q0 80 -14 149.5t-44 129.5
t-84 95t-127 35q-74 0 -128 -35t-83.5 -95t-43 -129.5t-13.5 -149.5zM725 1112l-194 193l-207 -203q-50 20 -74 72l217 270q51 15 133 2l207 -260q-27 -55 -82 -74z" />
    <glyph glyph-name="otilde" unicode="&#xf5;" horiz-adv-x="1062" 
d="M956 502q0 -271 -143 -418q-109 -109 -283 -109q-171 0 -280 109q-144 148 -144 418t144 418q107 110 280 110q176 0 283 -110q143 -147 143 -418zM264 502q0 -81 13.5 -150t43 -129t83.5 -94.5t128 -34.5q73 0 127 34.5t84 94t44 129t14 150.5q0 80 -14 149.5t-44 129.5
t-84 95t-127 35q-74 0 -128 -35t-83.5 -95t-43 -129.5t-13.5 -149.5zM565 1169l-125 62q-40 18 -69 18q-42 0 -84 -53l-27 -33q-26 2 -48.5 15t-29.5 34l19 41q28 63 76.5 98t107.5 35q53 0 111 -28l125 -60q36 -18 69 -18q44 0 84 53l27 31q25 -2 47 -15.5t31 -33.5
l-19 -41q-30 -65 -79 -99t-105 -34q-53 0 -111 28z" />
    <glyph glyph-name="odieresis" unicode="&#xf6;" horiz-adv-x="1062" 
d="M956 502q0 -271 -143 -418q-109 -109 -283 -109q-171 0 -280 109q-144 148 -144 418t144 418q107 110 280 110q176 0 283 -110q143 -147 143 -418zM264 502q0 -81 13.5 -150t43 -129t83.5 -94.5t128 -34.5q73 0 127 34.5t84 94t44 129t14 150.5q0 80 -14 149.5t-44 129.5
t-84 95t-127 35q-74 0 -128 -35t-83.5 -95t-43 -129.5t-13.5 -149.5zM617 1241q0 35 14 70q32 18 82 18q51 0 80 -18q14 -35 14 -70q0 -39 -14 -70q-25 -18 -80 -18q-53 0 -82 18q-14 35 -14 70zM254 1241q0 35 14 70q29 18 80 18q50 0 82 -18q15 -38 15 -70q0 -36 -15 -70
q-29 -18 -82 -18q-20 0 -45 5.5t-35 12.5q-14 35 -14 70z" />
    <glyph glyph-name="divide" unicode="&#xf7;" horiz-adv-x="1085" 
d="M436 958q0 40 17 74q30 23 90 23q24 0 51.5 -6.5t38.5 -16.5q14 -28 14 -74q0 -47 -14 -75q-10 -9 -39 -16t-51 -7q-60 0 -90 23q-17 34 -17 75zM436 227q0 42 17 76q30 23 90 23q24 0 51.5 -6.5t38.5 -16.5q14 -28 14 -76q0 -45 -14 -73q-10 -10 -38 -16.5t-52 -6.5
q-60 0 -90 23q-17 34 -17 73zM965 526h-844q-8 24 -8 68q0 43 8 74h844q8 -31 8 -74q0 -44 -8 -68z" />
    <glyph glyph-name="oslash" unicode="&#xf8;" horiz-adv-x="1062" 
d="M956 502q0 -279 -143 -418q-109 -109 -283 -109q-112 0 -194 43l-74 -127q-26 1 -57 18.5t-45 37.5l82 145q-136 141 -136 410q0 274 144 418q107 110 280 110q109 0 191 -43l76 129q25 -2 56 -19t44 -38l-82 -144q141 -141 141 -413zM807 502q0 179 -62 286l-348 -659
q60 -37 135 -37t130.5 35t86 95.5t44.5 130t14 149.5zM256 502q0 -171 57 -279l346 658q-60 34 -127 34q-75 0 -130.5 -35.5t-86 -96.5t-45 -131t-14.5 -150z" />
    <glyph glyph-name="ugrave" unicode="&#xf9;" horiz-adv-x="1118" 
d="M170 301v510q0 109 -25 174q37 33 97 33q42 0 59.5 -24t17.5 -76v-568q0 -126 32.5 -178.5t119.5 -52.5q77 0 165 44t148 113v728q27 8 74 8q51 0 78 -8v-721q0 -78 11 -132.5t46 -87.5q-8 -23 -27 -45t-42 -32q-102 36 -129 151q-70 -70 -167.5 -112.5t-195.5 -42.5
q-137 0 -199.5 88t-62.5 231zM420 1479l281 -316q-9 -22 -29 -40.5t-43 -24.5l-334 266q15 38 50 70.5t75 44.5z" />
    <glyph glyph-name="uacute" unicode="&#xfa;" horiz-adv-x="1118" 
d="M170 301v510q0 109 -25 174q37 33 97 33q42 0 59.5 -24t17.5 -76v-568q0 -126 32.5 -178.5t119.5 -52.5q77 0 165 44t148 113v728q27 8 74 8q51 0 78 -8v-721q0 -78 11 -132.5t46 -87.5q-8 -23 -27 -45t-42 -32q-102 36 -129 151q-70 -70 -167.5 -112.5t-195.5 -42.5
q-137 0 -199.5 88t-62.5 231zM418 1163l280 316q40 -12 75 -44.5t50 -70.5l-334 -266q-23 6 -42.5 24.5t-28.5 40.5z" />
    <glyph glyph-name="ucircumflex" unicode="&#xfb;" horiz-adv-x="1118" 
d="M170 301v510q0 109 -25 174q37 33 97 33q42 0 59.5 -24t17.5 -76v-568q0 -126 32.5 -178.5t119.5 -52.5q77 0 165 44t148 113v728q27 8 74 8q51 0 78 -8v-721q0 -78 11 -132.5t46 -87.5q-8 -23 -27 -45t-42 -32q-102 36 -129 151q-70 -70 -167.5 -112.5t-195.5 -42.5
q-137 0 -199.5 88t-62.5 231zM745 1112l-194 193l-207 -203q-50 20 -74 72l217 270q51 15 133 2l207 -260q-27 -55 -82 -74z" />
    <glyph glyph-name="udieresis" unicode="&#xfc;" horiz-adv-x="1118" 
d="M170 301v510q0 109 -25 174q37 33 97 33q42 0 59.5 -24t17.5 -76v-568q0 -126 32.5 -178.5t119.5 -52.5q77 0 165 44t148 113v728q27 8 74 8q51 0 78 -8v-721q0 -78 11 -132.5t46 -87.5q-8 -23 -27 -45t-42 -32q-102 36 -129 151q-70 -70 -167.5 -112.5t-195.5 -42.5
q-137 0 -199.5 88t-62.5 231zM637 1241q0 35 14 70q32 18 82 18q51 0 80 -18q14 -35 14 -70q0 -39 -14 -70q-25 -18 -80 -18q-53 0 -82 18q-14 35 -14 70zM274 1241q0 32 15 70q29 18 80 18q50 0 82 -18q14 -35 14 -70q0 -39 -14 -70q-29 -18 -82 -18q-20 0 -45 5.5
t-35 12.5q-15 38 -15 70z" />
    <glyph glyph-name="yacute" unicode="&#xfd;" horiz-adv-x="925" 
d="M893 995l-281 -960q-31 -106 -58.5 -177.5t-63.5 -133.5t-78.5 -97t-99.5 -54t-130 -19q-90 0 -166 26q-3 26 7.5 58t25.5 53q67 -23 135 -23q57 0 100 20.5t74 63.5t52.5 93t44.5 126l6 21q-54 3 -81.5 23.5t-45.5 76.5l-287 901q66 27 90 27q59 0 80 -72l162 -514
q21 -65 56.5 -188.5t37.5 -130.5q5 -15 21 -15l249 906q27 8 70 8t76 -13zM327 1163l281 316q40 -12 75 -44.5t50 -70.5l-334 -266q-23 6 -43 24.5t-29 40.5z" />
    <glyph glyph-name="thorn" unicode="&#xfe;" horiz-adv-x="1075" 
d="M971 514q0 -109 -23 -199.5t-60.5 -150.5t-88 -101.5t-103.5 -60t-108 -18.5q-132 0 -260 84v-406q0 -55 -16 -78.5t-66 -23.5h-53l-13 12v1921l13 12h53q50 0 66 -23.5t16 -78.5v-518q56 62 133 99.5t166 37.5q164 0 254 -139t90 -369zM596 889q-72 0 -145 -43.5
t-123 -120.5v-518q133 -92 245 -92q102 0 173 99.5t71 297.5q0 190 -63 283.5t-158 93.5z" />
    <glyph glyph-name="ydieresis" unicode="&#xff;" horiz-adv-x="925" 
d="M893 995l-281 -960q-31 -106 -58.5 -177.5t-63.5 -133.5t-78.5 -97t-99.5 -54t-130 -19q-90 0 -166 26q-3 26 7.5 58t25.5 53q67 -23 135 -23q57 0 100 20.5t74 63.5t52.5 93t44.5 126l6 21q-54 3 -81.5 23.5t-45.5 76.5l-287 901q66 27 90 27q59 0 80 -72l162 -514
q21 -65 56.5 -188.5t37.5 -130.5q5 -15 21 -15l249 906q27 8 70 8t76 -13zM547 1241q0 35 14 70q32 18 82 18q51 0 80 -18q14 -35 14 -70q0 -39 -14 -70q-25 -18 -80 -18q-53 0 -82 18q-14 35 -14 70zM184 1241q0 32 15 70q29 18 80 18q49 0 81 -18q15 -38 15 -70
q0 -36 -15 -70q-29 -18 -81 -18q-20 0 -45 5.5t-35 12.5q-15 38 -15 70z" />
    <glyph glyph-name="Aogonek" unicode="&#x104;" horiz-adv-x="1220" 
d="M53 8l469 1391q35 6 90 6q59 0 86 -6l467 -1389l2 -2q-2 -2 -4 -2q-84 -56 -131 -113t-47 -122q0 -50 29.5 -77.5t77.5 -27.5q61 0 129 37q39 -27 39 -82q-35 -28 -90.5 -46.5t-112.5 -18.5q-92 0 -149.5 48.5t-57.5 135.5q0 73 43.5 144t114.5 128q-15 18 -27 58
l-98 295q-19 0 -80 -1.5t-64 -1.5h-274q-5 0 -64.5 1.5t-78.5 1.5l-119 -367q-27 -6 -70 -6q-34 0 -76 10zM526 985l-159 -487q18 0 66 1t52 1h236q2 0 50 -1t69 -1l-129 389q-77 239 -105 342h-10q-32 -128 -70 -244z" />
    <glyph glyph-name="aogonek" unicode="&#x105;" horiz-adv-x="1093" 
d="M940 -297q39 -31 39 -82q-34 -28 -90.5 -46.5t-112.5 -18.5q-92 0 -149.5 48.5t-57.5 135.5q0 164 201 303q-32 34 -47 88q-156 -156 -324 -156q-140 0 -217.5 89t-77.5 208q0 165 103 247.5t280 82.5q131 0 226 -18v102q0 111 -48 160t-137 49q-144 0 -333 -84
q-22 19 -38 54t-16 65q218 96 402 96q158 0 237.5 -87.5t79.5 -254.5v-422q0 -67 15.5 -112.5t52.5 -79.5q-15 -38 -78 -88q-71 -57 -108 -105.5t-37 -105.5q0 -50 29 -77.5t77 -27.5q57 0 129 37zM420 104q74 0 152.5 42t140.5 122v205q-98 14 -224 14q-107 0 -169 -53.5
t-62 -150.5q0 -77 43.5 -128t118.5 -51z" />
    <glyph glyph-name="Cacute" unicode="&#x106;" horiz-adv-x="1228" 
d="M975 956q1 46 -8.5 91t-33 90t-59.5 79t-92.5 55t-126.5 21q-180 0 -276 -153.5t-96 -446.5q0 -273 98.5 -426t271.5 -153q188 0 375 161q29 -17 53 -45.5t33 -56.5q-87 -88 -213 -142.5t-270 -54.5q-108 0 -195.5 39.5t-146 106.5t-98 159.5t-57 195t-17.5 216.5
q0 184 43 327t118 229.5t170.5 130.5t206.5 44q107 0 199 -33.5t152 -88.5t93.5 -123.5t33.5 -139.5q0 -92 -89 -92q-33 0 -69 10zM471 1581l391 227q27 -17 48.5 -56t29.5 -81l-420 -176q-19 13 -32.5 37.5t-16.5 48.5z" />
    <glyph glyph-name="cacute" unicode="&#x107;" horiz-adv-x="960" 
d="M727 649q3 47 -6.5 91t-32.5 82.5t-67.5 61.5t-106.5 23q-115 0 -182.5 -106.5t-67.5 -306.5q0 -192 68.5 -290t193.5 -98q47 0 97.5 18.5t83.5 39t81 55.5q24 -14 45 -41.5t27 -54.5q-158 -148 -354 -148q-85 0 -154 29.5t-114 78.5t-75.5 117t-43.5 141t-13 153
q0 134 34.5 239.5t93 168.5t131 95.5t153.5 32.5q92 0 164 -30t111.5 -76.5t59 -94.5t19.5 -92q0 -45 -16 -69.5t-63 -24.5q-29 0 -66 6zM380 1163l281 316q40 -12 75 -44.5t50 -70.5l-334 -266q-23 6 -43 24.5t-29 40.5z" />
    <glyph glyph-name="Ccaron" unicode="&#x10c;" horiz-adv-x="1228" 
d="M975 956q1 46 -8.5 91t-33 90t-59.5 79t-92.5 55t-126.5 21q-180 0 -276 -153.5t-96 -446.5q0 -273 98.5 -426t271.5 -153q188 0 375 161q29 -17 53 -45.5t33 -56.5q-87 -88 -213 -142.5t-270 -54.5q-108 0 -195.5 39.5t-146 106.5t-98 159.5t-57 195t-17.5 216.5
q0 184 43 327t118 229.5t170.5 130.5t206.5 44q107 0 199 -33.5t152 -88.5t93.5 -123.5t33.5 -139.5q0 -92 -89 -92q-33 0 -69 10zM426 1798l225 -153l230 165q23 -8 44 -28.5t27 -44.5l-229 -221q-86 -9 -143 0l-228 213q8 25 30 43.5t44 25.5z" />
    <glyph glyph-name="ccaron" unicode="&#x10d;" horiz-adv-x="960" 
d="M727 649q3 47 -6.5 91t-32.5 82.5t-67.5 61.5t-106.5 23q-115 0 -182.5 -106.5t-67.5 -306.5q0 -192 68.5 -290t193.5 -98q47 0 97.5 18.5t83.5 39t81 55.5q24 -14 45 -41.5t27 -54.5q-158 -148 -354 -148q-85 0 -154 29.5t-114 78.5t-75.5 117t-43.5 141t-13 153
q0 134 34.5 239.5t93 168.5t131 95.5t153.5 32.5q92 0 164 -30t111.5 -76.5t59 -94.5t19.5 -92q0 -45 -16 -69.5t-63 -24.5q-29 0 -66 6zM324 1460l194 -190l207 200q50 -17 74 -69l-219 -271q-51 -18 -131 -2l-207 261q14 25 36.5 45t45.5 26z" />
    <glyph glyph-name="Dcaron" unicode="&#x10e;" horiz-adv-x="1306" 
d="M1186 698q0 -135 -14 -232t-62.5 -197.5t-134.5 -172.5q-60 -51 -157.5 -77.5t-186.5 -26.5q-60 0 -416 8l-12 12v1374l12 13q178 6 416 6q88 0 186 -27t158 -78q123 -105 167 -251.5t44 -350.5zM1020 698q0 62 -3.5 115.5t-14.5 114t-28.5 108.5t-47.5 94t-70 76.5
t-98 49t-129 18.5q-47 0 -132 1t-139 1v-1151q54 0 139 -1t132 -1q71 0 129 18.5t98 49t70 76.5t47.5 94.5t28.5 108.5t14.5 113t3.5 115zM393 1796l225 -154l230 166q23 -8 44.5 -28.5t27.5 -44.5l-230 -222q-86 -9 -143 0l-228 213q8 25 30 44t44 26z" />
    <glyph glyph-name="dcaron" unicode="&#x10f;" horiz-adv-x="1144" 
d="M104 489q0 135 34 240.5t90.5 167.5t122.5 93.5t136 31.5q122 0 256 -84v555l13 12h55q48 0 64 -23.5t16 -78.5v-1120q0 -163 57 -220q-8 -22 -26.5 -44.5t-40.5 -32.5q-96 34 -125 137q-57 -66 -135.5 -107t-171.5 -41q-165 0 -255 140t-90 374zM477 106q70 0 142 42
t124 116v535q-137 92 -241 92q-102 0 -173 -101t-71 -301q0 -192 62.5 -287.5t156.5 -95.5zM1020 1159l27 416q38 5 82.5 -0.5t74.5 -24.5l-90 -397q-47 -18 -94 6z" />
    <glyph glyph-name="Eogonek" unicode="&#x118;" horiz-adv-x="1163" 
d="M1040 137q0 -42 -4 -65q-9 -51 -53 -66q-1 0 -2 -1t-2 -1q-91 -38 -148 -103.5t-57 -129.5q0 -50 30 -77.5t79 -27.5q57 0 129 37q39 -31 39 -82q-34 -28 -90.5 -46.5t-112.5 -18.5q-92 0 -149.5 49t-57.5 137q0 72 43.5 140.5t114.5 117.5h-508q-40 0 -64 27.5t-24 74.5
v1284l12 13h791q4 -25 4 -64q0 -37 -11 -71h-522q-10 0 -34.5 -0.5t-47.5 -0.5t-43 1q0 -26 1 -63t1 -64v-363q24 0 66 1t57 1h424q6 -37 6 -67q0 -33 -6 -68h-424q-78 0 -123 2v-432q0 -15 -1 -40t-1 -38q70 4 127 4h561z" />
    <glyph glyph-name="eogonek" unicode="&#x119;" horiz-adv-x="1030" 
d="M901 457h-635q10 -348 264 -348q139 0 297 86q21 -18 37 -48.5t19 -56.5q-65 -47 -154 -78q-71 -57 -110 -122t-39 -119q0 -50 29.5 -77.5t78.5 -27.5q61 0 129 37q39 -31 39 -82q-34 -28 -90.5 -46.5t-112.5 -18.5q-92 0 -149.5 49t-57.5 137q0 121 121 235
q-20 -2 -57 -2q-89 0 -159 28.5t-115.5 76.5t-75 116.5t-42 144t-12.5 163.5q0 233 109 379.5t301 146.5q96 0 172 -34t124 -94t73.5 -139t25.5 -171q0 -74 -10 -135zM516 913q-113 0 -177.5 -92t-72.5 -248h492v27q0 138 -59.5 225.5t-182.5 87.5z" />
    <glyph glyph-name="Ecaron" unicode="&#x11a;" horiz-adv-x="1153" 
d="M1040 137q0 -42 -4 -65q-15 -72 -100 -72h-645q-40 0 -64 27.5t-24 74.5v1284l12 13h791q4 -25 4 -64q0 -37 -11 -71h-522q-10 0 -34.5 -0.5t-47.5 -0.5t-43 1q0 -26 1 -63t1 -64v-363q24 0 66 1t57 1h424q6 -37 6 -67q0 -33 -6 -68h-424q-78 0 -123 2v-432q0 -15 -1 -40
t-1 -38q70 4 127 4h561zM387 1796l225 -154l230 166q23 -8 44 -28.5t27 -44.5l-229 -222q-86 -9 -143 0l-228 213q8 25 30 44t44 26z" />
    <glyph glyph-name="ecaron" unicode="&#x11b;" horiz-adv-x="1030" 
d="M901 457h-635q10 -348 264 -348q139 0 297 86q21 -18 37 -48.5t19 -56.5q-73 -51 -172.5 -83t-200.5 -32q-89 0 -159 28.5t-115.5 76.5t-75 116.5t-42 144t-12.5 163.5q0 233 109 379.5t301 146.5q96 0 172 -34t124 -94t73.5 -139t25.5 -171q0 -74 -10 -135zM516 913
q-113 0 -177.5 -92t-72.5 -248h492v27q0 138 -59.5 225.5t-182.5 87.5zM332 1460l195 -190l206 200q50 -17 74 -69l-219 -271q-51 -18 -131 -2l-207 261q14 25 36.5 45t45.5 26z" />
    <glyph glyph-name="Hbar" unicode="&#x126;" horiz-adv-x="1388" 
d="M369 0q-30 -6 -80 -6q-46 0 -76 6v1018h-154q-6 30 -6 65q0 38 6 68h154v248q30 6 76 6q50 0 80 -6v-248h649v248q30 6 78 6q46 0 80 -6v-248h153q6 -30 6 -68q0 -35 -6 -65h-153v-1018q-34 -6 -80 -6q-48 0 -78 6v504q0 29 1 76.5t1 74.5q-7 0 -61.5 -1t-61.5 -1h-405
q-7 0 -62 1t-63 1q0 -27 1 -74.5t1 -76.5v-504zM897 793q7 0 61.5 -1t61.5 -1q0 27 -1 74.5t-1 76.5v76h-649v-76q0 -29 -1 -76.5t-1 -74.5q8 0 63 1t62 1h405z" />
    <glyph glyph-name="hbar" unicode="&#x127;" horiz-adv-x="1120" 
d="M336 1403v-117l344 4q6 -30 6 -57t-6 -57l-344 4v-306q70 67 164 107.5t188 40.5q71 0 123 -25.5t81.5 -71t43.5 -101.5t14 -124v-505q0 -113 25 -175q-37 -32 -96 -32q-42 0 -60 24t-18 76v565q0 125 -32.5 177.5t-119.5 52.5q-78 0 -165.5 -44.5t-147.5 -113.5v-725
q-30 -6 -74 -6q-46 0 -76 6v1178l-139 -2q-6 30 -6 57t6 57l139 -2v205l13 12h55q50 0 66 -23.5t16 -78.5z" />
    <glyph glyph-name="Itilde" unicode="&#x128;" horiz-adv-x="577" 
d="M211 0v1399q27 6 76 6q45 0 80 -6v-1399q-35 -6 -80 -6q-49 0 -76 6zM324 1546l-125 60q-41 18 -70 18q-43 0 -86 -51l-25 -33q-25 1 -46.5 14.5t-30.5 32.5l16 41q26 62 76.5 97.5t109.5 35.5q53 0 111 -28l125 -60q36 -18 70 -18q42 0 86 51l24 33q24 -1 45.5 -15.5
t32.5 -35.5l-16 -39q-29 -65 -79.5 -98t-107.5 -33q-52 0 -110 28z" />
    <glyph glyph-name="itilde" unicode="&#x129;" horiz-adv-x="524" 
d="M348 864v-864q-30 -6 -74 -6q-47 0 -77 6v791q0 57 -18 77.5t-66 20.5h-19q-8 27 -8 57q0 28 8 55q82 11 103 11h16q64 0 99.5 -40t35.5 -108zM270 1169l-125 62q-40 18 -69 18q-42 0 -84 -53l-27 -33q-26 2 -48.5 15t-29.5 34l19 41q28 63 76.5 98t107.5 35
q53 0 111 -28l125 -60q36 -18 69 -18q44 0 84 53l27 31q25 -2 47 -15.5t31 -33.5l-19 -41q-30 -65 -79 -99t-105 -34q-53 0 -111 28z" />
    <glyph glyph-name="dotlessi" unicode="&#x131;" horiz-adv-x="524" 
d="M348 864v-864q-30 -6 -74 -6q-47 0 -77 6v791q0 57 -18 77.5t-66 20.5h-19q-8 27 -8 57q0 28 8 55q82 11 103 11h16q64 0 99.5 -40t35.5 -108z" />
    <glyph glyph-name="IJ" unicode="&#x132;" horiz-adv-x="1470" 
d="M211 0v1399q27 6 76 6q45 0 80 -6v-1399q-35 -6 -80 -6q-49 0 -76 6zM662 184q49 -30 114 -49.5t125 -19.5q132 0 185 79t53 269v936q34 6 82 6q45 0 75 -6v-905q0 -95 -7.5 -164.5t-31.5 -139t-65.5 -113t-112.5 -70.5t-170 -27q-79 0 -163.5 22.5t-147.5 60.5
q15 68 64 121z" />
    <glyph glyph-name="ij" unicode="&#x133;" horiz-adv-x="1062" 
d="M348 864v-864q-30 -6 -74 -6q-47 0 -77 6v791q0 57 -18 77.5t-66 20.5h-19q-8 27 -8 57q0 28 8 55q82 11 103 11h16q64 0 99.5 -40t35.5 -108zM133 1280q0 48 14 76q33 20 93 20q62 0 92 -20q14 -28 14 -76t-14 -76q-12 -9 -40.5 -15.5t-51.5 -6.5q-56 0 -93 22
q-14 28 -14 76zM887 864v-837q0 -178 -10 -238q-21 -118 -106 -179q-50 -35 -128 -59q-36 36 -47 97q83 43 111 96.5t28 157.5v889q0 57 -18 77.5t-66 20.5h-37q-8 40 -8 57q0 15 8 55q83 11 125 11h17q61 0 96 -40t35 -108zM672 1280q0 48 14 76q33 20 92 20q62 0 92 -20
q15 -30 15 -76t-15 -76q-12 -9 -40.5 -15.5t-51.5 -6.5q-55 0 -92 22q-14 28 -14 76z" />
    <glyph glyph-name="Jcircumflex" unicode="&#x134;" horiz-adv-x="892" 
d="M84 184q49 -30 114.5 -49.5t125.5 -19.5q132 0 184.5 79t52.5 269v936q34 6 82 6q46 0 76 -6v-905q0 -95 -7.5 -164.5t-31.5 -139t-65.5 -113t-112.5 -70.5t-170 -27q-79 0 -164.5 22.5t-147.5 60.5q15 68 64 121zM866 1511l-223 154l-231 -166q-23 10 -43.5 30.5
t-26.5 43.5l227 221q73 11 146 0l227 -211q-9 -26 -31 -46t-45 -26z" />
    <glyph glyph-name="jcircumflex" unicode="&#x135;" horiz-adv-x="538" 
d="M360 864v-837v-25q0 -91 -2 -133t-13.5 -104t-36.5 -93.5t-72 -65t-119 -55.5q-36 36 -47 97q83 43 111 96.5t28 157.5v889q0 57 -18 77.5t-66 20.5h-37q-8 40 -8 57q0 15 8 55q83 11 125 11h16q61 0 96 -40t35 -108zM444 1112l-194 193l-207 -203q-50 20 -74 72l217 270
q51 15 133 2l207 -260q-27 -55 -82 -74z" />
    <glyph glyph-name="Kcommaaccent" unicode="&#x136;" horiz-adv-x="1193" 
d="M1149 43q-16 -25 -48 -39t-61 -14q-48 0 -69.5 22.5t-42.5 79.5l-131 334q-49 125 -110 175t-163 50q-80 0 -166 -4v-647q-30 -6 -79 -6q-46 0 -76 6v1399q30 6 76 6q49 0 79 -6v-613l150 5q25 0 39.5 11t30.5 38l301 487q27 43 47.5 59.5t62.5 16.5q22 0 84 -4l12 -17
l-344 -557q-30 -49 -63 -75q97 -14 152.5 -74.5t109.5 -188.5l125 -319q35 -85 84 -125zM717 -119q16 -36 16 -94q0 -93 -59.5 -171t-161.5 -124q-42 16 -53 70q114 80 114 192q0 57 -26 107q34 21 83.5 26t86.5 -6z" />
    <glyph glyph-name="kcommaaccent" unicode="&#x137;" horiz-adv-x="1003" 
d="M780 367l80 -181q53 -120 98 -153q-14 -19 -42.5 -32t-57.5 -13q-47 0 -70.5 24.5t-48.5 81.5l-94 213q-39 90 -79.5 121t-125.5 31q-50 0 -110 -8v-451q-30 -6 -74 -6q-46 0 -76 6v1493l13 12h55q50 0 66 -23.5t16 -78.5v-823l88 4q28 0 47 28l219 324q27 41 50 58.5
t65 17.5q17 0 75 -4l13 -17l-260 -379q-24 -38 -49 -57q71 -13 117 -57t85 -131zM637 -119q16 -36 16 -94q0 -93 -59.5 -171t-161.5 -124q-42 16 -53 70q115 81 115 192q0 55 -27 107q34 21 83.5 26t86.5 -6z" />
    <glyph glyph-name="kgreenlandic" unicode="&#x138;" horiz-adv-x="1003" 
d="M780 367l80 -181q53 -120 98 -153q-14 -19 -42.5 -32t-57.5 -13q-47 0 -70.5 24.5t-48.5 81.5l-94 213q-39 90 -79.5 121t-125.5 31q-50 0 -110 -8v-451q-30 -6 -74 -6q-46 0 -76 6v999l13 13h55q49 0 65.5 -24.5t16.5 -80.5v-327l88 4q28 0 47 28l219 324q27 41 50 58.5
t65 17.5q17 0 75 -4l13 -17l-260 -379q-24 -38 -49 -57q71 -13 117 -57t85 -131z" />
    <glyph glyph-name="Ldot" unicode="&#x13f;" horiz-adv-x="1036" 
d="M537 139h436q0 -44 -6 -67q-12 -72 -101 -72h-573q-39 0 -64.5 27t-25.5 77v1289l12 12h61q50 0 66 -23.5t16 -78.5v-1170q92 6 179 6zM690 715q0 60 12 84q45 20 91 20q50 0 90 -20q14 -28 14 -84t-14 -84q-11 -8 -39.5 -14.5t-50.5 -6.5q-53 0 -91 21q-12 24 -12 84z
" />
    <glyph glyph-name="ldot" unicode="&#x140;" horiz-adv-x="657" 
d="M401 117h86q15 -30 15 -82q0 -23 -2 -31q-82 -12 -150 -12q-80 0 -127 44t-47 126v1331l12 12h56q50 0 66 -23.5t16 -78.5v-1198q0 -88 75 -88zM473 715q0 60 12 84q45 20 90 20q20 0 49 -6.5t42 -13.5q14 -28 14 -84t-14 -84q-10 -7 -39.5 -14t-51.5 -7q-52 0 -90 21
q-12 24 -12 84z" />
    <glyph glyph-name="Lslash" unicode="&#x141;" horiz-adv-x="1044" 
d="M369 1303v-515l385 127l10 -6q16 -61 2 -127l-397 -129v-520q92 6 176 6h436q0 -44 -4 -67q-12 -72 -100 -72h-574q-40 0 -66 27t-26 77v504l-139 -47l-11 6q-18 59 -4 125l154 51v650l12 12h64q49 0 65.5 -23.5t16.5 -78.5z" />
    <glyph glyph-name="lslash" unicode="&#x142;" horiz-adv-x="638" 
d="M453 117h86q12 -30 12 -82q0 -23 -2 -31q-78 -12 -150 -12q-78 0 -125 44.5t-47 125.5v512l-145 -78l-10 6q-15 56 -2 121l157 86v684l13 12h55q50 0 66 -23.5t16 -78.5v-512l166 90l12 -6q15 -60 2 -121l-180 -98v-551q0 -88 76 -88z" />
    <glyph glyph-name="Nacute" unicode="&#x143;" horiz-adv-x="1374" 
d="M1161 1405l13 -10v-1395q-40 -6 -97 -6t-98 6l-498 928q-61 115 -139 282h-6q12 -381 12 -442v-768q-44 -6 -74 -6q-33 0 -71 6v1399q38 6 92 6q57 0 98 -6l498 -928q30 -56 77.5 -155t65.5 -134h6q-14 263 -14 467v654q0 56 16.5 79t65.5 23h53zM512 1579l391 227
q27 -17 48.5 -56t29.5 -81l-420 -176q-19 13 -32.5 37.5t-16.5 48.5z" />
    <glyph glyph-name="nacute" unicode="&#x144;" horiz-adv-x="1116" 
d="M948 702v-507q0 -117 23 -175q-32 -32 -97 -32q-42 0 -59.5 24t-17.5 76v567q0 125 -32 177.5t-118 52.5q-79 0 -167 -44.5t-148 -113.5v-727q-30 -6 -74 -6q-48 0 -78 6v999l13 13h57q49 0 65.5 -25.5t16.5 -81.5v-28q69 66 163 105.5t189 39.5q137 0 200.5 -88.5
t63.5 -231.5zM434 1163l281 316q40 -12 75 -44.5t50 -70.5l-334 -266q-23 6 -43 24.5t-29 40.5z" />
    <glyph glyph-name="Ncaron" unicode="&#x147;" horiz-adv-x="1374" 
d="M1161 1405l13 -10v-1395q-40 -6 -97 -6t-98 6l-498 928q-61 115 -139 282h-6q12 -381 12 -442v-768q-44 -6 -74 -6q-33 0 -71 6v1399q38 6 92 6q57 0 98 -6l498 -928q30 -56 77.5 -155t65.5 -134h6q-14 263 -14 467v654q0 56 16.5 79t65.5 23h53zM467 1796l225 -154
l230 166q23 -8 44 -28.5t27 -44.5l-229 -222q-86 -9 -143 0l-228 213q8 25 30 44t44 26z" />
    <glyph glyph-name="ncaron" unicode="&#x148;" horiz-adv-x="1116" 
d="M948 702v-507q0 -117 23 -175q-32 -32 -97 -32q-42 0 -59.5 24t-17.5 76v567q0 125 -32 177.5t-118 52.5q-79 0 -167 -44.5t-148 -113.5v-727q-30 -6 -74 -6q-48 0 -78 6v999l13 13h57q49 0 65.5 -25.5t16.5 -81.5v-28q69 66 163 105.5t189 39.5q137 0 200.5 -88.5
t63.5 -231.5zM377 1460l194 -190l207 200q50 -17 74 -69l-219 -271q-51 -18 -131 -2l-207 261q14 25 36.5 45t45.5 26z" />
    <glyph glyph-name="OE" unicode="&#x152;" horiz-adv-x="1812" 
d="M1702 137q0 -42 -6 -65q-12 -72 -101 -72h-675q-19 -2 -71 -9.5t-95 -11.5t-84 -4q-204 0 -336 119q-111 99 -164 260t-53 346q0 183 53 344.5t164 260.5q131 118 336 118q39 0 81.5 -4t96 -11t72.5 -9h747q4 -25 4 -64q0 -40 -10 -71h-522q-10 0 -34.5 -0.5t-47.5 -0.5
t-43 1q0 -26 1 -63t1 -64v-363q24 0 66 1t57 1h424q6 -37 6 -67q0 -33 -6 -68h-424q-78 0 -123 2v-432q0 -15 -1 -39t-1 -39q70 4 127 4h561zM668 106q93 0 196 21v1143q-112 22 -194 22q-76 0 -137 -25t-102.5 -70t-71 -101t-46 -125t-23.5 -134.5t-7 -136.5
q0 -86 10 -164.5t36.5 -159t68 -138.5t111 -95t159.5 -37z" />
    <glyph glyph-name="oe" unicode="&#x153;" horiz-adv-x="1728" 
d="M1604 457h-637q10 -348 264 -348q139 0 297 86q21 -18 36.5 -48.5t18.5 -56.5q-73 -51 -172.5 -83t-200.5 -32q-241 0 -333 203q-101 -203 -347 -203q-171 0 -280 109q-144 144 -144 418t144 418q107 110 280 110q252 0 351 -213q49 101 134 157t202 56q96 0 172 -34
t124 -94t73.5 -139t25.5 -171q0 -70 -8 -135zM264 502q0 -63 8 -119.5t27.5 -110.5t49.5 -92.5t77 -62t106 -23.5q73 0 127 34.5t84 94.5t44 129.5t14 149.5t-14 149.5t-44 129.5t-84 95t-127 35q-74 0 -128 -35t-83.5 -95t-43 -129.5t-13.5 -149.5zM1217 913
q-112 0 -176.5 -91t-73.5 -249h489v23q0 142 -58 229.5t-181 87.5z" />
    <glyph glyph-name="Racute" unicode="&#x154;" horiz-adv-x="1212" 
d="M1073 999q0 -138 -71.5 -236.5t-196.5 -135.5q84 -28 137 -166l107 -277q15 -37 22.5 -54.5t25.5 -45.5t40 -45q-16 -24 -48 -37.5t-61 -13.5q-44 0 -67.5 23.5t-45.5 78.5l-118 311q-34 93 -83 141t-143 48h-213v-590q-34 -6 -79 -6q-46 0 -76 6v1386l12 13
q50 1 134.5 2.5t153 2.5t126.5 1q212 0 328 -107.5t116 -298.5zM358 1276v-555q86 4 269 4q81 0 138.5 24t87.5 65.5t43 86.5t13 98q0 54 -13 99.5t-43 87t-87.5 65t-138.5 23.5q-193 0 -269 2zM424 1579l391 227q27 -17 48.5 -56t29.5 -81l-420 -176q-19 13 -32.5 37.5
t-16.5 48.5z" />
    <glyph glyph-name="racute" unicode="&#x155;" horiz-adv-x="722" 
d="M125 934q6 22 25 47.5t40 38.5q116 -43 148 -182q38 81 107 130.5t167 49.5q43 0 95 -8q0 -89 -35 -144q-25 2 -72 2q-165 0 -250 -186v-682q-30 -6 -74 -6q-47 0 -77 6v725q0 71 -21.5 125.5t-52.5 83.5zM272 1163l281 316q40 -12 75 -44.5t50 -70.5l-334 -266
q-23 6 -43 24.5t-29 40.5z" />
    <glyph glyph-name="Rcommaaccent" unicode="&#x156;" horiz-adv-x="1212" 
d="M1073 999q0 -138 -71.5 -236.5t-196.5 -135.5q84 -28 137 -166l107 -277q15 -37 22.5 -54.5t25.5 -45.5t40 -45q-16 -24 -48 -37.5t-61 -13.5q-44 0 -67.5 23.5t-45.5 78.5l-118 311q-34 93 -83 141t-143 48h-213v-590q-34 -6 -79 -6q-46 0 -76 6v1386l12 13
q50 1 134.5 2.5t153 2.5t126.5 1q212 0 328 -107.5t116 -298.5zM358 1276v-555q86 4 269 4q81 0 138.5 24t87.5 65.5t43 86.5t13 98q0 54 -13 99.5t-43 87t-87.5 65t-138.5 23.5q-193 0 -269 2zM717 -119q16 -36 16 -94q0 -93 -59.5 -171t-161.5 -124q-42 16 -53 70
q114 80 114 192q0 57 -26 107q34 21 83.5 26t86.5 -6z" />
    <glyph glyph-name="rcommaaccent" unicode="&#x157;" horiz-adv-x="722" 
d="M125 934q6 22 25 47.5t40 38.5q116 -43 148 -182q38 81 107 130.5t167 49.5q43 0 95 -8q0 -89 -35 -144q-25 2 -72 2q-165 0 -250 -186v-682q-30 -6 -74 -6q-47 0 -77 6v725q0 71 -21.5 125.5t-52.5 83.5zM371 -119q16 -36 16 -94q0 -93 -59.5 -171t-161.5 -124
q-42 16 -53 70q114 80 114 192q0 57 -26 107q34 21 83.5 26t86.5 -6z" />
    <glyph glyph-name="Rcaron" unicode="&#x158;" horiz-adv-x="1212" 
d="M1073 999q0 -138 -71.5 -236.5t-196.5 -135.5q84 -28 137 -166l107 -277q15 -37 22.5 -54.5t25.5 -45.5t40 -45q-16 -24 -48 -37.5t-61 -13.5q-44 0 -67.5 23.5t-45.5 78.5l-118 311q-34 93 -83 141t-143 48h-213v-590q-34 -6 -79 -6q-46 0 -76 6v1386l12 13
q50 1 134.5 2.5t153 2.5t126.5 1q212 0 328 -107.5t116 -298.5zM358 1276v-555q86 4 269 4q81 0 138.5 24t87.5 65.5t43 86.5t13 98q0 54 -13 99.5t-43 87t-87.5 65t-138.5 23.5q-193 0 -269 2zM379 1796l225 -154l230 166q23 -8 44 -28.5t27 -44.5l-229 -222q-86 -9 -144 0
l-227 213q8 25 30 44t44 26z" />
    <glyph glyph-name="rcaron" unicode="&#x159;" horiz-adv-x="722" 
d="M125 934q6 22 25 47.5t40 38.5q116 -43 148 -182q38 81 107 130.5t167 49.5q43 0 95 -8q0 -89 -35 -144q-25 2 -72 2q-165 0 -250 -186v-682q-30 -6 -74 -6q-47 0 -77 6v725q0 71 -21.5 125.5t-52.5 83.5zM215 1460l195 -190l206 200q50 -17 74 -69l-219 -271
q-51 -18 -131 -2l-207 261q14 25 36.5 45t45.5 26z" />
    <glyph glyph-name="Sacute" unicode="&#x15a;" horiz-adv-x="1136" 
d="M80 129q3 34 24 69t48 56q95 -64 202.5 -102.5t206.5 -38.5q143 0 227.5 60.5t85.5 164.5q3 162 -217 258l-239 104q-136 60 -206.5 142.5t-70.5 201.5q0 159 123 269t322 110q203 0 407 -98q0 -35 -17.5 -71.5t-45.5 -59.5q-190 96 -338 96q-129 0 -210 -64.5
t-81 -166.5q0 -78 52 -127t147 -90l231 -101q305 -132 305 -370q0 -180 -122 -288t-359 -108q-126 0 -251.5 41.5t-223.5 112.5zM410 1579l391 227q27 -17 48.5 -56t29.5 -81l-420 -176q-19 13 -32.5 37.5t-16.5 48.5z" />
    <glyph glyph-name="sacute" unicode="&#x15b;" horiz-adv-x="888" 
d="M76 78q1 28 18.5 59.5t40.5 50.5q168 -94 291 -94q96 0 155.5 44.5t61.5 115.5q0 51 -39 94.5t-110 69.5l-115 45q-262 98 -262 285q0 128 99 205t243 77q74 0 160.5 -19t150.5 -48q0 -31 -13 -64.5t-34 -54.5q-143 63 -268 63q-80 0 -131.5 -41t-51.5 -108q0 -51 37 -85
t117 -65l121 -47q122 -47 188 -118.5t66 -178.5q0 -134 -104.5 -211.5t-272.5 -77.5q-185 0 -348 103zM313 1163l281 316q40 -12 75 -44.5t50 -70.5l-334 -266q-23 6 -43 24.5t-29 40.5z" />
    <glyph glyph-name="Scaron" unicode="&#x160;" horiz-adv-x="1136" 
d="M80 129q3 34 24 69t48 56q95 -64 202.5 -102.5t206.5 -38.5q143 0 227.5 60.5t85.5 164.5q3 162 -217 258l-239 104q-136 60 -206.5 142.5t-70.5 201.5q0 159 123 269t322 110q203 0 407 -98q0 -35 -17.5 -71.5t-45.5 -59.5q-190 96 -338 96q-129 0 -210 -64.5
t-81 -166.5q0 -78 52 -127t147 -90l231 -101q305 -132 305 -370q0 -180 -122 -288t-359 -108q-126 0 -251.5 41.5t-223.5 112.5zM365 1796l225 -154l229 166q23 -8 44.5 -28.5t27.5 -44.5l-229 -222q-86 -9 -144 0l-227 213q8 25 30 44t44 26z" />
    <glyph glyph-name="scaron" unicode="&#x161;" horiz-adv-x="888" 
d="M76 78q1 28 18.5 59.5t40.5 50.5q168 -94 291 -94q96 0 155.5 44.5t61.5 115.5q0 51 -39 94.5t-110 69.5l-115 45q-262 98 -262 285q0 128 99 205t243 77q74 0 160.5 -19t150.5 -48q0 -31 -13 -64.5t-34 -54.5q-143 63 -268 63q-80 0 -131.5 -41t-51.5 -108q0 -51 37 -85
t117 -65l121 -47q122 -47 188 -118.5t66 -178.5q0 -134 -104.5 -211.5t-272.5 -77.5q-185 0 -348 103zM256 1460l195 -190l206 200q50 -17 74 -69l-219 -271q-51 -18 -131 -2l-207 261q14 25 36.5 45t45.5 26z" />
    <glyph glyph-name="Tcaron" unicode="&#x164;" horiz-adv-x="989" 
d="M416 0v1266q-14 0 -56 -1t-55 -1h-262q-6 34 -6 67q0 31 6 68h901q12 -27 12 -66q0 -36 -23 -52.5t-73 -16.5h-174q-12 0 -55.5 1t-57.5 1v-1266q-35 -6 -77 -6q-46 0 -80 6zM268 1796l226 -154l229 166q23 -8 44.5 -28.5t27.5 -44.5l-230 -222q-86 -9 -143 0l-227 213
q9 25 30 44.5t43 25.5z" />
    <glyph glyph-name="tcaron" unicode="&#x165;" horiz-adv-x="694" 
d="M625 1006q6 -30 6 -58q0 -29 -6 -59l-260 2v-688q0 -86 79 -86h156q14 -35 14 -82q0 -23 -4 -31q-94 -12 -207 -12q-87 0 -136.5 44t-49.5 126v729l-145 -2q-6 30 -6 59q0 28 6 58l145 -2v215q0 55 16 78.5t64 23.5h55l13 -12v-308zM498 1159l26 416q38 5 83 -0.5
t75 -24.5l-90 -397q-47 -18 -94 6z" />
    <glyph glyph-name="Uring" unicode="&#x16e;" horiz-adv-x="1363" 
d="M1180 1399v-922q0 -243 -136.5 -372.5t-363.5 -129.5q-224 0 -359 129.5t-135 372.5v916l13 12h61q50 0 66 -23.5t16 -78.5v-824q0 -181 89.5 -278t250.5 -97q162 0 251 96.5t89 278.5v920q30 6 76 6q48 0 82 -6zM457 1591q0 89 64.5 152t160.5 63t160.5 -63t64.5 -152
q0 -90 -64.5 -153.5t-160.5 -63.5t-160.5 63.5t-64.5 153.5zM578 1591q0 -51 29.5 -83.5t74.5 -32.5t74.5 32.5t29.5 83.5q0 49 -30 82t-74 33t-74 -33t-30 -82z" />
    <glyph glyph-name="uring" unicode="&#x16f;" horiz-adv-x="1118" 
d="M170 301v510q0 109 -25 174q37 33 97 33q42 0 59.5 -24t17.5 -76v-568q0 -126 32.5 -178.5t119.5 -52.5q77 0 165 44t148 113v728q27 8 74 8q51 0 78 -8v-721q0 -78 11 -132.5t46 -87.5q-8 -23 -27 -45t-42 -32q-102 36 -129 151q-70 -70 -167.5 -112.5t-195.5 -42.5
q-137 0 -199.5 88t-62.5 231zM325 1315q0 89 65 152t161 63t160.5 -63t64.5 -152q0 -90 -64.5 -153.5t-160.5 -63.5t-161 63.5t-65 153.5zM446 1315q0 -51 30 -84t75 -33t74.5 33t29.5 84q0 49 -30 82t-74 33t-74.5 -33t-30.5 -82z" />
    <glyph glyph-name="Ydieresis" unicode="&#x178;" horiz-adv-x="985" 
d="M594 862l213 537q31 8 70 8q37 0 75 -10l6 -13l-385 -929v-455q-35 -6 -79 -6q-48 0 -78 6v461l-385 919q53 33 102 33q59 0 86 -76l197 -475q27 -61 84 -235h10q9 31 26 79t36 98t22 58zM702 1692q52 0 86 -17q13 -44 13 -73q0 -32 -13 -76q-28 -17 -86 -17
q-61 0 -84 17q-16 36 -16 76q0 37 16 73q27 17 84 17zM297 1692q57 0 84 -17q14 -38 14 -73q0 -38 -14 -76q-23 -17 -84 -17q-58 0 -86 17q-12 40 -12 76q0 32 12 73q34 17 86 17z" />
    <glyph glyph-name="Zacute" unicode="&#x179;" horiz-adv-x="1132" 
d="M133 184l551 858q22 35 158 226l-6 6q-69 -14 -322 -14h-348q-6 27 -6 55q0 41 12 84h811q23 -84 23 -109q0 -26 -25 -71l-547 -848q-20 -32 -46.5 -70.5t-63.5 -90t-52 -73.5l7 -6q107 10 215 10h268q176 0 246 33q14 -44 14 -82q0 -92 -115 -92h-776q-22 75 -22 106
q0 39 24 78zM395 1579l391 227q27 -17 48.5 -56t29.5 -81l-420 -176q-19 13 -32.5 37.5t-16.5 48.5z" />
    <glyph glyph-name="zacute" unicode="&#x17a;" horiz-adv-x="909" 
d="M111 158l385 528q9 12 159 199l-6 6q-82 -10 -282 -10h-246q-4 18 -4 53q0 37 8 70h668q26 -64 26 -97q0 -25 -24 -59l-379 -516q-56 -75 -162 -207l6 -6q108 6 205 6h113q169 0 237 25q12 -35 12 -72q0 -39 -24.5 -58.5t-85.5 -19.5h-608q-25 74 -25 94q0 28 27 64z
M325 1163l281 316q40 -12 75 -44.5t50 -70.5l-334 -266q-23 6 -43 24.5t-29 40.5z" />
    <glyph glyph-name="Zdotaccent" unicode="&#x17b;" horiz-adv-x="1132" 
d="M133 184l551 858q22 35 158 226l-6 6q-69 -14 -322 -14h-348q-6 27 -6 55q0 41 12 84h811q23 -84 23 -109q0 -26 -25 -71l-547 -848q-20 -32 -46.5 -70.5t-63.5 -90t-52 -73.5l7 -6q107 10 215 10h268q176 0 246 33q14 -44 14 -82q0 -92 -115 -92h-776q-22 75 -22 106
q0 39 24 78zM469 1620q0 46 14 78q33 20 92 20q63 0 93 -20q14 -32 14 -78q0 -44 -14 -76q-11 -8 -40 -14t-53 -6q-59 0 -92 20q-14 32 -14 76z" />
    <glyph glyph-name="zdotaccent" unicode="&#x17c;" horiz-adv-x="909" 
d="M111 158l385 528q9 12 159 199l-6 6q-82 -10 -282 -10h-246q-4 18 -4 53q0 37 8 70h668q26 -64 26 -97q0 -25 -24 -59l-379 -516q-56 -75 -162 -207l6 -6q108 6 205 6h113q169 0 237 25q12 -35 12 -72q0 -39 -24.5 -58.5t-85.5 -19.5h-608q-25 74 -25 94q0 28 27 64z
M352 1280q0 46 15 76q33 20 92 20q62 0 92 -20q14 -28 14 -76t-14 -76q-12 -9 -40.5 -15.5t-51.5 -6.5q-55 0 -92 22q-15 30 -15 76z" />
    <glyph glyph-name="Zcaron" unicode="&#x17d;" horiz-adv-x="1132" 
d="M133 184l551 858q22 35 158 226l-6 6q-69 -14 -322 -14h-348q-6 27 -6 55q0 41 12 84h811q23 -84 23 -109q0 -26 -25 -71l-547 -848q-20 -32 -46.5 -70.5t-63.5 -90t-52 -73.5l7 -6q107 10 215 10h268q176 0 246 33q14 -44 14 -82q0 -92 -115 -92h-776q-22 75 -22 106
q0 39 24 78zM350 1796l225 -154l230 166q23 -8 44.5 -28.5t27.5 -44.5l-230 -222q-86 -9 -143 0l-228 213q8 25 30 44t44 26z" />
    <glyph glyph-name="zcaron" unicode="&#x17e;" horiz-adv-x="909" 
d="M111 158l385 528q9 12 159 199l-6 6q-82 -10 -282 -10h-246q-4 18 -4 53q0 37 8 70h668q26 -64 26 -97q0 -25 -24 -59l-379 -516q-56 -75 -162 -207l6 -6q108 6 205 6h113q169 0 237 25q12 -35 12 -72q0 -39 -24.5 -58.5t-85.5 -19.5h-608q-25 74 -25 94q0 28 27 64z
M268 1460l195 -190l206 200q50 -17 74 -69l-219 -271q-51 -18 -131 -2l-207 261q14 25 36.5 45t45.5 26z" />
    <glyph glyph-name="dotlessj" unicode="&#x237;" horiz-adv-x="538" 
d="M362 864v-837v-25q0 -91 -2 -133t-13.5 -104t-36.5 -93.5t-72 -65t-119 -55.5q-36 36 -47 97q83 43 111 96.5t28 157.5v889q0 57 -18 77.5t-66 20.5h-37q-8 40 -8 57q0 15 8 55q82 11 125 11h16q61 0 96 -40t35 -108z" />
    <glyph glyph-name="circumflex" unicode="&#x2c6;" 
d="M602 1112l-194 193l-207 -203q-50 20 -74 72l217 270q51 15 133 2l207 -260q-27 -55 -82 -74z" />
    <glyph glyph-name="caron" unicode="&#x2c7;" 
d="M217 1460l195 -190l206 200q50 -17 74 -69l-219 -271q-51 -18 -131 -2l-207 261q14 25 36.5 45t45.5 26z" />
    <glyph glyph-name="dotaccent" unicode="&#x2d9;" 
d="M301 1280q0 48 14 76q33 20 93 20q62 0 92 -20q14 -28 14 -76t-14 -76q-12 -9 -40.5 -15.5t-51.5 -6.5q-56 0 -93 22q-14 28 -14 76z" />
    <glyph glyph-name="ring" unicode="&#x2da;" 
d="M182 1315q0 89 65 152t161 63t160.5 -63t64.5 -152q0 -90 -64.5 -153.5t-160.5 -63.5t-161 63.5t-65 153.5zM303 1315q0 -51 30 -84t75 -33t74.5 33t29.5 84q0 49 -30 82t-74 33t-74.5 -33t-30.5 -82z" />
    <glyph glyph-name="tilde" unicode="&#x2dc;" 
d="M442 1169l-125 62q-40 18 -69 18q-42 0 -84 -53l-27 -33q-26 2 -48.5 15t-29.5 34l19 41q28 63 76.5 98t107.5 35q53 0 111 -28l125 -60q36 -18 69 -18q44 0 84 53l27 31q25 -2 47 -15.5t31 -33.5l-19 -41q-30 -65 -79 -99t-105 -34q-53 0 -111 28z" />
    <glyph glyph-name="mu" unicode="&#x3bc;" horiz-adv-x="1136" 
d="M952 1004v-721q0 -162 58 -220q-8 -23 -27 -45t-41 -32q-100 34 -127 141q-116 -147 -285 -147q-127 0 -204 77v-403q0 -51 -17.5 -75.5t-58.5 -24.5q-62 0 -92 30q22 55 22 174v1246q27 8 74 8q49 0 76 -8v-654q0 -111 60 -172t157 -61q75 0 141.5 40.5t114.5 112.5v734
q24 8 74 8q51 0 75 -8z" />
    <glyph glyph-name="germandbls.cap" unicode="&#x1e9e;" horiz-adv-x="1251" 
d="M225 0v834l-176 -3q-6 30 -6 68q0 34 6 64l176 -5v86q0 182 117 284t307 102q191 0 304.5 -108.5t113.5 -289.5q0 -72 -31 -160h-4l4 -2q-95 -24 -140.5 -71t-45.5 -94q0 -63 92 -140l76 -61q153 -133 153 -260q0 -113 -97.5 -191t-252.5 -78q-60 0 -131.5 16t-124.5 44
q2 27 20 60.5t42 51.5q90 -49 190 -49q84 0 138.5 40.5t54.5 103.5q0 72 -95 155l-84 70q-71 60 -105 113t-34 112q0 79 57.5 144.5t153.5 99.5q12 44 12 84q0 128 -69 210.5t-201 82.5q-134 0 -200 -75.5t-66 -209.5v-1028q-34 -6 -76 -6q-43 0 -78 6z" />
    <glyph glyph-name="endash" unicode="&#x2013;" horiz-adv-x="1058" 
d="M922 475h-785q-6 27 -6 64q0 35 6 69h785q8 -31 8 -69q0 -40 -8 -64z" />
    <glyph glyph-name="emdash" unicode="&#x2014;" horiz-adv-x="1615" 
d="M1448 475h-1280q-6 27 -6 64q0 35 6 69h1280q6 -35 6 -69q0 -37 -6 -64z" />
    <glyph glyph-name="quoteleft" unicode="&#x2018;" horiz-adv-x="421" 
d="M113 1077q-21 47 -21 121q0 112 58 198.5t169 133.5q22 -10 35.5 -33.5t12.5 -46.5q-55 -31 -90.5 -76.5t-36.5 -97.5q63 -5 84 -21q16 -32 16 -86q0 -70 -16 -92q-14 -8 -48 -15t-61 -7q-28 0 -59.5 6t-42.5 16z" />
    <glyph glyph-name="quoteright" unicode="&#x2019;" horiz-adv-x="421" 
d="M309 1503q21 -44 21 -121q0 -112 -59 -198t-171 -133q-20 10 -33.5 33.5t-11.5 45.5q54 30 89 77t36 98q-63 5 -82 22q-16 28 -16 84q0 70 16 92q12 8 46.5 15.5t60.5 7.5q28 0 59.5 -6.5t44.5 -16.5z" />
    <glyph glyph-name="quotesinglbase" unicode="&#x201a;" horiz-adv-x="423" 
d="M324 180q20 -45 20 -121q0 -112 -58 -198t-169 -133q-21 9 -35 32t-12 47q55 29 90.5 76t36.5 99q-64 5 -84 20q-17 34 -17 86q0 68 17 92q52 23 108 23q26 0 58.5 -7t44.5 -16z" />
    <glyph glyph-name="quotedblleft" unicode="&#x201c;" horiz-adv-x="772" 
d="M113 1077q-21 47 -21 121q0 112 58 198.5t169 133.5q22 -10 35.5 -33.5t12.5 -46.5q-55 -31 -90.5 -76.5t-36.5 -97.5q63 -5 84 -21q16 -32 16 -86q0 -70 -16 -92q-14 -8 -48 -15t-61 -7q-28 0 -59.5 6t-42.5 16zM463 1077q-21 47 -21 121q0 112 58.5 198.5t169.5 133.5
q22 -10 35.5 -33.5t11.5 -46.5q-55 -31 -90.5 -76.5t-36.5 -97.5q63 -5 84 -21q16 -32 16 -86q0 -70 -16 -92q-14 -8 -48 -15t-61 -7q-28 0 -59.5 6t-42.5 16z" />
    <glyph glyph-name="quotedblright" unicode="&#x201d;" horiz-adv-x="772" 
d="M309 1503q21 -44 21 -121q0 -112 -59 -198t-171 -133q-20 10 -33.5 33.5t-11.5 45.5q54 30 89 77t36 98q-63 5 -82 22q-16 28 -16 84q0 70 16 92q12 8 46.5 15.5t60.5 7.5q28 0 59.5 -6.5t44.5 -16.5zM662 1503q20 -42 20 -121q0 -112 -58.5 -198t-170.5 -133
q-20 10 -33.5 33.5t-11.5 45.5q54 30 88.5 77t35.5 98q-62 5 -81 22q-17 30 -17 84q0 68 17 92q12 8 46.5 15.5t59.5 7.5q28 0 60 -6.5t45 -16.5z" />
    <glyph glyph-name="quotedblbase" unicode="&#x201e;" horiz-adv-x="774" 
d="M324 180q20 -45 20 -121q0 -112 -58 -198t-169 -133q-21 9 -35 32t-12 47q55 29 90.5 76t36.5 99q-64 5 -84 20q-17 34 -17 86q0 68 17 92q52 23 108 23q26 0 58.5 -7t44.5 -16zM676 180q20 -45 20 -121q0 -112 -58 -198t-169 -133q-21 9 -35 32t-12 47q55 29 90.5 76
t36.5 99q-64 5 -84 20q-16 32 -16 86q0 70 16 92q52 23 108 23q26 0 58.5 -7t44.5 -16z" />
    <glyph glyph-name="bullet" unicode="&#x2022;" horiz-adv-x="897" 
d="M242 555q0 38 7.5 90t18.5 72q29 15 83.5 28t97.5 13q42 0 99 -13.5t81 -27.5q12 -20 20 -71.5t8 -90.5q0 -37 -8 -88t-20 -74q-20 -13 -77.5 -25t-102.5 -12q-44 0 -99 11.5t-82 25.5q-11 23 -18.5 74t-7.5 88z" />
    <glyph glyph-name="guilsinglleft" unicode="&#x2039;" horiz-adv-x="659" 
d="M565 864l-301 -340l314 -352q-10 -26 -35.5 -49.5t-53.5 -34.5l-401 381q-8 22 -8 53t8 53l389 373q28 -11 53 -34.5t35 -49.5z" />
    <glyph glyph-name="guilsinglright" unicode="&#x203a;" horiz-adv-x="659" 
d="M92 172l303 340l-315 352q12 26 37 50t53 34l399 -381q9 -20 9 -52t-9 -54l-387 -373q-28 10 -53 34t-37 50z" />
    <glyph glyph-name="fraction" unicode="&#x2044;" horiz-adv-x="391" 
d="M-266 0l772 1399q25 11 75.5 11t75.5 -11l-770 -1399q-26 -10 -77 -10t-76 10z" />
    <glyph glyph-name="foursuperior" unicode="&#x2074;" horiz-adv-x="860" 
d="M471 721v168h-328q-30 49 -30 80q0 28 30 90l244 512q31 5 69.5 -4t55.5 -27l-182 -395q-50 -102 -74 -135l2 -4q45 2 119 2h94v147q0 42 23 67t59 25h45l2 -4v-235h135q6 -21 6 -54q0 -41 -12 -65h-129v-168q-19 -8 -61 -8q-44 0 -68 8z" />
    <glyph glyph-name="Euro" unicode="&#x20ac;" horiz-adv-x="1165" 
d="M1022 1092q-77 58 -162.5 90t-157.5 32q-266 0 -319 -350h469q6 -35 6 -59q0 -27 -6 -57h-479q-2 -27 -2 -84q0 -64 2 -93h479q6 -34 6 -59q0 -27 -6 -57h-467q56 -342 317 -342q71 0 157 32.5t163 90.5q59 -40 80 -105q-94 -77 -203 -116.5t-215 -39.5q-390 0 -459 480
h-157q-7 35 -7 57q0 19 7 59h145q-2 31 -2 93q0 55 2 84h-145q-7 35 -7 57q0 19 7 59h155q69 488 461 488q105 0 214.5 -40.5t203.5 -117.5q-23 -66 -80 -102z" />
    <glyph glyph-name="nbspace" horiz-adv-x="450" 
 />
    <glyph glyph-name="commaaccent" 
d="M502 -119q16 -36 16 -94q0 -93 -59.5 -171t-161.5 -124q-42 16 -53 70q114 80 114 192q0 57 -26 107q34 21 83.5 26t86.5 -6z" />
    <glyph glyph-name="grave.cap" 
d="M227 1806l391 -227q-13 -62 -49 -86l-419 176q6 42 28 81t49 56z" />
    <glyph glyph-name="acute.cap" 
d="M227 1579l391 227q27 -17 48.5 -56t29.5 -81l-420 -176q-19 13 -32.5 37.5t-16.5 48.5z" />
    <glyph glyph-name="circumflex.cap" 
d="M631 1511l-223 154l-232 -166q-23 10 -43.5 30.5t-26.5 43.5l228 221q73 11 145 0l228 -211q-9 -26 -31 -46t-45 -26z" />
    <glyph glyph-name="dieresis.cap" 
d="M610 1692q52 0 86 -17q13 -44 13 -73q0 -32 -13 -76q-28 -17 -86 -17q-61 0 -84 17q-16 36 -16 76q0 37 16 73q27 17 84 17zM205 1692q57 0 84 -17q14 -38 14 -73q0 -38 -14 -76q-23 -17 -84 -17q-58 0 -86 17q-13 44 -13 76q0 29 13 73q34 17 86 17z" />
    <glyph glyph-name="caron.cap" 
d="M182 1796l226 -154l229 166q23 -8 44.5 -28.5t27.5 -44.5l-230 -222q-86 -9 -143 0l-227 213q9 25 30 44.5t43 25.5z" />
    <glyph glyph-name="ring.cap" 
d="M182 1591q0 89 65 152t161 63t160.5 -63t64.5 -152q0 -90 -64.5 -153.5t-160.5 -63.5t-161 63.5t-65 153.5zM303 1591q0 -51 30 -83.5t75 -32.5t74.5 32.5t29.5 83.5q0 49 -30 82t-74 33t-74.5 -33t-30.5 -82z" />
    <glyph glyph-name="tilde.cap" 
d="M442 1546l-125 60q-40 18 -69 18q-43 0 -86 -51l-25 -33q-25 1 -47 14.5t-31 32.5l17 41q26 62 76.5 97.5t109.5 35.5q53 0 111 -28l125 -60q36 -18 69 -18q42 0 86 51l25 33q24 -1 45.5 -15.5t32.5 -35.5l-17 -39q-30 -65 -79.5 -98t-106.5 -33q-53 0 -111 28z" />
    <glyph glyph-name="dotaccent.cap" 
d="M301 1620q0 46 14 78q33 20 93 20q62 0 92 -20q14 -32 14 -78q0 -44 -14 -76q-27 -20 -92 -20q-60 0 -93 20q-14 32 -14 76z" />
    <glyph glyph-name="caron.alt" horiz-adv-x="823" 
d="M422 1159l27 416q38 5 82.5 -0.5t74.5 -24.5l-90 -397q-47 -18 -94 6z" />
    <glyph glyph-name="commaaccent.cap" 
d="M502 -119q16 -36 16 -94q0 -93 -59.5 -171t-161.5 -124q-42 16 -53 70q114 80 114 192q0 57 -26 107q34 21 83.5 26t86.5 -6z" />
    <glyph glyph-name="a.smcp" horiz-adv-x="1079" 
d="M416 276q-4 0 -59 1.5t-72 1.5l-103 -281q-30 -6 -67 -6q-44 0 -74 10l-4 6l414 1102q27 10 92 10q61 0 84 -10l415 -1104q-38 -18 -92 -18q-36 0 -54.5 16t-37.5 62l-78 213q-14 0 -66.5 -1.5t-56.5 -1.5h-241zM451 731l-121 -325q15 0 60.5 1t49.5 1h197q4 0 43 -1
t53 -1l-96 266q-52 143 -102 299h-9q-36 -125 -75 -240z" />
    <glyph glyph-name="b.smcp" horiz-adv-x="1103" 
d="M197 1112q26 0 154.5 3t197.5 3q391 0 391 -293q0 -79 -47.5 -142t-128.5 -89q99 -24 168 -102.5t69 -180.5q0 -67 -23.5 -122.5t-72.5 -100t-134.5 -69.5t-199.5 -25q-90 0 -221.5 3t-152.5 3l-11 10v1090zM563 524h-223v-407q42 0 121 1t121 1q77 0 131.5 18.5t80.5 50
t37 63t11 68.5q0 35 -14 68t-43.5 65.5t-87 52t-134.5 19.5zM340 995v-346h207q69 0 117.5 15t73 41.5t34.5 55t10 62.5q0 170 -231 170q-145 0 -211 2z" />
    <glyph glyph-name="c.smcp" horiz-adv-x="1087" 
d="M860 713q-1 58 -15 107.5t-44.5 93t-87 69t-133.5 25.5q-157 0 -240.5 -115.5t-83.5 -339.5q0 -210 87.5 -326t238.5 -116q160 0 333 129q27 -17 50.5 -46.5t31.5 -56.5q-81 -72 -194 -117t-244 -45q-98 0 -178 32t-133 86.5t-88.5 129.5t-51.5 157t-16 173
q0 148 39.5 262.5t108.5 183.5t156 103.5t188 34.5q105 0 189.5 -31.5t134.5 -82t76 -109t26 -117.5q0 -95 -84 -95q-24 0 -66 11z" />
    <glyph glyph-name="d.smcp" horiz-adv-x="1169" 
d="M1071 553q0 -79 -7 -139t-26 -123.5t-58.5 -117t-98.5 -97.5q-54 -41 -145.5 -61.5t-174.5 -20.5q-133 0 -364 6l-11 10v1090l11 12q234 6 364 6q82 0 174 -21.5t146 -62.5q112 -84 151 -200.5t39 -280.5zM907 553q0 69 -7 125t-29 116.5t-59 101t-101.5 67t-151.5 26.5
q-43 0 -113 1t-104 1v-874q34 0 104 1t113 1q87 0 151.5 26.5t101.5 67.5t59 101t29 115.5t7 123.5z" />
    <glyph glyph-name="e.smcp" horiz-adv-x="1028" 
d="M451 131h481q0 -39 -4 -59q-12 -72 -99 -72h-553q-41 0 -65.5 26t-24.5 70v1004l11 10h704q4 -20 4 -59q0 -41 -10 -70h-446h-111q0 -12 1 -46t1 -56v-250q21 0 58.5 1t50.5 1h354q8 -23 8 -66q0 -42 -8 -65h-354h-109v-297q0 -15 -1 -42t-1 -32q31 2 113 2z" />
    <glyph glyph-name="f.smcp" horiz-adv-x="937" 
d="M887 1110q10 -27 10 -59q0 -36 -19 -54t-69 -18h-274q-142 0 -195 2q0 -34 1 -103t1 -102v-155q18 0 50 1t46 1h357q6 -30 6 -64q0 -33 -6 -63h-357q-61 0 -96 2v-498q-34 -6 -80 -6t-76 6v1102l11 8h690z" />
    <glyph glyph-name="g.smcp" horiz-adv-x="1128" 
d="M604 571q172 4 262 4q79 0 109.5 -22.5t30.5 -75.5v-428q-211 -74 -426 -74q-107 0 -191.5 32.5t-138.5 87t-89.5 130t-50 156t-14.5 170.5q0 125 29 226t77 167t114.5 110.5t138 63.5t149.5 19q108 0 215.5 -32.5t181.5 -88.5q-7 -34 -30 -66.5t-49 -48.5
q-141 100 -324 100q-71 0 -129.5 -24t-106.5 -74.5t-75 -141t-27 -212.5q0 -445 350 -445q125 0 244 35v201q0 42 6 100h-192q-74 0 -74 70q0 34 10 61z" />
    <glyph glyph-name="h.smcp" horiz-adv-x="1241" 
d="M899 0v391q0 24 1 62.5t1 60.5q-8 0 -55.5 -1t-54.5 -1h-342q-6 0 -54 1t-55 1q0 -22 1 -60.5t1 -62.5v-391q-34 -6 -80 -6t-76 6v1110q27 8 76 8t80 -8v-346q0 -24 -1 -62t-1 -59q7 0 55 1t54 1h342q7 0 54.5 -1t55.5 -1q0 21 -1 59t-1 62v346q27 8 76 8t80 -8v-1110
q-35 -6 -80 -6q-46 0 -76 6z" />
    <glyph glyph-name="i.smcp" horiz-adv-x="542" 
d="M195 0v1110q27 8 75 8q49 0 80 -8v-1110q-34 -6 -80 -6q-45 0 -75 6z" />
    <glyph glyph-name="j.smcp" horiz-adv-x="784" 
d="M63 166q40 -24 99.5 -42t109.5 -18q108 0 153.5 64.5t45.5 204.5v735q31 8 78 8q51 0 78 -8v-735q0 -203 -83.5 -299t-260.5 -96q-148 0 -275 71q6 66 55 115z" />
    <glyph glyph-name="k.smcp" horiz-adv-x="1087" 
d="M1040 45q-17 -25 -44.5 -40t-53.5 -15q-41 0 -63 21.5t-48 74.5l-131 272q-40 85 -86.5 117.5t-132.5 32.5q-13 0 -36 -1t-54 -2.5t-49 -2.5v-502q-34 -6 -80 -6t-76 6v1110q27 8 76 8t80 -8v-475l119 6q25 1 37 9t30 32l248 367q18 25 28.5 36.5t30.5 21t48 9.5
q43 0 86 -6l14 -14l-295 -428q-19 -30 -57 -64q77 -11 125 -57.5t88 -132.5l117 -246q46 -95 79 -123z" />
    <glyph glyph-name="l.smcp" horiz-adv-x="935" 
d="M502 135h381q0 -43 -4 -63q-15 -72 -99 -72h-504q-40 0 -65 26t-25 72v1010l11 10h63q48 0 65 -22.5t17 -75.5v-893q73 8 160 8z" />
    <glyph glyph-name="m.smcp" horiz-adv-x="1470" 
d="M156 2l104 1108q35 12 107 12q70 0 100 -12l192 -557q66 -187 74 -234h8q5 44 72 234l188 557q35 12 105 12t104 -12l105 -1108q-42 -10 -84 -10q-35 0 -72 6l-53 651q-14 177 -14 293h-11l-270 -778q-35 -6 -78 -6q-44 0 -74 6l-270 778h-10q0 -116 -14 -293l-54 -651
q-37 -6 -73 -6q-49 0 -82 10z" />
    <glyph glyph-name="n.smcp" horiz-adv-x="1251" 
d="M1055 1118l10 -10v-1108q-41 -6 -92 -6q-53 0 -90 6l-426 700q-81 136 -123 215h-8q10 -173 10 -356v-559q-44 -6 -76 -6q-33 0 -74 6v1110q54 8 90 8q58 0 91 -8l430 -702q3 -5 125 -224l10 2q-19 228 -19 363v471q0 54 17 76t65 22h60z" />
    <glyph glyph-name="o.smcp" horiz-adv-x="1187" 
d="M256 555q0 -66 8.5 -126t32.5 -121.5t60.5 -106t97.5 -73t139 -28.5q79 0 140 28.5t97.5 73t60 106t32 121.5t8.5 126t-8.5 126t-32 121.5t-60 106t-97.5 73t-140 28.5q-78 0 -139 -28.5t-97.5 -73t-60.5 -106t-32.5 -121.5t-8.5 -126zM92 555q0 143 50 274.5t149 210.5
q129 97 303 97q181 0 303 -97q100 -79 149.5 -210t49.5 -275q0 -145 -49.5 -274.5t-149.5 -208.5q-126 -97 -303 -97q-174 0 -303 97q-99 79 -149 209t-50 274z" />
    <glyph glyph-name="p.smcp" horiz-adv-x="1015" 
d="M958 764q0 -172 -110.5 -262t-298.5 -90h-207v-412q-34 -6 -80 -6t-76 6v1100l11 12q30 0 155.5 3t196.5 3q186 0 297.5 -90t111.5 -264zM342 993v-456h207q71 0 122 20.5t77 55.5t37.5 72t11.5 79q0 44 -11.5 81t-37.5 71.5t-77 54.5t-122 20q-141 0 -207 2z" />
    <glyph glyph-name="q.smcp" horiz-adv-x="1189" 
d="M92 555q0 143 50 274.5t149 210.5q129 97 303 97q181 0 303 -97q100 -79 149.5 -210t49.5 -275q0 -266 -142 -426q-50 -56 -120 -92l24 -14q89 -60 140 -80.5t100 -22.5q0 -55 -36 -85t-85 -30q-56 0 -111 41l-198 140q-42 -11 -74 -11q-174 0 -303 97q-99 79 -149 209
t-50 274zM256 555q0 -66 8.5 -126t32.5 -121.5t60.5 -106t97.5 -73t139 -28.5q79 0 140 28.5t97.5 73t60 106t32 121.5t8.5 126t-8.5 126t-32 121.5t-60 106t-97.5 73t-140 28.5q-78 0 -139 -28.5t-97.5 -73t-60.5 -106t-32.5 -121.5t-8.5 -126z" />
    <glyph glyph-name="r.smcp" horiz-adv-x="1093" 
d="M977 793q0 -106 -68 -186t-174 -105q46 -19 74.5 -51t52.5 -84l90 -201q47 -100 76 -129q-14 -22 -43 -34.5t-59 -12.5q-41 0 -63.5 21.5t-43.5 70.5l-106 240q-31 71 -73 104t-126 33h-172v-459q-34 -6 -80 -6t-76 6v1100l11 12q199 6 374 6q192 0 299 -85.5t107 -239.5
zM342 995v-409q82 2 223 2q70 0 121 18.5t77.5 50t38 65t11.5 71.5t-11.5 71.5t-37.5 63.5t-76.5 47.5t-120.5 17.5q-159 0 -225 2z" />
    <glyph glyph-name="s.smcp" horiz-adv-x="997" 
d="M68 96q1 33 20 66t45 53q61 -34 107.5 -55t122 -40t149.5 -18q102 2 176 52t74 129q0 63 -47 111t-137 77l-228 76q-252 82 -252 274q0 133 102 223t283 93q101 1 204.5 -23t184.5 -61q0 -74 -57 -121q-77 34 -168.5 53.5t-167.5 18.5q-100 -1 -159.5 -47.5t-59.5 -120.5
q0 -57 39 -88.5t131 -63.5l217 -76q124 -42 201.5 -118.5t77.5 -182.5q0 -147 -112 -238t-306 -94q-241 -2 -440 121z" />
    <glyph glyph-name="t.smcp" horiz-adv-x="870" 
d="M362 0v862q0 21 1.5 59.5t1.5 61.5q-13 0 -53 -1t-52 -1h-229q-6 35 -6 66q0 33 6 63h811q10 -27 10 -59q0 -36 -19 -53t-69 -17h-146q-12 0 -51 1t-51 1q0 -23 1 -61.5t1 -59.5v-862q-34 -6 -78 -6q-48 0 -78 6z" />
    <glyph glyph-name="u.smcp" horiz-adv-x="1230" 
d="M1063 1110v-725q0 -198 -121.5 -304t-327.5 -106q-204 0 -325 106t-121 304v723l10 10h60q49 0 67.5 -23.5t18.5 -76.5v-633q0 -138 75 -211.5t215 -73.5q142 0 217.5 73.5t75.5 211.5v725q27 8 74 8q51 0 82 -8z" />
    <glyph glyph-name="v.smcp" horiz-adv-x="1011" 
d="M526 139l316 971q29 10 63 10q48 0 72 -12l8 -10l-375 -1100q-58 -6 -114 -6q-44 0 -69.5 14.5t-39.5 61.5l-348 1034q57 22 96 22q31 0 51 -16t33 -59l205 -611q37 -115 86 -284q5 -15 16 -15z" />
    <glyph glyph-name="w.smcp" horiz-adv-x="1511" 
d="M303 70l-231 1032q50 22 92 22q33 0 51 -18.5t27 -61.5l125 -589l63 -312q3 -12 5.5 -15t8.5 -3l222 971q39 8 98 8q69 0 100 -8l201 -953q3 -12 5.5 -15t8.5 -3q30 151 72 330l149 655q31 8 74 8q36 0 74 -10l10 -8l-272 -1098q-49 -10 -139 -10q-81 0 -95 76l-100 462
q-14 59 -84 416h-10q-41 -210 -90 -416l-127 -530q-52 -8 -131 -8q-41 0 -68.5 16.5t-38.5 61.5z" />
    <glyph glyph-name="x.smcp" horiz-adv-x="1021" 
d="M797 1110v2q28 8 65 8q55 0 80 -14l6 -10l-342 -502l387 -567q-45 -39 -106 -39q-55 0 -96 63l-287 420l-320 -471q-28 -8 -65 -8q-51 0 -82 14l-6 10l391 576l-338 498q48 34 102 34q32 0 54.5 -14.5t46.5 -48.5l237 -348z" />
    <glyph glyph-name="y.smcp" horiz-adv-x="874" 
d="M532 702l177 408q31 10 69 10q42 0 72 -12l6 -10l-338 -754v-344q-34 -6 -80 -6t-76 6v348l-339 752q60 26 100 26q57 0 84 -67l160 -363q53 -124 77 -207h9q47 139 79 213z" />
    <glyph glyph-name="z.smcp" horiz-adv-x="1003" 
d="M117 170l475 639q31 40 145 176l-6 4q-61 -10 -289 -10h-303q-6 27 -6 53q0 38 12 78h734q22 -75 22 -100q0 -36 -22 -64l-473 -637q-23 -29 -75 -92.5t-71 -87.5l4 -6q100 10 199 10l219 2q148 0 219 27q17 -46 17 -76q0 -86 -115 -86h-688q-23 78 -23 98q0 37 25 72z
" />
    <glyph glyph-name="ampersand.smcp" horiz-adv-x="1099" 
d="M561 657h332q96 0 149 23q21 -35 21 -74q0 -82 -121 -82h-55q2 -39 2 -112v-187q0 -35 6 -128t6 -105q-24 -8 -76 -8q-41 0 -71 6l-11 67q-132 -82 -294 -82q-167 0 -257 87.5t-90 228.5q0 109 71 192.5t173 110.5q-85 25 -138.5 93.5t-53.5 156.5q0 127 100 210t278 83
q168 0 312 -50q3 -71 -41 -122q-153 43 -266 43q-102 0 -160 -47.5t-58 -124.5q0 -83 59.5 -131t182.5 -48zM737 416v108h-192q-74 0 -130 -19.5t-87 -53.5t-45.5 -72.5t-14.5 -81.5q0 -93 55 -145t156 -52q72 0 141.5 23t116.5 57v236z" />
    <glyph glyph-name="zero.smcp" horiz-adv-x="987" 
d="M104 555q0 179 28.5 298.5t107.5 190.5q103 93 256 93q147 0 252 -95q78 -71 106.5 -190t28.5 -297q0 -176 -28.5 -294t-106.5 -191q-105 -95 -254 -95t-254 95q-78 73 -107 191.5t-29 293.5zM266 555q0 -312 84 -399q55 -58 144 -58q91 0 143 58q86 86 86 399t-86 403
q-52 58 -143 58q-89 0 -144 -58q-84 -91 -84 -403z" />
    <glyph glyph-name="one.smcp" horiz-adv-x="987" 
d="M141 801q128 72 212 152.5t118 156.5q23 8 72 8q46 0 71 -8v-987q13 0 52.5 2t50.5 2h137q6 -30 6 -64q0 -33 -6 -63h-666q-8 46 -8 63q0 24 8 64h174q12 0 49.5 -2t51.5 -2v651q0 21 3 64t3 51q-94 -111 -266 -180q-24 12 -40.5 37t-21.5 55z" />
    <glyph glyph-name="two.smcp" horiz-adv-x="987" 
d="M868 135q0 -41 -2 -59q-5 -39 -29.5 -57.5t-74.5 -18.5h-578q-22 13 -44.5 42.5t-22.5 51.5q0 72 68 165.5t169 172.5l172 135q152 123 152 248q0 82 -55.5 136.5t-139.5 54.5q-74 0 -136 -48.5t-103 -121.5q-35 3 -67 18.5t-46 40.5q44 100 140.5 171t222.5 71
q156 0 251 -93t95 -229q0 -60 -18.5 -113t-55 -99t-71.5 -78.5t-87 -73.5l-145 -115q-168 -133 -187 -211q100 10 222 10h370z" />
    <glyph glyph-name="three.smcp" horiz-adv-x="987" 
d="M786 942l-182 -186q-30 -30 -84 -76q10 2 31 2q126 0 219.5 -89.5t93.5 -238.5q0 -91 -36 -165t-95.5 -119.5t-130.5 -70t-145 -24.5q-107 0 -198.5 29.5t-156.5 77.5q6 27 26 58t44 48q132 -86 266 -86q114 0 190.5 67.5t76.5 184.5q0 98 -60 157.5t-166 59.5
q-76 0 -135 -30q-20 10 -38 33t-27 47v2q1 0 2 1t2 1l266 266q84 78 108 96l-6 6q-65 -12 -227 -12h-279q-8 27 -8 55q0 33 13 74h634q35 -63 35 -100q0 -38 -33 -68z" />
    <glyph glyph-name="four.smcp" horiz-adv-x="987" 
d="M563 0v166q0 12 1 43t1 43q-11 0 -41 -1t-43 -1h-352q-35 60 -35 92q0 21 37 104l320 676q33 6 76 -2.5t69 -27.5l-252 -517q-68 -144 -98 -198l4 -4q102 6 196 6h119q0 8 -1 40.5t-1 41.5v143q0 52 26.5 81.5t67.5 29.5h45l7 -8v-238q0 -11 -1 -45t-1 -45q12 0 38.5 1
t36.5 1h119q4 -23 4 -59q0 -41 -10 -72h-113q-10 0 -36.5 1t-38.5 1q0 -12 1 -43t1 -43v-166q-35 -6 -72 -6q-44 0 -74 6z" />
    <glyph glyph-name="five.smcp" horiz-adv-x="987" 
d="M123 80q7 27 25.5 56.5t41.5 43.5q121 -78 265 -78q106 0 180 68.5t74 194.5q0 65 -21.5 115t-56.5 77.5t-74 41t-80 13.5q-106 0 -241 -86q-39 9 -72 47l24 527l13 10h606q10 -25 10 -59q0 -70 -76 -70h-319h-94v-47l-9 -158q0 -6 -2 -38.5t-4 -51.5q96 47 199 47
q156 0 256 -98t100 -260q0 -98 -34.5 -176t-92 -126t-129 -73t-149.5 -25q-200 0 -340 105z" />
    <glyph glyph-name="six.smcp" horiz-adv-x="987" 
d="M508 -25q-164 0 -260 103q-133 140 -133 497q0 261 118 411.5t342 150.5q71 0 139.5 -15t110.5 -41q-9 -64 -57 -102q-93 33 -188 33q-301 0 -308 -402q123 107 281 107q156 0 246 -93.5t90 -265.5q0 -168 -106 -275.5t-275 -107.5zM516 592q-56 0 -123.5 -31.5
t-120.5 -79.5v-16q0 -207 84 -305q60 -64 152 -64q106 0 164.5 67t58.5 183q0 130 -58 188t-157 58z" />
    <glyph glyph-name="seven.smcp" horiz-adv-x="987" 
d="M137 1110h725q31 -53 31 -96q0 -28 -27 -68l-96 -135q-139 -194 -215 -373t-90 -407l-2 -31q-31 -8 -80 -8q-51 0 -78 8l2 27q21 241 108.5 443.5t250.5 416.5l24 33q30 40 53 63l-6 4q-67 -12 -297 -12h-309q-6 21 -6 55q0 42 12 80z" />
    <glyph glyph-name="eight.smcp" horiz-adv-x="987" 
d="M102 264q0 99 67 184.5t169 124.5q-203 97 -203 269q0 131 102.5 213t254.5 82q156 0 256 -77.5t100 -201.5q0 -91 -50 -159t-134 -105q221 -115 221 -303q0 -147 -114.5 -231.5t-285.5 -84.5q-173 0 -278 77t-105 212zM725 283q0 152 -248 237q-103 -33 -161 -99
t-58 -142q0 -93 64 -141t167 -48q106 0 171 49t65 144zM289 854q0 -71 56.5 -113.5t178.5 -85.5l15 -6q73 30 114 85.5t41 119.5q0 77 -55.5 122.5t-146.5 45.5q-89 0 -146 -48t-57 -120z" />
    <glyph glyph-name="nine.smcp" horiz-adv-x="987" 
d="M500 1137q162 0 258 -103q135 -140 135 -499q0 -260 -118.5 -410t-342.5 -150q-161 0 -252 54q9 62 58 104q93 -33 188 -33q84 0 144 30t94 86t50.5 125t18.5 159q-120 -105 -280 -105q-156 0 -245 92.5t-89 266.5q0 167 105.5 275t275.5 108zM492 520q55 0 120.5 30.5
t120.5 78.5v16q0 209 -82 305q-62 66 -153 66q-104 0 -163 -68.5t-59 -183.5q0 -129 58.5 -186.5t157.5 -57.5z" />
    <glyph glyph-name="currency.smcp" horiz-adv-x="935" 
d="M106 549q0 117 60 205l-119 127q32 59 88 86l127 -119q88 57 207 57q115 0 201 -55l131 121q58 -32 88 -86l-119 -133q59 -88 59 -203q0 -116 -61 -205l121 -129q-21 -47 -88 -88l-129 121q-82 -55 -203 -55q-115 0 -205 55l-129 -119q-48 24 -88 86l119 129
q-60 88 -60 205zM262 549q0 -102 55 -171t152 -69q94 0 150.5 69t56.5 171q0 101 -56.5 171.5t-150.5 70.5q-97 0 -152 -70t-55 -172z" />
    <glyph glyph-name="dollar.smcp" horiz-adv-x="888" 
d="M72 164q2 31 19 67.5t40 53.5q164 -90 326 -90q89 0 139.5 29.5t50.5 90.5q0 102 -147 152l-178 63q-216 80 -216 248q0 100 70 172t193 92v138q21 6 61 6q43 0 64 -6v-133q139 -8 278 -72q0 -84 -59 -125q-151 70 -273 70q-82 0 -129 -34.5t-47 -94.5q0 -48 33.5 -74.5
t108.5 -52.5l153 -56q246 -87 246 -278q0 -115 -85 -186.5t-233 -80.5v-126q-35 -5 -63 -5q-27 0 -62 5v129q-166 19 -290 98z" />
    <glyph glyph-name="cent.smcp" horiz-adv-x="866" 
d="M391 -57v161q-79 13 -138 56.5t-92 108t-49 135.5t-16 149q0 198 85 314t216 141v166q24 6 68 6q34 0 61 -6v-164q124 -16 189 -87t65 -149q0 -46 -17 -71t-63 -25q-23 0 -63 8q2 39 -5.5 74.5t-26.5 66.5t-56 49.5t-88 18.5q-96 0 -151.5 -89t-55.5 -253
q0 -159 57 -241.5t164 -82.5q111 0 223 86q23 -12 45 -36.5t31 -49.5q-98 -103 -252 -125v-161q-27 -6 -63 -6q-44 0 -68 6z" />
    <glyph glyph-name="sterling.smcp" horiz-adv-x="954" 
d="M406 446q0 -134 -132 -317l7 -4q159 6 223 6h368q0 -47 -2 -59q-15 -72 -102 -72h-633q-22 81 -22 100q0 38 22 72l33 49q28 44 42 68.5t30 71.5t16 90q0 4 -1 12t-1 12h-135q-13 56 0 119q16 0 49 -1t51 -1q-2 5 -15.5 36t-17 40.5t-13 36.5t-13 42.5t-7 38t-3.5 43.5
q0 56 21 109.5t62 98.5t109 72.5t154 27.5q203 0 350 -119q-3 -30 -26.5 -62.5t-53.5 -42.5q-61 44 -132.5 68.5t-133.5 24.5q-83 0 -140 -47.5t-57 -129.5q0 -28 8 -62.5t14 -53t25 -65t23 -56.5q44 0 158 1t186 1q17 -58 0 -119q-53 0 -158 1t-156 1q0 -5 1.5 -15.5
t1.5 -15.5z" />
    <glyph glyph-name="Euro.smcp" horiz-adv-x="1032" 
d="M899 918q-139 86 -272 86q-219 0 -269 -267h394q6 -27 6 -57q0 -26 -6 -53h-406q-2 -23 -2 -72v-66h408q6 -30 6 -55q0 -30 -6 -57h-394q47 -271 269 -271q133 0 272 89q26 -17 47 -45t27 -54q-159 -121 -363 -121q-95 0 -168.5 30.5t-121 86.5t-76.5 126.5t-43 158.5
h-138q-6 18 -6 57q0 35 6 55h127q-2 20 -2 66q0 47 2 72h-127q-6 18 -6 53q0 39 6 57h138q66 400 409 400q199 0 363 -121q-6 -28 -27 -55.5t-47 -42.5z" />
    <glyph glyph-name="yen.smcp" horiz-adv-x="913" 
d="M809 301h-281v-301q-30 -6 -73 -6q-44 0 -74 6v301h-283q-6 30 -6 53q0 31 6 58h275l-66 139h-209q-6 30 -6 53q0 34 6 58h156l-203 434q62 30 101 30q46 0 77 -61l158 -352q28 -61 70 -185h8q29 95 70 185l180 399q30 12 71 12q25 0 70 -10l6 -10l-209 -442h156
q6 -30 6 -58q0 -23 -6 -53h-207l-65 -139h272q6 -27 6 -58q0 -23 -6 -53z" />
    <glyph glyph-name="ae.smcp" horiz-adv-x="1579" 
d="M459 276q-6 0 -57 1.5t-62 1.5l-160 -281q-30 -6 -74 -6t-73 10l-4 8l630 1086q35 14 93 14h700q4 -20 4 -59t-10 -70h-447q-9 0 -30.5 -0.5t-41.5 -0.5t-38 1q0 -12 1 -46t1 -56v-250q21 0 58 1t50 1h357q6 -23 6 -66q0 -42 -6 -65h-357h-108v-297q0 -15 -1 -42t-1 -32
q31 2 112 2h482q0 -39 -4 -59q-6 -35 -31.5 -53.5t-65.5 -18.5h-555q-41 0 -64.5 26t-23.5 70v183q-18 0 -64 -1.5t-50 -1.5h-166zM563 668l-151 -265q16 0 49.5 1.5t36.5 1.5h127q4 0 50 -1.5t64 -1.5v578h-10q-11 -21 -75 -142.5t-91 -170.5z" />
    <glyph glyph-name="agrave.smcp" horiz-adv-x="1079" 
d="M416 276q-4 0 -59 1.5t-72 1.5l-103 -281q-30 -6 -67 -6q-44 0 -74 10l-4 6l414 1102q27 10 92 10q61 0 84 -10l415 -1104q-38 -18 -92 -18q-36 0 -54.5 16t-37.5 62l-78 213q-14 0 -66.5 -1.5t-56.5 -1.5h-241zM451 731l-121 -325q15 0 60.5 1t49.5 1h197q4 0 43 -1
t53 -1l-96 266q-52 143 -102 299h-9q-36 -125 -75 -240zM408 1585l280 -315q-9 -22 -29 -41t-43 -25l-333 266q15 38 50 70.5t75 44.5z" />
    <glyph glyph-name="aacute.smcp" horiz-adv-x="1079" 
d="M416 276q-4 0 -59 1.5t-72 1.5l-103 -281q-30 -6 -67 -6q-44 0 -74 10l-4 6l414 1102q27 10 92 10q61 0 84 -10l415 -1104q-38 -18 -92 -18q-36 0 -54.5 16t-37.5 62l-78 213q-14 0 -66.5 -1.5t-56.5 -1.5h-241zM451 731l-121 -325q15 0 60.5 1t49.5 1h197q4 0 43 -1
t53 -1l-96 266q-52 143 -102 299h-9q-36 -125 -75 -240zM408 1270l280 315q40 -12 75 -44.5t50 -70.5l-334 -266q-22 6 -42 24.5t-29 41.5z" />
    <glyph glyph-name="acircumflex.smcp" horiz-adv-x="1079" 
d="M416 276q-4 0 -59 1.5t-72 1.5l-103 -281q-30 -6 -67 -6q-44 0 -74 10l-4 6l414 1102q27 10 92 10q61 0 84 -10l415 -1104q-38 -18 -92 -18q-36 0 -54.5 16t-37.5 62l-78 213q-14 0 -66.5 -1.5t-56.5 -1.5h-241zM451 731l-121 -325q15 0 60.5 1t49.5 1h197q4 0 43 -1
t53 -1l-96 266q-52 143 -102 299h-9q-36 -125 -75 -240zM735 1219l-194 192l-207 -203q-50 20 -74 72l217 270q51 15 133 2l207 -260q-13 -26 -35.5 -45.5t-46.5 -27.5z" />
    <glyph glyph-name="atilde.smcp" horiz-adv-x="1079" 
d="M416 276q-4 0 -59 1.5t-72 1.5l-103 -281q-30 -6 -67 -6q-44 0 -74 10l-4 6l414 1102q27 10 92 10q61 0 84 -10l415 -1104q-38 -18 -92 -18q-36 0 -54.5 16t-37.5 62l-78 213q-14 0 -66.5 -1.5t-56.5 -1.5h-241zM451 731l-121 -325q15 0 60.5 1t49.5 1h197q4 0 43 -1
t53 -1l-96 266q-52 143 -102 299h-9q-36 -125 -75 -240zM575 1276l-124 61q-43 19 -70 19q-42 0 -84 -53l-27 -33q-26 2 -48 15t-29 34l18 41q28 63 76.5 98t107.5 35q51 0 111 -29l125 -59q38 -19 69 -19q43 0 84 54l27 30q25 -2 47 -15.5t31 -33.5l-19 -41
q-30 -65 -79 -99t-105 -34q-51 0 -111 29z" />
    <glyph glyph-name="adieresis.smcp" horiz-adv-x="1079" 
d="M416 276q-4 0 -59 1.5t-72 1.5l-103 -281q-30 -6 -67 -6q-44 0 -74 10l-4 6l414 1102q27 10 92 10q61 0 84 -10l415 -1104q-38 -18 -92 -18q-36 0 -54.5 16t-37.5 62l-78 213q-14 0 -66.5 -1.5t-56.5 -1.5h-241zM451 731l-121 -325q15 0 60.5 1t49.5 1h197q4 0 43 -1
t53 -1l-96 266q-52 143 -102 299h-9q-36 -125 -75 -240zM627 1348q0 34 14 69q34 19 82 19q50 0 80 -19q14 -35 14 -69q0 -38 -14 -70q-25 -18 -80 -18q-53 0 -82 18q-14 35 -14 70zM264 1348q0 32 15 69q30 19 79 19q48 0 82 -19q15 -37 15 -69q0 -36 -15 -70
q-29 -18 -82 -18q-54 0 -79 18q-15 38 -15 70z" />
    <glyph glyph-name="aring.smcp" horiz-adv-x="1079" 
d="M416 276q-4 0 -59 1.5t-72 1.5l-103 -281q-30 -6 -67 -6q-44 0 -74 10l-4 6l414 1102q27 10 92 10q61 0 84 -10l415 -1104q-38 -18 -92 -18q-36 0 -54.5 16t-37.5 62l-78 213q-14 0 -66.5 -1.5t-56.5 -1.5h-241zM451 731l-121 -325q15 0 60.5 1t49.5 1h197q4 0 43 -1
t53 -1l-96 266q-52 143 -102 299h-9q-36 -125 -75 -240zM315 1421q0 89 65 152t161 63t160.5 -63t64.5 -152q0 -90 -64.5 -153.5t-160.5 -63.5t-161 63.5t-65 153.5zM436 1421q0 -51 30 -83.5t75 -32.5t74.5 32.5t29.5 83.5q0 49 -30 82t-74 33t-74.5 -33t-30.5 -82z" />
    <glyph glyph-name="ccedilla.smcp" horiz-adv-x="1087" 
d="M475 -147q18 65 43 124q-89 7 -161.5 42t-121 89.5t-81.5 127t-47.5 151.5t-14.5 166q0 148 39.5 262.5t108.5 183.5t156 103.5t188 34.5q105 0 189.5 -31.5t134.5 -82t76 -109t26 -117.5q0 -95 -84 -95q-24 0 -66 11q-1 58 -15 107.5t-44.5 93t-87 69t-133.5 25.5
q-157 0 -240.5 -115.5t-83.5 -339.5q0 -210 87.5 -326t238.5 -116q160 0 333 129q27 -17 50.5 -46.5t31.5 -56.5q-152 -135 -364 -157q-16 -28 -27 -62q79 -6 130.5 -53.5t51.5 -124.5q0 -82 -64 -135.5t-161 -53.5q-95 0 -151 39q2 43 37 91q49 -29 106 -29q51 0 75.5 25.5
t24.5 64.5t-24.5 63.5t-73.5 24.5q-28 0 -51 -10q-23 10 -31 33z" />
    <glyph glyph-name="egrave.smcp" horiz-adv-x="1028" 
d="M451 131h481q0 -39 -4 -59q-12 -72 -99 -72h-553q-41 0 -65.5 26t-24.5 70v1004l11 10h704q4 -20 4 -59q0 -41 -10 -70h-446h-111q0 -12 1 -46t1 -56v-250q21 0 58.5 1t50.5 1h354q8 -23 8 -66q0 -42 -8 -65h-354h-109v-297q0 -15 -1 -42t-1 -32q31 2 113 2zM422 1585
l280 -315q-9 -23 -29 -41.5t-42 -24.5l-334 266q15 38 50 70.5t75 44.5z" />
    <glyph glyph-name="eacute.smcp" horiz-adv-x="1028" 
d="M451 131h481q0 -39 -4 -59q-12 -72 -99 -72h-553q-41 0 -65.5 26t-24.5 70v1004l11 10h704q4 -20 4 -59q0 -41 -10 -70h-446h-111q0 -12 1 -46t1 -56v-250q21 0 58.5 1t50.5 1h354q8 -23 8 -66q0 -42 -8 -65h-354h-109v-297q0 -15 -1 -42t-1 -32q31 2 113 2zM420 1270
l280 315q40 -12 75 -44.5t50 -70.5l-333 -266q-23 6 -43 25t-29 41z" />
    <glyph glyph-name="ecircumflex.smcp" horiz-adv-x="1028" 
d="M451 131h481q0 -39 -4 -59q-12 -72 -99 -72h-553q-41 0 -65.5 26t-24.5 70v1004l11 10h704q4 -20 4 -59q0 -41 -10 -70h-446h-111q0 -12 1 -46t1 -56v-250q21 0 58.5 1t50.5 1h354q8 -23 8 -66q0 -42 -8 -65h-354h-109v-297q0 -15 -1 -42t-1 -32q31 2 113 2zM748 1219
l-195 192l-207 -203q-50 20 -74 72l217 270q51 15 134 2l206 -260q-26 -54 -81 -73z" />
    <glyph glyph-name="edieresis.smcp" horiz-adv-x="1028" 
d="M451 131h481q0 -39 -4 -59q-12 -72 -99 -72h-553q-41 0 -65.5 26t-24.5 70v1004l11 10h704q4 -20 4 -59q0 -41 -10 -70h-446h-111q0 -12 1 -46t1 -56v-250q21 0 58.5 1t50.5 1h354q8 -23 8 -66q0 -42 -8 -65h-354h-109v-297q0 -15 -1 -42t-1 -32q31 2 113 2zM639 1348
q0 34 14 69q34 19 82 19q50 0 80 -19q14 -35 14 -69q0 -38 -14 -70q-25 -18 -80 -18q-53 0 -82 18q-14 35 -14 70zM276 1348q0 32 15 69q30 19 80 19q48 0 82 -19q14 -35 14 -69q0 -38 -14 -70q-29 -18 -82 -18q-20 0 -45 5.5t-35 12.5q-15 38 -15 70z" />
    <glyph glyph-name="hbar.smcp" horiz-adv-x="1257" 
d="M350 0q-34 -6 -80 -6q-45 0 -75 6v803h-132q-6 27 -6 61q0 32 6 62h132v184q27 8 75 8q49 0 80 -8v-184h557v184q27 8 76 8t80 -8v-184h129q8 -40 8 -62q0 -25 -8 -61h-129v-803q-35 -6 -80 -6q-46 0 -76 6v391q0 24 1 62.5t1 60.5q-8 0 -55.5 -1t-54.5 -1h-342
q-6 0 -54 1t-55 1q0 -22 1 -60.5t1 -62.5v-391zM799 645q7 0 54.5 -1t55.5 -1q0 21 -1 59t-1 62v39h-557v-39q0 -24 -1 -62t-1 -59q7 0 55 1t54 1h342z" />
    <glyph glyph-name="igrave.smcp" horiz-adv-x="542" 
d="M195 0v1110q27 8 75 8q49 0 80 -8v-1110q-34 -6 -80 -6q-45 0 -75 6zM139 1585l281 -315q-9 -22 -29 -41t-43 -25l-334 266q15 38 50 70.5t75 44.5z" />
    <glyph glyph-name="iacute.smcp" horiz-adv-x="542" 
d="M195 0v1110q27 8 75 8q49 0 80 -8v-1110q-34 -6 -80 -6q-45 0 -75 6zM137 1270l281 315q40 -12 75 -44.5t50 -70.5l-334 -266q-23 6 -43 25t-29 41z" />
    <glyph glyph-name="icircumflex.smcp" horiz-adv-x="542" 
d="M195 0v1110q27 8 75 8q49 0 80 -8v-1110q-34 -6 -80 -6q-45 0 -75 6zM465 1219l-195 192l-207 -203q-49 20 -73 72l217 270q51 15 133 2l207 -260q-13 -26 -35.5 -45.5t-46.5 -27.5z" />
    <glyph glyph-name="itilde.smcp" horiz-adv-x="542" 
d="M195 0v1110q27 8 75 8q49 0 80 -8v-1110q-34 -6 -80 -6q-45 0 -75 6zM305 1276l-125 61q-43 19 -69 19q-42 0 -84 -53l-27 -33q-26 2 -48.5 15t-29.5 34l19 41q28 63 76.5 98t107.5 35q51 0 111 -29l124 -59q38 -19 70 -19q43 0 84 54l27 30q25 -2 46.5 -15.5t30.5 -33.5
l-18 -41q-30 -65 -79 -99t-105 -34q-51 0 -111 29z" />
    <glyph glyph-name="idieresis.smcp" horiz-adv-x="542" 
d="M195 0v1110q27 8 75 8q49 0 80 -8v-1110q-34 -6 -80 -6q-45 0 -75 6zM356 1348q0 32 15 69q34 19 82 19q49 0 79 -19q15 -37 15 -69q0 -36 -15 -70q-25 -18 -79 -18q-53 0 -82 18q-15 38 -15 70zM-6 1348q0 34 14 69q30 19 80 19q48 0 82 -19q14 -35 14 -69
q0 -38 -14 -70q-29 -18 -82 -18q-20 0 -45 5.5t-35 12.5q-14 35 -14 70z" />
    <glyph glyph-name="ij.smcp" horiz-adv-x="1327" 
d="M195 0v1110q27 8 75 8q49 0 80 -8v-1110q-34 -6 -80 -6q-45 0 -75 6zM606 166q40 -24 99.5 -42t109.5 -18q108 0 153.5 64.5t45.5 204.5v735q31 8 78 8q50 0 77 -8v-735q0 -203 -83.5 -299t-260.5 -96q-147 0 -274 71q6 66 55 115z" />
    <glyph glyph-name="jcircumflex.smcp" horiz-adv-x="784" 
d="M63 166q40 -24 99.5 -42t109.5 -18q108 0 153.5 64.5t45.5 204.5v735q31 8 78 8q51 0 78 -8v-735q0 -203 -83.5 -299t-260.5 -96q-148 0 -275 71q6 66 55 115zM741 1219l-194 192l-207 -203q-50 20 -74 72l217 270q51 15 133 2l207 -260q-13 -26 -35.5 -45.5t-46.5 -27.5
z" />
    <glyph glyph-name="kcommaaccent.smcp" horiz-adv-x="1073" 
d="M1040 45q-17 -25 -44.5 -40t-53.5 -15q-41 0 -63 21.5t-48 74.5l-131 272q-40 85 -86.5 117.5t-132.5 32.5q-13 0 -36 -1t-54 -2.5t-49 -2.5v-502q-34 -6 -80 -6t-76 6v1110q27 8 76 8t80 -8v-475l119 6q25 1 37 9t30 32l248 367q18 25 28.5 36.5t30.5 21t48 9.5
q43 0 86 -6l14 -14l-295 -428q-19 -30 -57 -64q77 -11 125 -57.5t88 -132.5l117 -246q46 -95 79 -123zM649 -119q17 -38 17 -94q0 -93 -59.5 -171t-162.5 -124q-42 16 -53 70q115 81 115 192q0 55 -27 107q34 21 83.5 26t86.5 -6z" />
    <glyph glyph-name="kgreenlandic.smcp" horiz-adv-x="1087" 
d="M1040 45q-17 -25 -44.5 -40t-53.5 -15q-41 0 -63 21.5t-48 74.5l-131 272q-40 85 -86.5 117.5t-132.5 32.5q-13 0 -36 -1t-54 -2.5t-49 -2.5v-502q-30 -6 -82 -6q-44 0 -74 6v1106l13 12h61q49 0 65.5 -24t16.5 -80v-379l119 6q25 1 37 9t30 32l248 367q18 25 28.5 36.5
t30.5 21t48 9.5q43 0 86 -6l14 -14l-295 -428q-19 -30 -57 -64q77 -11 125 -57.5t88 -132.5l117 -246q46 -95 79 -123z" />
    <glyph glyph-name="ldot.smcp" horiz-adv-x="937" 
d="M502 135h381q0 -43 -4 -63q-15 -72 -99 -72h-504q-40 0 -65 26t-25 72v1010l11 10h63q48 0 65 -22.5t17 -75.5v-893q73 8 160 8zM606 621q0 60 12 84q45 20 91 20q50 0 90 -20q14 -28 14 -84t-14 -84q-11 -8 -39.5 -14.5t-50.5 -6.5q-53 0 -91 21q-12 24 -12 84z" />
    <glyph glyph-name="lslash.smcp" horiz-adv-x="950" 
d="M354 1020v-375l340 100l11 -4q16 -53 2 -118l-353 -105v-391q73 8 162 8h379q0 -43 -4 -63q-12 -72 -98 -72h-504q-39 0 -63.5 26t-24.5 72v377l-119 -35l-10 6q-16 55 -2 119l131 39v504l10 10h61q49 0 65.5 -22t16.5 -76z" />
    <glyph glyph-name="nacute.smcp" horiz-adv-x="1251" 
d="M1055 1118l10 -10v-1108q-41 -6 -92 -6q-53 0 -90 6l-426 700q-81 136 -123 215h-8q10 -173 10 -356v-559q-44 -6 -76 -6q-33 0 -74 6v1110q54 8 90 8q58 0 91 -8l430 -702q3 -5 125 -224l10 2q-19 228 -19 363v471q0 54 17 76t65 22h60zM496 1270l280 315
q40 -12 75 -44.5t50 -70.5l-334 -266q-22 6 -42 24.5t-29 41.5z" />
    <glyph glyph-name="ntilde.smcp" horiz-adv-x="1251" 
d="M1055 1118l10 -10v-1108q-41 -6 -92 -6q-53 0 -90 6l-426 700q-81 136 -123 215h-8q10 -173 10 -356v-559q-44 -6 -76 -6q-33 0 -74 6v1110q54 8 90 8q58 0 91 -8l430 -702q3 -5 125 -224l10 2q-19 228 -19 363v471q0 54 17 76t65 22h60zM664 1276l-125 61q-43 19 -70 19
q-42 0 -84 -53l-27 -33q-26 2 -48 15t-29 34l18 41q28 63 76.5 98t107.5 35q51 0 111 -29l125 -59q38 -19 69 -19q43 0 84 54l27 30q25 -2 47 -15.5t31 -33.5l-19 -41q-30 -65 -79 -99t-105 -34q-50 0 -110 29z" />
    <glyph glyph-name="oe.smcp" horiz-adv-x="1611" 
d="M1516 131q0 -34 -5 -59q-12 -72 -98 -72h-606q-17 -2 -49.5 -7.5t-52.5 -9t-50 -6t-57 -2.5q-180 0 -309 97q-100 80 -148.5 209.5t-48.5 275.5q0 144 48.5 272.5t148.5 208.5q132 99 309 99q28 0 59.5 -3t48.5 -5.5t58.5 -10t50.5 -8.5h670q4 -20 4 -59q0 -41 -10 -70
h-447h-112q0 -13 1 -52.5t1 -54.5v-245q22 0 59.5 1t50.5 1h357q6 -23 6 -66q0 -42 -6 -65h-357h-110v-271q0 -13 -1 -49t-1 -51q31 2 114 2h482zM598 100q77 0 172 25v860q-115 25 -172 25q-80 0 -142 -28.5t-98.5 -73t-60 -106.5t-31.5 -121.5t-8 -125.5t8.5 -125.5
t32 -121.5t60.5 -106.5t98 -73t141 -28.5z" />
    <glyph glyph-name="ograve.smcp" horiz-adv-x="1187" 
d="M256 555q0 -66 8.5 -126t32.5 -121.5t60.5 -106t97.5 -73t139 -28.5q79 0 140 28.5t97.5 73t60 106t32 121.5t8.5 126t-8.5 126t-32 121.5t-60 106t-97.5 73t-140 28.5q-78 0 -139 -28.5t-97.5 -73t-60.5 -106t-32.5 -121.5t-8.5 -126zM92 555q0 143 50 274.5t149 210.5
q129 97 303 97q181 0 303 -97q100 -79 149.5 -210t49.5 -275q0 -145 -49.5 -274.5t-149.5 -208.5q-126 -97 -303 -97q-174 0 -303 97q-99 79 -149 209t-50 274zM463 1585l280 -315q-9 -23 -29 -41.5t-42 -24.5l-334 266q15 38 50 70.5t75 44.5z" />
    <glyph glyph-name="oacute.smcp" horiz-adv-x="1187" 
d="M256 555q0 -66 8.5 -126t32.5 -121.5t60.5 -106t97.5 -73t139 -28.5q79 0 140 28.5t97.5 73t60 106t32 121.5t8.5 126t-8.5 126t-32 121.5t-60 106t-97.5 73t-140 28.5q-78 0 -139 -28.5t-97.5 -73t-60.5 -106t-32.5 -121.5t-8.5 -126zM92 555q0 143 50 274.5t149 210.5
q129 97 303 97q181 0 303 -97q100 -79 149.5 -210t49.5 -275q0 -145 -49.5 -274.5t-149.5 -208.5q-126 -97 -303 -97q-174 0 -303 97q-99 79 -149 209t-50 274zM461 1270l280 315q40 -12 75 -44.5t50 -70.5l-334 -266q-22 6 -42 24.5t-29 41.5z" />
    <glyph glyph-name="ocircumflex.smcp" horiz-adv-x="1187" 
d="M256 555q0 -66 8.5 -126t32.5 -121.5t60.5 -106t97.5 -73t139 -28.5q79 0 140 28.5t97.5 73t60 106t32 121.5t8.5 126t-8.5 126t-32 121.5t-60 106t-97.5 73t-140 28.5q-78 0 -139 -28.5t-97.5 -73t-60.5 -106t-32.5 -121.5t-8.5 -126zM92 555q0 143 50 274.5t149 210.5
q129 97 303 97q181 0 303 -97q100 -79 149.5 -210t49.5 -275q0 -145 -49.5 -274.5t-149.5 -208.5q-126 -97 -303 -97q-174 0 -303 97q-99 79 -149 209t-50 274zM788 1219l-194 192l-207 -203q-50 20 -74 72l217 270q51 15 134 2l206 -260q-13 -26 -35.5 -45.5t-46.5 -27.5z
" />
    <glyph glyph-name="otilde.smcp" horiz-adv-x="1187" 
d="M256 555q0 -66 8.5 -126t32.5 -121.5t60.5 -106t97.5 -73t139 -28.5q79 0 140 28.5t97.5 73t60 106t32 121.5t8.5 126t-8.5 126t-32 121.5t-60 106t-97.5 73t-140 28.5q-78 0 -139 -28.5t-97.5 -73t-60.5 -106t-32.5 -121.5t-8.5 -126zM92 555q0 143 50 274.5t149 210.5
q129 97 303 97q181 0 303 -97q100 -79 149.5 -210t49.5 -275q0 -145 -49.5 -274.5t-149.5 -208.5q-126 -97 -303 -97q-174 0 -303 97q-99 79 -149 209t-50 274zM629 1276l-125 61q-43 19 -70 19q-42 0 -84 -53l-26 -33q-26 2 -48.5 15t-29.5 34l18 41q28 63 77 98t108 35
q50 0 110 -29l125 -59q38 -19 70 -19q43 0 84 54l26 30q25 -2 47 -15.5t31 -33.5l-18 -41q-30 -65 -79.5 -99t-105.5 -34q-50 0 -110 29z" />
    <glyph glyph-name="odieresis.smcp" horiz-adv-x="1187" 
d="M256 555q0 -66 8.5 -126t32.5 -121.5t60.5 -106t97.5 -73t139 -28.5q79 0 140 28.5t97.5 73t60 106t32 121.5t8.5 126t-8.5 126t-32 121.5t-60 106t-97.5 73t-140 28.5q-78 0 -139 -28.5t-97.5 -73t-60.5 -106t-32.5 -121.5t-8.5 -126zM92 555q0 143 50 274.5t149 210.5
q129 97 303 97q181 0 303 -97q100 -79 149.5 -210t49.5 -275q0 -145 -49.5 -274.5t-149.5 -208.5q-126 -97 -303 -97q-174 0 -303 97q-99 79 -149 209t-50 274zM680 1348q0 34 14 69q34 19 82 19q50 0 80 -19q14 -35 14 -69q0 -38 -14 -70q-25 -18 -80 -18q-53 0 -82 18
q-14 35 -14 70zM317 1348q0 32 15 69q30 19 80 19q48 0 82 -19q14 -35 14 -69q0 -38 -14 -70q-29 -18 -82 -18q-20 0 -45 5.5t-35 12.5q-15 38 -15 70z" />
    <glyph glyph-name="oslash.smcp" horiz-adv-x="1187" 
d="M92 555q0 143 50 274.5t149 210.5q129 97 303 97q162 0 278 -78l84 119q28 -8 58.5 -29.5t42.5 -42.5l-94 -131q67 -82 100 -192.5t33 -227.5q0 -145 -49.5 -274.5t-149.5 -208.5q-126 -97 -303 -97q-160 0 -279 78l-86 -121q-27 6 -57.5 28t-42.5 44l94 133
q-131 161 -131 418zM936 555q0 174 -62 295l-481 -688q79 -66 201 -66q80 0 141.5 28.5t98.5 73.5t61 107.5t32.5 122.5t8.5 127zM252 555q0 -180 59 -293l484 688q-79 66 -201 66q-79 0 -140.5 -28.5t-98.5 -74t-61 -108t-33 -123.5t-9 -127z" />
    <glyph glyph-name="racute.smcp" horiz-adv-x="1093" 
d="M977 793q0 -106 -68 -186t-174 -105q46 -19 74.5 -51t52.5 -84l90 -201q47 -100 76 -129q-14 -22 -43 -34.5t-59 -12.5q-41 0 -63.5 21.5t-43.5 70.5l-106 240q-31 71 -73 104t-126 33h-172v-459q-34 -6 -80 -6t-76 6v1100l11 12q199 6 374 6q192 0 299 -85.5t107 -239.5
zM342 995v-409q82 2 223 2q70 0 121 18.5t77.5 50t38 65t11.5 71.5t-11.5 71.5t-37.5 63.5t-76.5 47.5t-120.5 17.5q-159 0 -225 2zM414 1270l280 315q40 -12 75 -44.5t50 -70.5l-334 -266q-22 6 -42 24.5t-29 41.5z" />
    <glyph glyph-name="rcaron.smcp" horiz-adv-x="1093" 
d="M977 793q0 -106 -68 -186t-174 -105q46 -19 74.5 -51t52.5 -84l90 -201q47 -100 76 -129q-14 -22 -43 -34.5t-59 -12.5q-41 0 -63.5 21.5t-43.5 70.5l-106 240q-31 71 -73 104t-126 33h-172v-459q-34 -6 -80 -6t-76 6v1100l11 12q199 6 374 6q192 0 299 -85.5t107 -239.5
zM342 995v-409q82 2 223 2q70 0 121 18.5t77.5 50t38 65t11.5 71.5t-11.5 71.5t-37.5 63.5t-76.5 47.5t-120.5 17.5q-159 0 -225 2zM356 1567l195 -191l207 201q49 -17 73 -70l-219 -270q-51 -18 -131 -2l-207 260q14 25 36.5 45.5t45.5 26.5z" />
    <glyph glyph-name="rcommaaccent.smcp" horiz-adv-x="1093" 
d="M977 793q0 -106 -68 -186t-174 -105q46 -19 74.5 -51t52.5 -84l90 -201q47 -100 76 -129q-14 -22 -43 -34.5t-59 -12.5q-41 0 -63.5 21.5t-43.5 70.5l-106 240q-31 71 -73 104t-126 33h-172v-459q-34 -6 -80 -6t-76 6v1100l11 12q199 6 374 6q192 0 299 -85.5t107 -239.5
zM342 995v-409q82 2 223 2q70 0 121 18.5t77.5 50t38 65t11.5 71.5t-11.5 71.5t-37.5 63.5t-76.5 47.5t-120.5 17.5q-159 0 -225 2zM649 -119q17 -38 17 -94q0 -93 -59.5 -171t-162.5 -124q-42 16 -53 70q115 81 115 192q0 55 -27 107q34 21 83.5 26t86.5 -6z" />
    <glyph glyph-name="germandbls.smcp" horiz-adv-x="1994" 
d="M68 96q1 33 20 66t45 53q61 -34 107.5 -55t122 -40t149.5 -18q102 2 176 52t74 129q0 63 -47 111t-137 77l-228 76q-252 82 -252 274q0 133 102 223t283 93q101 1 204.5 -23t184.5 -61q0 -74 -57 -121q-77 34 -168.5 53.5t-167.5 18.5q-100 -1 -159.5 -47.5t-59.5 -120.5
q0 -57 39 -88.5t131 -63.5l217 -76q124 -42 201.5 -118.5t77.5 -182.5q0 -147 -112 -238t-306 -94q-241 -2 -440 121zM1065 96q1 33 20 66t45 53q61 -34 107.5 -55t122 -40t149.5 -18q102 2 176 52t74 129q0 63 -47 111t-137 77l-227 76q-252 82 -252 274q0 133 102 223
t283 93q101 1 204.5 -23t184.5 -61q0 -34 -16 -66.5t-42 -54.5q-171 75 -335 72q-101 -1 -160.5 -47.5t-59.5 -120.5q0 -57 39 -88.5t131 -63.5l218 -76q124 -41 201 -118t77 -183q0 -147 -112 -238t-306 -94q-241 -2 -440 121z" />
    <glyph glyph-name="germandbls.cap_smcp" horiz-adv-x="1126" 
d="M190 0v549l-157 -2q-6 30 -6 67q0 35 6 62l157 -2v121q0 114 53.5 192.5t141.5 114t205 35.5q171 0 279 -93.5t108 -240.5q0 -67 -19 -123q-74 -15 -118.5 -50.5t-44.5 -80.5q0 -26 16 -47t57 -51l68 -48q129 -95 129 -204q0 -98 -82 -158.5t-217 -60.5q-131 0 -234 47
q2 28 16.5 61t35.5 51q84 -41 172 -41q64 0 104.5 28t40.5 71q0 54 -74 108l-73 51q-123 86 -123 185q0 71 53.5 128.5t136.5 88.5q4 24 4 37q0 96 -62 159.5t-175 63.5q-242 0 -242 -246v-772q-38 -6 -80 -6t-76 6z" />
    <glyph glyph-name="ugrave.smcp" horiz-adv-x="1230" 
d="M1063 1110v-725q0 -198 -121.5 -304t-327.5 -106q-204 0 -325 106t-121 304v723l10 10h60q49 0 67.5 -23.5t18.5 -76.5v-633q0 -138 75 -211.5t215 -73.5q142 0 217.5 73.5t75.5 211.5v725q27 8 74 8q51 0 82 -8zM479 1585l281 -315q-9 -22 -29 -41t-43 -25l-334 266
q15 38 50 70.5t75 44.5z" />
    <glyph glyph-name="uacute.smcp" horiz-adv-x="1230" 
d="M1063 1110v-725q0 -198 -121.5 -304t-327.5 -106q-204 0 -325 106t-121 304v723l10 10h60q49 0 67.5 -23.5t18.5 -76.5v-633q0 -138 75 -211.5t215 -73.5q142 0 217.5 73.5t75.5 211.5v725q27 8 74 8q51 0 82 -8zM477 1270l281 315q40 -12 75 -44.5t50 -70.5l-334 -266
q-23 6 -43 25t-29 41z" />
    <glyph glyph-name="ucircumflex.smcp" horiz-adv-x="1230" 
d="M1063 1110v-725q0 -198 -121.5 -304t-327.5 -106q-204 0 -325 106t-121 304v723l10 10h60q49 0 67.5 -23.5t18.5 -76.5v-633q0 -138 75 -211.5t215 -73.5q142 0 217.5 73.5t75.5 211.5v725q27 8 74 8q51 0 82 -8zM805 1219l-195 192l-207 -203q-49 20 -73 72l217 270
q51 15 133 2l207 -260q-13 -26 -35.5 -45.5t-46.5 -27.5z" />
    <glyph glyph-name="udieresis.smcp" horiz-adv-x="1230" 
d="M1063 1110v-725q0 -198 -121.5 -304t-327.5 -106q-204 0 -325 106t-121 304v723l10 10h60q49 0 67.5 -23.5t18.5 -76.5v-633q0 -138 75 -211.5t215 -73.5q142 0 217.5 73.5t75.5 211.5v725q27 8 74 8q51 0 82 -8zM696 1348q0 32 15 69q34 19 82 19q49 0 79 -19
q15 -37 15 -69q0 -36 -15 -70q-25 -18 -79 -18q-53 0 -82 18q-15 38 -15 70zM334 1348q0 34 14 69q30 19 80 19q48 0 82 -19q14 -35 14 -69q0 -38 -14 -70q-29 -18 -82 -18q-20 0 -45 5.5t-35 12.5q-14 35 -14 70z" />
    <glyph glyph-name="yacute.smcp" horiz-adv-x="874" 
d="M532 702l177 408q31 10 69 10q42 0 72 -12l6 -10l-338 -754v-344q-34 -6 -80 -6t-76 6v348l-339 752q60 26 100 26q57 0 84 -67l160 -363q53 -124 77 -207h9q47 139 79 213zM311 1270l281 315q40 -12 75 -44.5t50 -70.5l-334 -266q-23 6 -43 25t-29 41z" />
    <glyph glyph-name="ydieresis.smcp" horiz-adv-x="874" 
d="M532 702l177 408q31 10 69 10q42 0 72 -12l6 -10l-338 -754v-344q-34 -6 -80 -6t-76 6v348l-339 752q60 26 100 26q57 0 84 -67l160 -363q53 -124 77 -207h9q47 139 79 213zM530 1348q0 32 15 69q34 19 82 19q50 0 80 -19q14 -35 14 -69q0 -38 -14 -70q-25 -18 -80 -18
q-53 0 -82 18q-15 38 -15 70zM168 1348q0 34 14 69q30 19 80 19q48 0 82 -19q14 -35 14 -69q0 -38 -14 -70q-29 -18 -82 -18q-20 0 -45 5.5t-35 12.5q-14 35 -14 70z" />
    <glyph glyph-name="eth.smcp" horiz-adv-x="1179" 
d="M1081 553q0 -79 -7 -139t-26 -123.5t-57.5 -117t-97.5 -97.5q-55 -41 -147 -61.5t-175 -20.5q-133 0 -364 6l-10 10v482h-129q-7 32 -7 63q0 30 7 70h129v475l10 12q234 6 364 6q82 0 174 -21.5t148 -62.5q58 -44 96.5 -98t58 -118t26.5 -125t7 -140zM920 553
q0 68 -7.5 124.5t-30 116.5t-59.5 101t-102 67.5t-152 26.5q-42 0 -112 1t-105 1v-366h289q6 -35 6 -70q0 -36 -6 -63h-289v-375q35 0 105 1t112 1q87 0 152 26.5t102 67.5t59.5 101t30 116t7.5 123z" />
    <glyph glyph-name="thorn.smcp" horiz-adv-x="1028" 
d="M186 0v1110q27 8 76 8t80 -8v-182q32 0 102 1t105 1q186 0 297.5 -91t111.5 -261t-111 -261.5t-298 -91.5h-207v-225q-34 -6 -80 -6t-76 6zM549 805h-207v-455h207q71 0 122 21t77 56t37.5 72.5t11.5 78.5q0 43 -11.5 80t-37.5 72t-77 55t-122 20z" />
    <glyph glyph-name="aogonek.smcp" horiz-adv-x="1079" 
d="M37 8l414 1102q27 10 92 10q61 0 84 -10l415 -1104q-184 -119 -184 -237q0 -48 30 -75.5t77 -27.5q65 0 129 37q39 -27 39 -82q-35 -28 -90.5 -46.5t-112.5 -18.5q-92 0 -149.5 48.5t-57.5 135.5q0 75 44.5 145.5t117.5 126.5q-19 28 -27 54l-78 213q-14 0 -66.5 -1.5
t-56.5 -1.5h-241q-4 0 -59 1.5t-72 1.5l-103 -281q-30 -6 -67 -6q-44 0 -74 10zM451 731l-121 -325q15 0 60.5 1t49.5 1h197q4 0 43 -1t53 -1l-96 266q-52 143 -102 299h-9q-36 -125 -75 -240z" />
    <glyph glyph-name="cacute.smcp" horiz-adv-x="1087" 
d="M860 713q-1 58 -15 107.5t-44.5 93t-87 69t-133.5 25.5q-157 0 -240.5 -115.5t-83.5 -339.5q0 -210 87.5 -326t238.5 -116q160 0 333 129q27 -17 50.5 -46.5t31.5 -56.5q-81 -72 -194 -117t-244 -45q-98 0 -178 32t-133 86.5t-88.5 129.5t-51.5 157t-16 173
q0 148 39.5 262.5t108.5 183.5t156 103.5t188 34.5q105 0 189.5 -31.5t134.5 -82t76 -109t26 -117.5q0 -95 -84 -95q-24 0 -66 11zM451 1270l280 315q40 -12 75 -44.5t50 -70.5l-334 -266q-22 6 -42 24.5t-29 41.5z" />
    <glyph glyph-name="ccaron.smcp" horiz-adv-x="1087" 
d="M860 713q-1 58 -15 107.5t-44.5 93t-87 69t-133.5 25.5q-157 0 -240.5 -115.5t-83.5 -339.5q0 -210 87.5 -326t238.5 -116q160 0 333 129q27 -17 50.5 -46.5t31.5 -56.5q-81 -72 -194 -117t-244 -45q-98 0 -178 32t-133 86.5t-88.5 129.5t-51.5 157t-16 173
q0 148 39.5 262.5t108.5 183.5t156 103.5t188 34.5q105 0 189.5 -31.5t134.5 -82t76 -109t26 -117.5q0 -95 -84 -95q-24 0 -66 11zM393 1567l195 -191l207 201q49 -17 73 -70l-219 -270q-51 -18 -131 -2l-207 260q14 25 36.5 45.5t45.5 26.5z" />
    <glyph glyph-name="dcaron.smcp" horiz-adv-x="1169" 
d="M1071 553q0 -79 -7 -139t-26 -123.5t-58.5 -117t-98.5 -97.5q-54 -41 -145.5 -61.5t-174.5 -20.5q-133 0 -364 6l-11 10v1090l11 12q234 6 364 6q82 0 174 -21.5t146 -62.5q112 -84 151 -200.5t39 -280.5zM907 553q0 69 -7 125t-29 116.5t-59 101t-101.5 67t-151.5 26.5
q-43 0 -113 1t-104 1v-874q34 0 104 1t113 1q87 0 151.5 26.5t101.5 67.5t59 101t29 115.5t7 123.5zM362 1567l195 -191l207 201q50 -17 74 -70l-220 -270q-51 -18 -131 -2l-206 260q14 26 36 46t45 26z" />
    <glyph glyph-name="ecaron.smcp" horiz-adv-x="1028" 
d="M451 131h481q0 -39 -4 -59q-12 -72 -99 -72h-553q-41 0 -65.5 26t-24.5 70v1004l11 10h704q4 -20 4 -59q0 -41 -10 -70h-446h-111q0 -12 1 -46t1 -56v-250q21 0 58.5 1t50.5 1h354q8 -23 8 -66q0 -42 -8 -65h-354h-109v-297q0 -15 -1 -42t-1 -32q31 2 113 2zM362 1567
l195 -191l207 201q50 -17 74 -70l-220 -270q-51 -18 -131 -2l-206 260q14 26 36 46t45 26z" />
    <glyph glyph-name="eogonek.smcp" horiz-adv-x="1028" 
d="M903 -297q37 -30 37 -82q-35 -28 -90.5 -46.5t-112.5 -18.5q-91 0 -149 49t-58 137q0 72 43.5 141t116.5 117h-414q-41 0 -65.5 26t-24.5 70v1004l11 10h704q4 -20 4 -59q0 -41 -10 -70h-446h-111q0 -12 1 -46t1 -56v-250q21 0 58.5 1t50.5 1h354q8 -23 8 -66
q0 -42 -8 -65h-354h-109v-297q0 -15 -1 -42t-1 -32q62 4 113 4h481q0 -41 -4 -61q-9 -49 -54 -66q-1 0 -2 -1t-2 -1q-91 -38 -147.5 -103.5t-56.5 -129.5q0 -50 29.5 -77.5t76.5 -27.5q59 0 131 37z" />
    <glyph glyph-name="ncaron.smcp" horiz-adv-x="1251" 
d="M1055 1118l10 -10v-1108q-41 -6 -92 -6q-53 0 -90 6l-426 700q-81 136 -123 215h-8q10 -173 10 -356v-559q-44 -6 -76 -6q-33 0 -74 6v1110q54 8 90 8q58 0 91 -8l430 -702q3 -5 125 -224l10 2q-19 228 -19 363v471q0 54 17 76t65 22h60zM438 1567l195 -191l207 201
q49 -17 73 -70l-219 -270q-51 -18 -131 -2l-207 260q14 25 36.5 45.5t45.5 26.5z" />
    <glyph glyph-name="sacute.smcp" horiz-adv-x="997" 
d="M68 96q1 33 20 66t45 53q61 -34 107.5 -55t122 -40t149.5 -18q102 2 176 52t74 129q0 63 -47 111t-137 77l-228 76q-252 82 -252 274q0 133 102 223t283 93q101 1 204.5 -23t184.5 -61q0 -74 -57 -121q-77 34 -168.5 53.5t-167.5 18.5q-100 -1 -159.5 -47.5t-59.5 -120.5
q0 -57 39 -88.5t131 -63.5l217 -76q124 -42 201.5 -118.5t77.5 -182.5q0 -147 -112 -238t-306 -94q-241 -2 -440 121zM356 1270l281 315q40 -12 75 -44.5t50 -70.5l-334 -266q-23 6 -43 25t-29 41z" />
    <glyph glyph-name="scaron.smcp" horiz-adv-x="997" 
d="M68 96q1 33 20 66t45 53q61 -34 107.5 -55t122 -40t149.5 -18q102 2 176 52t74 129q0 63 -47 111t-137 77l-228 76q-252 82 -252 274q0 133 102 223t283 93q101 1 204.5 -23t184.5 -61q0 -74 -57 -121q-77 34 -168.5 53.5t-167.5 18.5q-100 -1 -159.5 -47.5t-59.5 -120.5
q0 -57 39 -88.5t131 -63.5l217 -76q124 -42 201.5 -118.5t77.5 -182.5q0 -147 -112 -238t-306 -94q-241 -2 -440 121zM299 1567l195 -191l206 201q50 -17 74 -70l-219 -270q-51 -18 -131 -2l-207 260q14 25 36.5 45.5t45.5 26.5z" />
    <glyph glyph-name="tcaron.smcp" horiz-adv-x="870" 
d="M362 0v862q0 21 1.5 59.5t1.5 61.5q-13 0 -53 -1t-52 -1h-229q-6 35 -6 66q0 33 6 63h811q10 -27 10 -59q0 -36 -19 -53t-69 -17h-146q-12 0 -51 1t-51 1q0 -23 1 -61.5t1 -59.5v-862q-34 -6 -78 -6q-48 0 -78 6zM250 1567l194 -191l207 201q50 -17 74 -70l-219 -270
q-51 -18 -131 -2l-207 260q14 25 36.5 45.5t45.5 26.5z" />
    <glyph glyph-name="uring.smcp" horiz-adv-x="1230" 
d="M1063 1110v-725q0 -198 -121.5 -304t-327.5 -106q-204 0 -325 106t-121 304v723l10 10h60q49 0 67.5 -23.5t18.5 -76.5v-633q0 -138 75 -211.5t215 -73.5q142 0 217.5 73.5t75.5 211.5v725q27 8 74 8q51 0 82 -8zM385 1421q0 89 64.5 152t160.5 63t161 -63t65 -152
q0 -90 -65 -153.5t-161 -63.5t-160.5 63.5t-64.5 153.5zM506 1421q0 -51 29.5 -83.5t74.5 -32.5t75 32.5t30 83.5q0 49 -30.5 82t-74.5 33t-74 -33t-30 -82z" />
    <glyph glyph-name="zacute.smcp" horiz-adv-x="1003" 
d="M117 170l475 639q31 40 145 176l-6 4q-61 -10 -289 -10h-303q-6 27 -6 53q0 38 12 78h734q22 -75 22 -100q0 -36 -22 -64l-473 -637q-23 -29 -75 -92.5t-71 -87.5l4 -6q100 10 199 10l219 2q148 0 219 27q17 -46 17 -76q0 -86 -115 -86h-688q-23 78 -23 98q0 37 25 72z
M385 1270l281 315q40 -12 75 -44.5t50 -70.5l-334 -266q-23 6 -43 25t-29 41z" />
    <glyph glyph-name="zdotaccent.smcp" horiz-adv-x="1003" 
d="M117 170l475 639q31 40 145 176l-6 4q-61 -10 -289 -10h-303q-6 27 -6 53q0 38 12 78h734q22 -75 22 -100q0 -36 -22 -64l-473 -637q-23 -29 -75 -92.5t-71 -87.5l4 -6q100 10 199 10l219 2q148 0 219 27q17 -46 17 -76q0 -86 -115 -86h-688q-23 78 -23 98q0 37 25 72z
M412 1386q0 48 14 76q35 21 92 21q60 0 92 -21q15 -30 15 -76q0 -45 -15 -75q-12 -9 -41 -16t-51 -7q-54 0 -92 23q-14 28 -14 75z" />
    <glyph glyph-name="zcaron.smcp" horiz-adv-x="1003" 
d="M117 170l475 639q31 40 145 176l-6 4q-61 -10 -289 -10h-303q-6 27 -6 53q0 38 12 78h734q22 -75 22 -100q0 -36 -22 -64l-473 -637q-23 -29 -75 -92.5t-71 -87.5l4 -6q100 10 199 10l219 2q148 0 219 27q17 -46 17 -76q0 -86 -115 -86h-688q-23 78 -23 98q0 37 25 72z
M328 1567l194 -191l207 201q50 -17 74 -70l-219 -270q-51 -18 -131 -2l-207 260q14 25 36.5 45.5t45.5 26.5z" />
    </font>
</defs>
</svg>
